<?xml version="1.0" encoding="UTF-8"?>
<svg id="Layer_1" data-name="Layer 1" xmlns="http://www.w3.org/2000/svg" xmlns:xlink="http://www.w3.org/1999/xlink" viewBox="0 0 250 250">
  <defs>
    <style>
      .cls-1 {
        fill: none;
      }

      .cls-2 {
        fill: url(#linear-gradient);
      }

      .cls-3 {
        fill: #b3b3b3;
      }

      .cls-4 {
        fill: #fff;
      }
    </style>
    <linearGradient id="linear-gradient" x1="55.38" y1="177.19" x2="187.63" y2="44.95" gradientUnits="userSpaceOnUse">
      <stop offset="0" stop-color="#1a3864"/>
      <stop offset=".1" stop-color="#253a60"/>
      <stop offset=".28" stop-color="#454056"/>
      <stop offset=".52" stop-color="#784a47"/>
      <stop offset=".81" stop-color="#be5732"/>
      <stop offset="1" stop-color="#f16123"/>
    </linearGradient>
  </defs>
  <g>
    <polygon class="cls-1" points="175.14 211.29 232.21 112.43 231.53 113.61 175.14 211.29"/>
    <polygon class="cls-4" points="175.14 13.58 60.99 13.58 3.92 112.43 17.13 135.32 60.99 211.29 175.14 211.29 231.53 113.61 232.21 112.43 175.14 13.58"/>
    <polygon class="cls-2" points="169.91 27.23 73.1 27.23 24.7 111.07 73.1 194.91 169.91 194.91 218.31 111.07 169.91 27.23"/>
    <g>
      <polygon class="cls-3" points="232.21 112.43 175.14 211.29 60.99 211.29 17.13 135.32 74.59 235.11 187.68 235.35 245.59 135.04 232.21 112.43"/>
      <polygon class="cls-3" points="74.22 194.91 35.81 128.46 82.96 46.7 180.59 45.72 169.91 27.23 72.88 27.25 24.7 111.07 73.1 194.91 74.22 194.91"/>
    </g>
  </g>
  <g>
    <path class="cls-4" d="M110.67,140.61h-28.43l-4.7,13.6h-15.04l25.67-71.49h16.67l25.67,71.49h-15.14l-4.71-13.6ZM106.79,129.16l-10.33-29.86-10.33,29.86h20.66Z"/>
    <path class="cls-4" d="M140.02,110.49c2.39-4.4,5.69-7.81,9.92-10.23,4.23-2.42,9.07-3.63,14.52-3.63,7.02,0,12.84,1.76,17.44,5.27,4.6,3.51,7.69,8.44,9.26,14.78h-15.44c-.82-2.45-2.2-4.38-4.14-5.78-1.94-1.4-4.35-2.1-7.21-2.1-4.09,0-7.33,1.48-9.72,4.45-2.39,2.97-3.58,7.18-3.58,12.63s1.19,9.56,3.58,12.53c2.39,2.97,5.62,4.45,9.72,4.45,5.79,0,9.58-2.59,11.35-7.77h15.44c-1.57,6.14-4.67,11.01-9.31,14.62-4.64,3.61-10.43,5.42-17.39,5.42-5.46,0-10.3-1.21-14.52-3.63-4.23-2.42-7.53-5.83-9.92-10.23-2.39-4.4-3.58-9.53-3.58-15.39s1.19-11,3.58-15.39Z"/>
  </g>
</svg>