<?xml version="1.0" encoding="UTF-8"?>
<svg id="Layer_1" data-name="Layer 1" xmlns="http://www.w3.org/2000/svg" xmlns:xlink="http://www.w3.org/1999/xlink" viewBox="0 0 250 250">
  <defs>
    <style>
      .cls-1 {
        fill: none;
      }

      .cls-2 {
        fill: url(#linear-gradient);
      }

      .cls-3 {
        fill: #b3b3b3;
      }

      .cls-4 {
        fill: #fff;
      }
    </style>
    <linearGradient id="linear-gradient" x1="55.38" y1="177.19" x2="187.63" y2="44.95" gradientUnits="userSpaceOnUse">
      <stop offset="0" stop-color="#1a3864"/>
      <stop offset=".1" stop-color="#253a60"/>
      <stop offset=".28" stop-color="#454056"/>
      <stop offset=".52" stop-color="#784a47"/>
      <stop offset=".81" stop-color="#be5732"/>
      <stop offset="1" stop-color="#f16123"/>
    </linearGradient>
  </defs>
  <g>
    <polygon class="cls-1" points="175.14 211.29 232.21 112.43 231.53 113.61 175.14 211.29"/>
    <polygon class="cls-4" points="175.14 13.58 60.99 13.58 3.92 112.43 17.13 135.32 60.99 211.29 175.14 211.29 231.53 113.61 232.21 112.43 175.14 13.58"/>
    <polygon class="cls-2" points="169.91 27.23 73.1 27.23 24.7 111.07 73.1 194.91 169.91 194.91 218.31 111.07 169.91 27.23"/>
    <g>
      <polygon class="cls-3" points="232.21 112.43 175.14 211.29 60.99 211.29 17.13 135.32 74.59 235.11 187.68 235.35 245.59 135.04 232.21 112.43"/>
      <polygon class="cls-3" points="74.22 194.91 35.81 128.46 82.96 46.7 180.59 45.72 169.91 27.23 72.88 27.25 24.7 111.07 73.1 194.91 74.22 194.91"/>
    </g>
  </g>
  <g>
    <path class="cls-4" d="M69.18,99.55c3.17-5.56,7.5-9.89,12.99-12.99,5.49-3.1,11.64-4.65,18.46-4.65,7.98,0,14.97,2.05,20.97,6.14,6,4.09,10.19,9.75,12.58,16.98h-16.47c-1.64-3.41-3.94-5.97-6.9-7.67-2.97-1.7-6.39-2.56-10.28-2.56-4.16,0-7.86.97-11.1,2.92-3.24,1.94-5.76,4.69-7.57,8.23-1.81,3.55-2.71,7.71-2.71,12.48s.9,8.85,2.71,12.43c1.81,3.58,4.33,6.34,7.57,8.28,3.24,1.94,6.94,2.92,11.1,2.92,3.89,0,7.31-.87,10.28-2.61,2.97-1.74,5.27-4.31,6.9-7.72h16.47c-2.39,7.3-6.56,12.97-12.53,17.03-5.97,4.06-12.97,6.08-21.02,6.08-6.82,0-12.97-1.55-18.46-4.65-5.49-3.1-9.82-7.42-12.99-12.94-3.17-5.52-4.76-11.79-4.76-18.82s1.58-13.31,4.76-18.87Z"/>
    <path class="cls-4" d="M200.65,97.56l-35.08,83.46h-15.24l12.27-28.23-22.71-55.23h16.06l14.63,39.58,14.83-39.58h15.24Z"/>
  </g>
</svg>