<?xml version="1.0" encoding="UTF-8"?>
<svg id="Layer_1" data-name="Layer 1" xmlns="http://www.w3.org/2000/svg" xmlns:xlink="http://www.w3.org/1999/xlink" viewBox="0 0 250 250">
  <defs>
    <style>
      .cls-1 {
        fill: none;
      }

      .cls-2 {
        fill: url(#linear-gradient);
      }

      .cls-3 {
        fill: #b3b3b3;
      }

      .cls-4 {
        fill: #fff;
      }
    </style>
    <linearGradient id="linear-gradient" x1="55.38" y1="177.19" x2="187.63" y2="44.95" gradientUnits="userSpaceOnUse">
      <stop offset="0" stop-color="#1a3864"/>
      <stop offset=".1" stop-color="#253a60"/>
      <stop offset=".28" stop-color="#454056"/>
      <stop offset=".52" stop-color="#784a47"/>
      <stop offset=".81" stop-color="#be5732"/>
      <stop offset="1" stop-color="#f16123"/>
    </linearGradient>
  </defs>
  <g>
    <polygon class="cls-1" points="175.14 211.29 232.21 112.43 231.53 113.61 175.14 211.29"/>
    <polygon class="cls-4" points="175.14 13.58 60.99 13.58 3.92 112.43 17.13 135.32 60.99 211.29 175.14 211.29 231.53 113.61 232.21 112.43 175.14 13.58"/>
    <polygon class="cls-2" points="169.91 27.23 73.1 27.23 24.7 111.07 73.1 194.91 169.91 194.91 218.31 111.07 169.91 27.23"/>
    <g>
      <polygon class="cls-3" points="232.21 112.43 175.14 211.29 60.99 211.29 17.13 135.32 74.59 235.11 187.68 235.35 245.59 135.04 232.21 112.43"/>
      <polygon class="cls-3" points="74.22 194.91 35.81 128.46 82.96 46.7 180.59 45.72 169.91 27.23 72.88 27.25 24.7 111.07 73.1 194.91 74.22 194.91"/>
    </g>
  </g>
  <g>
    <path class="cls-4" d="M92.23,94.39v17.9h24.03v11.35h-24.03v18.92h27.1v11.66h-41.42v-71.49h41.42v11.66h-27.1Z"/>
    <path class="cls-4" d="M154.26,99.24c3.24-1.74,6.94-2.61,11.1-2.61,4.84,0,9.22,1.19,13.14,3.58,3.92,2.39,7.02,5.78,9.31,10.18,2.28,4.4,3.43,9.5,3.43,15.29s-1.14,10.93-3.43,15.39c-2.29,4.47-5.39,7.93-9.31,10.38-3.92,2.46-8.3,3.68-13.14,3.68-4.16,0-7.82-.85-10.99-2.56-3.17-1.7-5.75-3.85-7.72-6.44v35.08h-14.32v-83.66h14.32v8.18c1.84-2.59,4.38-4.76,7.62-6.49ZM174.51,116.83c-1.4-2.49-3.24-4.38-5.52-5.68-2.29-1.29-4.76-1.94-7.42-1.94s-5.03.66-7.31,1.99c-2.29,1.33-4.13,3.26-5.52,5.78-1.4,2.52-2.1,5.49-2.1,8.9s.7,6.38,2.1,8.9c1.4,2.52,3.24,4.45,5.52,5.78,2.28,1.33,4.72,1.99,7.31,1.99s5.13-.68,7.42-2.05c2.28-1.36,4.12-3.31,5.52-5.83s2.1-5.52,2.1-9-.7-6.36-2.1-8.85Z"/>
  </g>
</svg>