<?xml version="1.0" encoding="UTF-8"?>
<svg id="Layer_1" data-name="Layer 1" xmlns="http://www.w3.org/2000/svg" xmlns:xlink="http://www.w3.org/1999/xlink" viewBox="0 0 250 250">
  <defs>
    <style>
      .cls-1 {
        fill: none;
      }

      .cls-2 {
        fill: url(#linear-gradient);
      }

      .cls-3 {
        fill: #b3b3b3;
      }

      .cls-4 {
        fill: #fff;
      }
    </style>
    <linearGradient id="linear-gradient" x1="55.38" y1="177.19" x2="187.63" y2="44.95" gradientUnits="userSpaceOnUse">
      <stop offset="0" stop-color="#1a3864"/>
      <stop offset=".1" stop-color="#253a60"/>
      <stop offset=".28" stop-color="#454056"/>
      <stop offset=".52" stop-color="#784a47"/>
      <stop offset=".81" stop-color="#be5732"/>
      <stop offset="1" stop-color="#f16123"/>
    </linearGradient>
  </defs>
  <g>
    <polygon class="cls-1" points="175.14 211.29 232.21 112.43 231.53 113.61 175.14 211.29"/>
    <polygon class="cls-4" points="175.14 13.58 60.99 13.58 3.92 112.43 17.13 135.32 60.99 211.29 175.14 211.29 231.53 113.61 232.21 112.43 175.14 13.58"/>
    <polygon class="cls-2" points="169.91 27.23 73.1 27.23 24.7 111.07 73.1 194.91 169.91 194.91 218.31 111.07 169.91 27.23"/>
    <g>
      <polygon class="cls-3" points="232.21 112.43 175.14 211.29 60.99 211.29 17.13 135.32 74.59 235.11 187.68 235.35 245.59 135.04 232.21 112.43"/>
      <polygon class="cls-3" points="74.22 194.91 35.81 128.46 82.96 46.7 180.59 45.72 169.91 27.23 72.88 27.25 24.7 111.07 73.1 194.91 74.22 194.91"/>
    </g>
  </g>
  <g>
    <path class="cls-4" d="M128.12,84.83v71.39h-14.32v-30.38h-30.58v30.38h-14.32v-71.39h14.32v29.35h30.58v-29.35h14.32Z"/>
    <path class="cls-4" d="M152.66,153.51c-4.36-2.42-7.79-5.85-10.28-10.28-2.49-4.43-3.73-9.54-3.73-15.34s1.28-10.91,3.83-15.34c2.56-4.43,6.05-7.86,10.48-10.28,4.43-2.42,9.37-3.63,14.83-3.63s10.4,1.21,14.83,3.63c4.43,2.42,7.93,5.85,10.48,10.28,2.56,4.43,3.84,9.55,3.84,15.34s-1.31,10.91-3.94,15.34c-2.63,4.43-6.17,7.86-10.64,10.28-4.47,2.42-9.46,3.63-14.98,3.63s-10.37-1.21-14.73-3.63ZM174.7,142.77c2.28-1.26,4.11-3.15,5.47-5.68,1.36-2.52,2.05-5.59,2.05-9.21,0-5.39-1.42-9.53-4.25-12.43-2.83-2.9-6.29-4.35-10.38-4.35s-7.52,1.45-10.28,4.35c-2.76,2.9-4.14,7.04-4.14,12.43s1.35,9.53,4.04,12.43c2.69,2.9,6.09,4.35,10.18,4.35,2.59,0,5.03-.63,7.31-1.89Z"/>
  </g>
</svg>