<?xml version="1.0" encoding="UTF-8"?>
<svg id="Layer_1" data-name="Layer 1" xmlns="http://www.w3.org/2000/svg" xmlns:xlink="http://www.w3.org/1999/xlink" viewBox="0 0 250 250">
  <defs>
    <style>
      .cls-1 {
        fill: none;
      }

      .cls-2 {
        fill: url(#linear-gradient);
      }

      .cls-3 {
        fill: #b3b3b3;
      }

      .cls-4 {
        fill: #fff;
      }
    </style>
    <linearGradient id="linear-gradient" x1="55.38" y1="177.19" x2="187.63" y2="44.95" gradientUnits="userSpaceOnUse">
      <stop offset="0" stop-color="#1a3864"/>
      <stop offset=".1" stop-color="#253a60"/>
      <stop offset=".28" stop-color="#454056"/>
      <stop offset=".52" stop-color="#784a47"/>
      <stop offset=".81" stop-color="#be5732"/>
      <stop offset="1" stop-color="#f16123"/>
    </linearGradient>
  </defs>
  <g>
    <polygon class="cls-1" points="175.14 211.29 232.21 112.43 231.53 113.61 175.14 211.29"/>
    <polygon class="cls-4" points="175.14 13.58 60.99 13.58 3.92 112.43 17.13 135.32 60.99 211.29 175.14 211.29 231.53 113.61 232.21 112.43 175.14 13.58"/>
    <polygon class="cls-2" points="169.91 27.23 73.1 27.23 24.7 111.07 73.1 194.91 169.91 194.91 218.31 111.07 169.91 27.23"/>
    <g>
      <polygon class="cls-3" points="232.21 112.43 175.14 211.29 60.99 211.29 17.13 135.32 74.59 235.11 187.68 235.35 245.59 135.04 232.21 112.43"/>
      <polygon class="cls-3" points="74.22 194.91 35.81 128.46 82.96 46.7 180.59 45.72 169.91 27.23 72.88 27.25 24.7 111.07 73.1 194.91 74.22 194.91"/>
    </g>
  </g>
  <g>
    <path class="cls-4" d="M138.01,86.23v64.06h-12.85v-41.66l-17.16,41.66h-9.73l-17.25-41.66v41.66h-12.85v-64.06h14.59l20.37,47.63,20.37-47.63h14.5Z"/>
    <path class="cls-4" d="M197.57,128.72h-37.17c.3,3.67,1.59,6.55,3.85,8.63,2.26,2.08,5.05,3.12,8.35,3.12,4.77,0,8.17-2.05,10.19-6.15h13.86c-1.47,4.9-4.28,8.92-8.44,12.07-4.16,3.15-9.27,4.73-15.33,4.73-4.9,0-9.28-1.09-13.17-3.26-3.89-2.17-6.92-5.25-9.09-9.22-2.17-3.98-3.26-8.56-3.26-13.77s1.07-9.88,3.21-13.86c2.14-3.98,5.14-7.03,8.99-9.18,3.85-2.14,8.29-3.21,13.31-3.21s9.16,1.04,12.99,3.12c3.82,2.08,6.79,5.03,8.9,8.86,2.11,3.82,3.17,8.21,3.17,13.17,0,1.84-.12,3.49-.37,4.96ZM184.63,120.09c-.06-3.3-1.25-5.95-3.58-7.94-2.33-1.99-5.17-2.98-8.54-2.98-3.18,0-5.86.96-8.03,2.89-2.17,1.93-3.5,4.6-3.99,8.03h24.14Z"/>
  </g>
</svg>