<?xml version="1.0" encoding="UTF-8"?>
<svg id="Layer_1" data-name="Layer 1" xmlns="http://www.w3.org/2000/svg" xmlns:xlink="http://www.w3.org/1999/xlink" viewBox="0 0 250 250">
  <defs>
    <style>
      .cls-1 {
        fill: none;
      }

      .cls-2 {
        fill: url(#linear-gradient);
      }

      .cls-3 {
        fill: #b3b3b3;
      }

      .cls-4 {
        fill: #fff;
      }
    </style>
    <linearGradient id="linear-gradient" x1="55.38" y1="177.19" x2="187.63" y2="44.95" gradientUnits="userSpaceOnUse">
      <stop offset="0" stop-color="#1a3864"/>
      <stop offset=".1" stop-color="#253a60"/>
      <stop offset=".28" stop-color="#454056"/>
      <stop offset=".52" stop-color="#784a47"/>
      <stop offset=".81" stop-color="#be5732"/>
      <stop offset="1" stop-color="#f16123"/>
    </linearGradient>
  </defs>
  <g>
    <polygon class="cls-1" points="175.14 211.29 232.21 112.43 231.53 113.61 175.14 211.29"/>
    <polygon class="cls-4" points="175.14 13.58 60.99 13.58 3.92 112.43 17.13 135.32 60.99 211.29 175.14 211.29 231.53 113.61 232.21 112.43 175.14 13.58"/>
    <polygon class="cls-2" points="169.91 27.23 73.1 27.23 24.7 111.07 73.1 194.91 169.91 194.91 218.31 111.07 169.91 27.23"/>
    <g>
      <polygon class="cls-3" points="232.21 112.43 175.14 211.29 60.99 211.29 17.13 135.32 74.59 235.11 187.68 235.35 245.59 135.04 232.21 112.43"/>
      <polygon class="cls-3" points="74.22 194.91 35.81 128.46 82.96 46.7 180.59 45.72 169.91 27.23 72.88 27.25 24.7 111.07 73.1 194.91 74.22 194.91"/>
    </g>
  </g>
  <g>
    <path class="cls-4" d="M136.26,86.72v61.74h-12.38v-40.16l-16.54,40.16h-9.38l-16.63-40.16v40.16h-12.38v-61.74h14.06l19.64,45.91,19.64-45.91h13.98Z"/>
    <path class="cls-4" d="M157.48,146.12c-3.77-2.09-6.74-5.06-8.89-8.89-2.15-3.83-3.23-8.25-3.23-13.27s1.11-9.43,3.32-13.27c2.21-3.83,5.23-6.79,9.07-8.89,3.83-2.09,8.11-3.14,12.82-3.14s8.99,1.05,12.83,3.14c3.83,2.09,6.86,5.06,9.07,8.89,2.21,3.83,3.32,8.26,3.32,13.27s-1.14,9.44-3.41,13.27c-2.27,3.83-5.34,6.8-9.2,8.89-3.86,2.09-8.18,3.14-12.96,3.14s-8.96-1.05-12.74-3.14ZM176.54,136.83c1.97-1.09,3.55-2.73,4.73-4.91,1.18-2.18,1.77-4.83,1.77-7.96,0-4.66-1.22-8.24-3.67-10.75-2.45-2.51-5.44-3.76-8.98-3.76s-6.5,1.25-8.89,3.76c-2.39,2.51-3.58,6.09-3.58,10.75s1.16,8.24,3.49,10.75c2.33,2.51,5.26,3.76,8.8,3.76,2.24,0,4.35-.54,6.32-1.64Z"/>
  </g>
</svg>