<?xml version="1.0" encoding="UTF-8"?>
<svg id="Layer_1" data-name="Layer 1" xmlns="http://www.w3.org/2000/svg" xmlns:xlink="http://www.w3.org/1999/xlink" viewBox="0 0 250 250">
  <defs>
    <style>
      .cls-1 {
        fill: none;
      }

      .cls-2 {
        fill: url(#linear-gradient);
      }

      .cls-3 {
        fill: #b3b3b3;
      }

      .cls-4 {
        fill: #fff;
      }
    </style>
    <linearGradient id="linear-gradient" x1="55.38" y1="177.19" x2="187.63" y2="44.95" gradientUnits="userSpaceOnUse">
      <stop offset="0" stop-color="#1a3864"/>
      <stop offset=".1" stop-color="#253a60"/>
      <stop offset=".28" stop-color="#454056"/>
      <stop offset=".52" stop-color="#784a47"/>
      <stop offset=".81" stop-color="#be5732"/>
      <stop offset="1" stop-color="#f16123"/>
    </linearGradient>
  </defs>
  <g>
    <polygon class="cls-1" points="175.14 211.29 232.21 112.43 231.53 113.61 175.14 211.29"/>
    <polygon class="cls-4" points="175.14 13.58 60.99 13.58 3.92 112.43 17.13 135.32 60.99 211.29 175.14 211.29 231.53 113.61 232.21 112.43 175.14 13.58"/>
    <polygon class="cls-2" points="169.91 27.23 73.1 27.23 24.7 111.07 73.1 194.91 169.91 194.91 218.31 111.07 169.91 27.23"/>
    <g>
      <polygon class="cls-3" points="232.21 112.43 175.14 211.29 60.99 211.29 17.13 135.32 74.59 235.11 187.68 235.35 245.59 135.04 232.21 112.43"/>
      <polygon class="cls-3" points="74.22 194.91 35.81 128.46 82.96 46.7 180.59 45.72 169.91 27.23 72.88 27.25 24.7 111.07 73.1 194.91 74.22 194.91"/>
    </g>
  </g>
  <g>
    <path class="cls-4" d="M137.56,89.17v61.29h-12.29v-39.86l-16.42,39.86h-9.31l-16.51-39.86v39.86h-12.29v-61.29h13.96l19.49,45.57,19.49-45.57h13.87Z"/>
    <path class="cls-4" d="M157.58,149.09c-3.16-1.43-5.66-3.38-7.51-5.84-1.84-2.46-2.85-5.18-3.03-8.17h12.38c.23,1.87,1.16,3.42,2.77,4.65,1.61,1.23,3.61,1.84,6.01,1.84s4.17-.47,5.49-1.41c1.32-.94,1.98-2.14,1.98-3.6,0-1.58-.81-2.77-2.42-3.56-1.61-.79-4.17-1.65-7.68-2.59-3.63-.88-6.6-1.79-8.91-2.72-2.31-.94-4.3-2.37-5.97-4.3s-2.5-4.54-2.5-7.81c0-2.69.78-5.15,2.33-7.38,1.55-2.22,3.78-3.98,6.67-5.27,2.9-1.29,6.31-1.93,10.23-1.93,5.8,0,10.42,1.45,13.87,4.35s5.36,6.8,5.71,11.72h-11.77c-.18-1.93-.98-3.47-2.42-4.61-1.44-1.14-3.35-1.71-5.75-1.71-2.23,0-3.94.41-5.14,1.23-1.2.82-1.8,1.96-1.8,3.42,0,1.64.82,2.88,2.46,3.73,1.64.85,4.18,1.71,7.64,2.59,3.51.88,6.41,1.79,8.69,2.72,2.28.94,4.26,2.39,5.93,4.35,1.67,1.96,2.53,4.55,2.59,7.77,0,2.81-.78,5.33-2.33,7.55-1.55,2.23-3.78,3.97-6.67,5.22s-6.28,1.89-10.14,1.89-7.55-.72-10.71-2.15Z"/>
  </g>
</svg>