<?xml version="1.0" encoding="UTF-8"?>
<svg id="Layer_1" data-name="Layer 1" xmlns="http://www.w3.org/2000/svg" xmlns:xlink="http://www.w3.org/1999/xlink" viewBox="0 0 250 250">
  <defs>
    <style>
      .cls-1 {
        fill: none;
      }

      .cls-2 {
        fill: url(#linear-gradient);
      }

      .cls-3 {
        fill: #b3b3b3;
      }

      .cls-4 {
        fill: #fff;
      }
    </style>
    <linearGradient id="linear-gradient" x1="55.38" y1="177.19" x2="187.63" y2="44.95" gradientUnits="userSpaceOnUse">
      <stop offset="0" stop-color="#1a3864"/>
      <stop offset=".1" stop-color="#253a60"/>
      <stop offset=".28" stop-color="#454056"/>
      <stop offset=".52" stop-color="#784a47"/>
      <stop offset=".81" stop-color="#be5732"/>
      <stop offset="1" stop-color="#f16123"/>
    </linearGradient>
  </defs>
  <g>
    <polygon class="cls-1" points="175.14 211.29 232.21 112.43 231.53 113.61 175.14 211.29"/>
    <polygon class="cls-4" points="175.14 13.58 60.99 13.58 3.92 112.43 17.13 135.32 60.99 211.29 175.14 211.29 231.53 113.61 232.21 112.43 175.14 13.58"/>
    <polygon class="cls-2" points="169.91 27.23 73.1 27.23 24.7 111.07 73.1 194.91 169.91 194.91 218.31 111.07 169.91 27.23"/>
    <g>
      <polygon class="cls-3" points="232.21 112.43 175.14 211.29 60.99 211.29 17.13 135.32 74.59 235.11 187.68 235.35 245.59 135.04 232.21 112.43"/>
      <polygon class="cls-3" points="74.22 194.91 35.81 128.46 82.96 46.7 180.59 45.72 169.91 27.23 72.88 27.25 24.7 111.07 73.1 194.91 74.22 194.91"/>
    </g>
  </g>
  <g>
    <path class="cls-4" d="M82.1,152.38c-3.99-1.7-7.14-4.16-9.46-7.36-2.32-3.2-3.51-6.99-3.58-11.35h15.34c.21,2.93,1.24,5.25,3.12,6.96,1.87,1.71,4.45,2.56,7.72,2.56s5.96-.8,7.88-2.4c1.91-1.6,2.86-3.7,2.86-6.29,0-2.11-.65-3.85-1.94-5.22-1.3-1.36-2.92-2.44-4.86-3.22-1.94-.78-4.62-1.65-8.03-2.61-4.64-1.36-8.4-2.71-11.3-4.04-2.9-1.33-5.39-3.34-7.47-6.03-2.08-2.69-3.12-6.29-3.12-10.79,0-4.23,1.06-7.91,3.17-11.05,2.11-3.14,5.08-5.54,8.9-7.21,3.82-1.67,8.18-2.51,13.09-2.51,7.36,0,13.35,1.79,17.95,5.37s7.14,8.58,7.62,14.98h-15.75c-.14-2.45-1.18-4.48-3.12-6.09-1.94-1.6-4.52-2.4-7.72-2.4-2.8,0-5.03.72-6.7,2.15-1.67,1.43-2.51,3.51-2.51,6.24,0,1.91.63,3.49,1.89,4.76,1.26,1.26,2.83,2.29,4.71,3.07,1.88.78,4.52,1.69,7.93,2.71,4.64,1.36,8.42,2.73,11.35,4.09,2.93,1.37,5.45,3.41,7.57,6.14,2.11,2.73,3.17,6.31,3.17,10.74,0,3.82-.99,7.36-2.97,10.64-1.98,3.27-4.88,5.88-8.69,7.82-3.82,1.94-8.35,2.92-13.6,2.92-4.98,0-9.46-.85-13.45-2.56Z"/>
    <path class="cls-4" d="M143.62,151.51c-4.36-2.42-7.79-5.85-10.28-10.28-2.49-4.43-3.73-9.54-3.73-15.34s1.28-10.91,3.83-15.34c2.56-4.43,6.05-7.86,10.48-10.28,4.43-2.42,9.37-3.63,14.83-3.63s10.4,1.21,14.83,3.63c4.43,2.42,7.93,5.85,10.48,10.28,2.56,4.43,3.84,9.55,3.84,15.34s-1.31,10.91-3.94,15.34c-2.63,4.43-6.17,7.86-10.64,10.28-4.47,2.42-9.46,3.63-14.98,3.63s-10.37-1.21-14.73-3.63ZM165.66,140.77c2.28-1.26,4.11-3.15,5.47-5.68,1.36-2.52,2.05-5.59,2.05-9.2,0-5.39-1.42-9.53-4.25-12.43-2.83-2.9-6.29-4.35-10.38-4.35s-7.52,1.45-10.28,4.35c-2.76,2.9-4.14,7.04-4.14,12.43s1.35,9.53,4.04,12.43c2.69,2.9,6.09,4.35,10.18,4.35,2.59,0,5.03-.63,7.31-1.89Z"/>
  </g>
</svg>