<?xml version="1.0" encoding="UTF-8"?>
<svg id="Layer_1" data-name="Layer 1" xmlns="http://www.w3.org/2000/svg" xmlns:xlink="http://www.w3.org/1999/xlink" viewBox="0 0 250 250">
  <defs>
    <style>
      .cls-1 {
        fill: none;
      }

      .cls-2 {
        fill: url(#linear-gradient);
      }

      .cls-3 {
        fill: #b3b3b3;
      }

      .cls-4 {
        fill: #fff;
      }
    </style>
    <linearGradient id="linear-gradient" x1="55.38" y1="177.19" x2="187.63" y2="44.95" gradientUnits="userSpaceOnUse">
      <stop offset="0" stop-color="#1a3864"/>
      <stop offset=".1" stop-color="#253a60"/>
      <stop offset=".28" stop-color="#454056"/>
      <stop offset=".52" stop-color="#784a47"/>
      <stop offset=".81" stop-color="#be5732"/>
      <stop offset="1" stop-color="#f16123"/>
    </linearGradient>
  </defs>
  <g>
    <polygon class="cls-1" points="175.14 211.29 232.21 112.43 231.53 113.61 175.14 211.29"/>
    <polygon class="cls-4" points="175.14 13.58 60.99 13.58 3.92 112.43 17.13 135.32 60.99 211.29 175.14 211.29 231.53 113.61 232.21 112.43 175.14 13.58"/>
    <polygon class="cls-2" points="169.91 27.23 73.1 27.23 24.7 111.07 73.1 194.91 169.91 194.91 218.31 111.07 169.91 27.23"/>
    <g>
      <polygon class="cls-3" points="232.21 112.43 175.14 211.29 60.99 211.29 17.13 135.32 74.59 235.11 187.68 235.35 245.59 135.04 232.21 112.43"/>
      <polygon class="cls-3" points="74.22 194.91 35.81 128.46 82.96 46.7 180.59 45.72 169.91 27.23 72.88 27.25 24.7 111.07 73.1 194.91 74.22 194.91"/>
    </g>
  </g>
  <g>
    <path class="cls-4" d="M139.87,91.3l-14.96,53.54h-12.66l-10.05-38.12-10.51,38.12-12.58.08-14.42-53.62h11.51l9.43,41.57,10.89-41.57h11.97l10.28,41.34,9.51-41.34h11.58Z"/>
    <path class="cls-4" d="M146.65,112.01c1.71-3.32,4.04-5.88,6.98-7.67,2.94-1.79,6.22-2.68,9.86-2.68,3.17,0,5.94.64,8.32,1.92,2.38,1.28,4.28,2.89,5.71,4.83v-6.06h10.82v42.49h-10.82v-6.21c-1.38,1.99-3.29,3.64-5.71,4.95-2.43,1.3-5.23,1.96-8.4,1.96-3.58,0-6.84-.92-9.78-2.76-2.94-1.84-5.27-4.44-6.98-7.79-1.71-3.35-2.57-7.2-2.57-11.54s.86-8.1,2.57-11.43ZM175.99,116.88c-1.02-1.87-2.4-3.3-4.14-4.3-1.74-1-3.6-1.5-5.6-1.5s-3.83.49-5.52,1.46c-1.69.97-3.06,2.39-4.1,4.26-1.05,1.87-1.57,4.08-1.57,6.63s.52,4.79,1.57,6.71c1.05,1.92,2.43,3.39,4.14,4.41,1.71,1.02,3.54,1.53,5.48,1.53s3.86-.5,5.6-1.5c1.74-1,3.12-2.43,4.14-4.29,1.02-1.87,1.53-4.1,1.53-6.71s-.51-4.84-1.53-6.71Z"/>
  </g>
</svg>