<?xml version="1.0" encoding="UTF-8"?>
<svg id="Layer_1" xmlns="http://www.w3.org/2000/svg" version="1.1" viewBox="0 0 500 140">
  <!-- Generator: Adobe Illustrator 29.7.1, SVG Export Plug-In . SVG Version: 2.1.1 Build 8)  -->
  <defs>
    <style>
      .st0 {
        fill: none;
      }

      .st1 {
        fill: #f26b26;
      }

      .st2 {
        fill: #dedddd;
      }

      .st3 {
        fill: #047198;
      }

      .st4 {
        fill: #c5c5c5;
      }

      .st5 {
        fill: #057197;
      }

      .st6 {
        fill: #002d76;
      }

      .st7 {
        fill: #c7c6c6;
      }
    </style>
  </defs>
  <g>
    <g>
      <g>
        <path class="st3" d="M150.08,105.39v-62.49c0-14.32,11.61-25.93,25.93-25.93h46.63c1.02,0,1.72,1.02,1.36,1.97l-2.93,7.8c-.71,1.89-2.52,3.14-4.54,3.14h-39.54c-7.83,0-14.19,6.35-14.19,14.19v9.28h42.03c1.02,0,1.72,1.02,1.36,1.97l-2.93,7.8c-.71,1.89-2.52,3.14-4.54,3.14h-35.92v40.3h-11.55c-.65,0-1.19-.53-1.19-1.19h0Z"/>
        <path class="st3" d="M329.23,33.46h5.43c1.02,0,1.72,1.03,1.35,1.98l-2.89,7.49c-.68,1.78-2.35,3.01-4.26,3.1-16.2.76-23.49,13.81-23.49,23.73v35.41c0,.65-.53,1.19-1.19,1.19h-11.58c-.65,0-1.19-.53-1.19-1.19v-35.08c0-21.33,15.39-36.64,37.8-36.64h0Z"/>
        <path class="st3" d="M335.3,96.5l41.25-50.49h-38.18c-1.02,0-1.72-1.03-1.35-1.98l3.73-9.64c.22-.56.75-.93,1.35-.93h51.69c.65,0,1.19.53,1.19,1.19v8.67l-41.25,50.49h39.12c1.02,0,1.72,1.03,1.35,1.98l-2.89,7.47c-.72,1.87-2.52,3.11-4.52,3.11h-50.31c-.65,0-1.19-.53-1.19-1.19v-8.67h0Z"/>
        <path class="st3" d="M470.19,70.99v34.25c0,.65-.53,1.19-1.19,1.19h-4.75c-1.77,0-3.39-.96-4.24-2.51l-3.47-6.28c-4.46,6.56-16.89,10.89-25.41,10.89-21.52,0-37.7-16.79-37.7-37.53s16.18-37.53,37.7-37.53,39.06,16.79,39.06,37.53h0ZM456.56,70.99c0-14.06-11.35-25.41-25.41-25.41s-25.41,11.35-25.41,25.41,11.35,25.41,25.41,25.41,25.41-11.35,25.41-25.41Z"/>
        <path class="st3" d="M249.45,108.67c-21.65,0-37.13-16.79-37.13-37.53s15.49-37.53,37.13-37.53,37.13,16.79,37.13,37.53-15.48,37.53-37.13,37.53h0ZM274.91,71.14c0-14.06-11.35-25.41-25.41-25.41s-25.41,11.35-25.41,25.41,11.35,25.41,25.41,25.41,25.41-11.35,25.41-25.41Z"/>
      </g>
      <g>
        <path class="st3" d="M483.33,33.46h-12.89c-.16,0-.25.08-.25.25v2.42c0,.16.08.25.25.25h4.78l.02,6.56c0,.07.02.12.07.17.05.05.11.07.17.07h2.82c.16,0,.25-.08.25-.25v-6.56h4.78c.16,0,.25-.08.25-.25v-2.42c0-.16-.08-.25-.25-.25h0Z"/>
        <path class="st3" d="M499.75,33.46h-3.13s-.09.02-.12.05l-4.37,3.93-4.37-3.93s-.07-.05-.12-.05h-3.13c-.16,0-.25.08-.25.25v9.22c0,.16.08.25.25.25h2.82c.16,0,.25-.08.25-.25v-5.66l-.02-.32,3.76,3.67s.07.05.12.05h1.4s.09-.02.12-.05l3.79-3.69-.05.34v5.66c0,.16.08.25.25.25h2.82c.16,0,.25-.08.25-.25v-9.22c0-.16-.08-.25-.25-.25h0Z"/>
      </g>
    </g>
    <g>
      <path class="st1" d="M151.02,130.59c-.26,0-.42-.13-.47-.39l-1.91-9.25c-.06-.29.09-.47.39-.47h1.65c.24,0,.4.13.46.39l1.43,7.12,4.41-7.22c.1-.19.27-.29.52-.29h1.96c.34,0,.47.23.29.52l-5.87,9.31c-.13.19-.3.29-.52.29h-2.33Z"/>
      <path class="st1" d="M160.74,130.59c-.3,0-.44-.19-.39-.47l1.96-9.25c.06-.26.21-.39.47-.39h1.66c.3,0,.44.19.39.47l-1.96,9.25c-.06.26-.21.39-.47.39h-1.66Z"/>
      <path class="st1" d="M169.45,130.59c-2.18,0-3.27-1.07-3.02-3.01.04-.27.2-.4.47-.4h1.7c.24,0,.39.14.4.44.03.36.26.53.67.53h2.88c.64,0,.95-.19,1.06-.69.1-.52-.07-.7-.66-.75l-2.91-.23c-2.21-.17-3.11-1.19-2.72-3.05.44-2.05,1.43-2.97,3.77-2.97h2.69c2.18,0,3.28,1.1,3.04,3.01-.04.27-.2.4-.47.4h-1.7c-.24,0-.39-.14-.4-.44-.03-.36-.26-.53-.69-.53h-2.66c-.64,0-.93.17-1.05.69-.11.5.07.69.66.73l2.91.2c2.16.16,3.11,1.16,2.71,3.04-.21,1.03-.62,1.79-1.19,2.29-.56.49-1.42.73-2.58.73h-2.91Z"/>
      <path class="st1" d="M178.65,130.59c-.3,0-.44-.19-.39-.47l1.96-9.25c.06-.26.21-.39.47-.39h1.66c.3,0,.44.19.39.47l-1.96,9.25c-.06.26-.21.39-.47.39h-1.66Z"/>
      <path class="st1" d="M187.72,130.59c-1.13,0-1.95-.32-2.48-.96-.53-.64-.67-1.48-.46-2.52l.66-3.14c.5-2.33,1.79-3.5,3.85-3.5h3.77c1.13,0,1.96.33,2.49.97.53.64.67,1.48.44,2.52l-.66,3.14c-.49,2.32-1.78,3.48-3.85,3.48h-3.77ZM191.71,128.15c.63,0,.9-.26,1.06-.96l.7-3.31c.16-.75,0-.97-.64-.97h-3.77c-.64,0-.89.23-1.05.97l-.7,3.31c-.16.73,0,.96.63.96h3.77Z"/>
      <path class="st1" d="M197.84,130.59c-.3,0-.44-.19-.39-.47l1.96-9.25c.06-.26.21-.39.47-.39h1.7c.21,0,.39.1.5.3l3.28,6.16,1.3-6.07c.06-.26.21-.39.47-.39h1.68c.3,0,.44.19.39.47l-1.96,9.25c-.06.26-.21.39-.47.39h-1.68c-.21,0-.39-.1-.5-.3l-3.32-6.27-1.29,6.19c-.06.26-.21.39-.47.39h-1.68Z"/>
      <path class="st1" d="M210.94,130.59c-.32,0-.44-.16-.39-.47l.37-1.75c.06-.24.21-.37.47-.37h1.66c.32,0,.44.16.39.47l-.37,1.75c-.06.24-.21.37-.47.37h-1.66Z"/>
      <path class="st1" d="M221.68,130.59c-.3,0-.44-.19-.39-.47l1.96-9.25c.06-.26.21-.39.47-.39h4.97c2.81,0,3.94,1.32,3.42,3.8l-.09.42c-.27,1.29-.75,2.23-1.42,2.84-.66.6-1.68.9-3.04.9h-3.38l-.37,1.78c-.06.26-.21.39-.47.39h-1.68ZM224.72,126.02h2.87c1.15,0,1.68-.23,1.91-1.36l.09-.37c.24-1.13-.17-1.38-1.33-1.38h-2.86l-.66,3.11Z"/>
      <path class="st1" d="M241.08,120.47c2.87,0,4.1,1.33,3.58,3.8l-.06.27c-.4,1.88-1.15,3.05-2.59,3.52l.97,2.02c.13.3.01.5-.32.5h-1.85c-.24,0-.4-.11-.49-.33l-.8-1.98h-2.91l-.4,1.92c-.06.26-.21.39-.47.39h-1.68c-.3,0-.44-.19-.39-.47l1.96-9.25c.06-.26.21-.39.47-.39h4.96ZM242.09,124.29c.29-1.13-.2-1.38-1.46-1.38h-2.86l-.63,2.97h2.87c.6,0,1.06-.09,1.36-.26.3-.17.53-.54.67-1.1l.06-.23Z"/>
      <path class="st1" d="M246.6,130.59c-.3,0-.44-.19-.39-.47l1.96-9.25c.06-.26.21-.39.47-.39h7.68c.3,0,.44.19.39.47l-.33,1.58c-.06.26-.21.39-.47.39h-5.63l-.32,1.49h3.34c.3,0,.44.19.39.47l-.29,1.35c-.06.26-.21.39-.47.39h-3.44l-.33,1.55h5.53c.3,0,.44.19.39.47l-.33,1.58c-.06.26-.21.39-.47.39h-7.68Z"/>
      <path class="st1" d="M261.17,130.59c-1.13,0-1.95-.32-2.48-.96-.53-.64-.67-1.48-.46-2.52l.66-3.14c.5-2.33,1.79-3.5,3.85-3.5h3.19c1.13,0,1.96.33,2.49.97.53.64.67,1.48.44,2.52h0c-.04.27-.2.4-.47.4h-1.66c-.32,0-.46-.09-.43-.24l.04-.24c.17-.82-.03-.97-.64-.97h-3.19c-.62,0-.87.16-1.05.97l-.7,3.31c-.17.79.06.96.63.96h3.19c.57,0,.89-.17,1.06-.96l.06-.26c.06-.26.21-.39.46-.39h1.69c.3,0,.44.09.42.27l-.06.29c-.46,2.22-1.55,3.48-3.71,3.48h-3.34Z"/>
      <path class="st1" d="M270.58,130.59c-.3,0-.44-.19-.39-.47l1.96-9.25c.06-.26.21-.39.47-.39h1.66c.3,0,.44.19.39.47l-1.96,9.25c-.06.26-.21.39-.47.39h-1.66Z"/>
      <path class="st1" d="M279.29,130.59c-2.18,0-3.27-1.07-3.02-3.01.04-.27.2-.4.47-.4h1.7c.24,0,.39.14.4.44.03.36.26.53.67.53h2.88c.64,0,.95-.19,1.06-.69.1-.52-.07-.7-.66-.75l-2.91-.23c-2.21-.17-3.11-1.19-2.72-3.05.44-2.05,1.43-2.97,3.77-2.97h2.69c2.18,0,3.28,1.1,3.04,3.01-.04.27-.2.4-.47.4h-1.7c-.24,0-.39-.14-.4-.44-.03-.36-.26-.53-.69-.53h-2.66c-.64,0-.93.17-1.05.69-.11.5.07.69.66.73l2.91.2c2.16.16,3.11,1.16,2.71,3.04-.21,1.03-.62,1.79-1.19,2.29-.56.49-1.42.73-2.58.73h-2.91Z"/>
      <path class="st1" d="M288.49,130.59c-.3,0-.44-.19-.39-.47l1.96-9.25c.06-.26.21-.39.47-.39h1.66c.3,0,.44.19.39.47l-1.96,9.25c-.06.26-.21.39-.47.39h-1.66Z"/>
      <path class="st1" d="M297.56,130.59c-1.13,0-1.95-.32-2.48-.96-.53-.64-.67-1.48-.46-2.52l.66-3.14c.5-2.33,1.79-3.5,3.85-3.5h3.77c1.13,0,1.96.33,2.49.97s.67,1.48.44,2.52l-.66,3.14c-.49,2.32-1.78,3.48-3.85,3.48h-3.77ZM301.55,128.15c.63,0,.9-.26,1.06-.96l.7-3.31c.16-.75,0-.97-.64-.97h-3.77c-.64,0-.89.23-1.05.97l-.7,3.31c-.16.73,0,.96.63.96h3.77Z"/>
      <path class="st1" d="M307.68,130.59c-.3,0-.44-.19-.39-.47l1.96-9.25c.06-.26.21-.39.47-.39h1.7c.21,0,.39.1.5.3l3.28,6.16,1.3-6.07c.06-.26.21-.39.47-.39h1.68c.3,0,.44.19.39.47l-1.96,9.25c-.06.26-.21.39-.47.39h-1.68c-.21,0-.39-.1-.5-.3l-3.32-6.27-1.29,6.19c-.06.26-.21.39-.47.39h-1.68Z"/>
      <path class="st1" d="M320.78,130.59c-.32,0-.44-.16-.39-.47l.37-1.75c.06-.24.21-.37.47-.37h1.66c.32,0,.44.16.39.47l-.37,1.75c-.06.24-.21.37-.47.37h-1.66Z"/>
      <path class="st1" d="M331.52,130.59c-.3,0-.44-.19-.39-.47l1.96-9.25c.06-.26.21-.39.47-.39h4.97c2.81,0,3.94,1.32,3.42,3.8l-.09.42c-.27,1.29-.75,2.23-1.42,2.84-.66.6-1.68.9-3.04.9h-3.38l-.37,1.78c-.06.26-.21.39-.47.39h-1.68ZM334.56,126.02h2.87c1.15,0,1.68-.23,1.91-1.36l.09-.37c.24-1.13-.17-1.38-1.33-1.38h-2.86l-.66,3.11Z"/>
      <path class="st1" d="M343.91,130.59c-.3,0-.44-.19-.39-.47l1.96-9.25c.06-.26.21-.39.47-.39h7.68c.3,0,.44.19.39.47l-.33,1.58c-.06.26-.21.39-.47.39h-5.63l-.32,1.49h3.34c.3,0,.44.19.39.47l-.29,1.35c-.06.26-.21.39-.47.39h-3.44l-.33,1.55h5.53c.3,0,.44.19.39.47l-.33,1.58c-.06.26-.21.39-.47.39h-7.68Z"/>
      <path class="st1" d="M362.33,120.47c2.87,0,4.1,1.33,3.58,3.8l-.06.27c-.4,1.88-1.15,3.05-2.59,3.52l.97,2.02c.13.3.01.5-.32.5h-1.85c-.24,0-.4-.11-.49-.33l-.8-1.98h-2.91l-.4,1.92c-.06.26-.21.39-.47.39h-1.68c-.3,0-.44-.19-.39-.47l1.96-9.25c.06-.26.21-.39.47-.39h4.96ZM363.35,124.29c.29-1.13-.2-1.38-1.46-1.38h-2.86l-.63,2.97h2.87c.6,0,1.06-.09,1.36-.26.3-.17.53-.54.67-1.1l.06-.23Z"/>
      <path class="st1" d="M367.86,130.59c-.3,0-.44-.19-.39-.47l1.96-9.25c.06-.26.21-.39.47-.39h7.45c.3,0,.44.19.39.47l-.33,1.58c-.06.26-.21.39-.47.39h-5.4l-.32,1.49h3.17c.3,0,.44.19.39.47l-.29,1.35c-.06.26-.21.39-.47.39h-3.27l-.76,3.6c-.06.26-.21.39-.47.39h-1.66Z"/>
      <path class="st1" d="M381.82,130.59c-1.13,0-1.95-.32-2.48-.96-.53-.64-.67-1.48-.46-2.52l.66-3.14c.5-2.33,1.79-3.5,3.85-3.5h3.77c1.13,0,1.96.33,2.49.97s.67,1.48.44,2.52l-.66,3.14c-.49,2.32-1.78,3.48-3.85,3.48h-3.77ZM385.81,128.15c.63,0,.9-.26,1.06-.96l.7-3.31c.16-.75,0-.97-.64-.97h-3.77c-.64,0-.89.23-1.05.97l-.7,3.31c-.16.73,0,.96.63.96h3.77Z"/>
      <path class="st1" d="M398.95,120.47c2.87,0,4.1,1.33,3.58,3.8l-.06.27c-.4,1.88-1.15,3.05-2.59,3.52l.97,2.02c.13.3.01.5-.32.5h-1.85c-.24,0-.4-.11-.49-.33l-.8-1.98h-2.91l-.4,1.92c-.06.26-.21.39-.47.39h-1.68c-.3,0-.44-.19-.39-.47l1.96-9.25c.06-.26.21-.39.47-.39h4.96ZM399.96,124.29c.29-1.13-.2-1.38-1.46-1.38h-2.86l-.63,2.97h2.87c.6,0,1.06-.09,1.36-.26.3-.17.53-.54.67-1.1l.06-.23Z"/>
      <path class="st1" d="M404.48,130.59c-.3,0-.44-.19-.39-.47l1.96-9.25c.06-.26.21-.39.47-.39h1.82c.24,0,.42.11.49.34l2.01,5.21,4.04-5.3c.13-.17.3-.26.53-.26h2.26c.3,0,.44.19.39.47l-1.96,9.25c-.06.26-.21.39-.47.39h-1.66c-.3,0-.44-.19-.39-.47l1.19-5.57-3.38,4.18c-.13.17-.32.26-.53.26h-1c-.24,0-.42-.11-.49-.34l-1.56-4.05-1.19,5.62c-.06.26-.21.39-.47.39h-1.66Z"/>
      <path class="st1" d="M427.93,130.59c-.24,0-.4-.13-.46-.39l-.24-1.19h-4.93l-.82,1.29c-.1.19-.27.29-.52.29h-1.99c-.34,0-.47-.23-.29-.52l6.22-9.33c.13-.19.3-.27.52-.27h2.03c.26,0,.42.13.47.37l2.25,9.27c.07.29-.07.47-.37.47h-1.88ZM423.6,126.95h3.21l-.77-3.87-2.44,3.87Z"/>
      <path class="st1" d="M433.07,130.59c-.3,0-.44-.19-.39-.47l1.96-9.25c.06-.26.21-.39.47-.39h1.7c.21,0,.39.1.5.3l3.28,6.16,1.3-6.07c.06-.26.21-.39.47-.39h1.68c.3,0,.44.19.39.47l-1.96,9.25c-.06.26-.21.39-.47.39h-1.68c-.21,0-.39-.1-.5-.3l-3.32-6.27-1.29,6.19c-.06.26-.21.39-.47.39h-1.68Z"/>
      <path class="st1" d="M449.41,130.59c-1.13,0-1.95-.32-2.48-.96-.53-.64-.67-1.48-.46-2.52l.66-3.14c.5-2.33,1.79-3.5,3.85-3.5h3.19c1.13,0,1.96.33,2.49.97.53.64.67,1.48.44,2.52h0c-.04.27-.2.4-.47.4h-1.66c-.32,0-.46-.09-.43-.24l.04-.24c.17-.82-.03-.97-.64-.97h-3.19c-.62,0-.87.16-1.05.97l-.7,3.31c-.17.79.06.96.63.96h3.19c.57,0,.89-.17,1.06-.96l.06-.26c.06-.26.21-.39.46-.39h1.69c.3,0,.44.09.42.27l-.06.29c-.46,2.22-1.55,3.48-3.71,3.48h-3.34Z"/>
      <path class="st1" d="M458.82,130.59c-.3,0-.44-.19-.39-.47l1.96-9.25c.06-.26.21-.39.47-.39h7.68c.3,0,.44.19.39.47l-.33,1.58c-.06.26-.21.39-.47.39h-5.63l-.32,1.49h3.34c.3,0,.44.19.39.47l-.29,1.35c-.06.26-.21.39-.47.39h-3.44l-.33,1.55h5.53c.3,0,.44.19.39.47l-.33,1.58c-.06.26-.21.39-.47.39h-7.68Z"/>
      <path class="st1" d="M470.28,130.59c-.32,0-.44-.16-.39-.47l.37-1.75c.06-.24.21-.37.47-.37h1.66c.32,0,.44.16.39.47l-.37,1.75c-.06.24-.21.37-.47.37h-1.66Z"/>
    </g>
  </g>
  <g>
    <g>
      <path class="st5" d="M46.13,10.43c-2.39.74-6.46,1.45-11.86,4.69-4.32,2.59-8.12,5.27-12.28,10.14,8.57-2.24,27.86-7.18,36.3-9.51-3.03-1.55-8.56-3.8-12.15-5.32Z"/>
      <path class="st1" d="M43.77,59.06l12.11-8.16s3.09-.22-1.35,5.61c-2.03,2.67-2.6,4.53-3.26,6.3-.77,2.06-1.02,3.49-1.01,5.79s.37,3.42,1.68,6.01c.21.41,7.02,14.38,7.02,14.38-3.01-3.42-4.03-5.81-3.09-9.94,1.01-4.44,3.6-5.57,3.6-5.57,1.19,1.44,2.5,2.66,3.82,4.02,2.76,2.86,3.46,3.58,5.62,5.65,0,0,1.36,6.08,3.18,4.04l-.02.17s1.7.01,3.82-.03c.9.26,1.77.35,2.26-.07,2.63-.1,5.24-.32,5.82-.75,3.01-2.25,5.85-12.97,7.5-13.8l9.25-8.72-11.99-1.56c-.22.2-.43.4-.65.6-2.3-.94-3.18-.51-4.59-1.25-.05-.03-2.73-1.43-4.39-2.28l4.89,1.25s8.5.03,12.17,0c4.16-.04,11.02.45,17.16,1.69,4.89.99,14.58,3.35,17.12,7.86.74,1.31,1.36,4.93,1.39,5.92.1,3.66-.44,6.66-.93,8.63,1.7-1.64,6.16-6.86,8.1-15.33.89-3.87,2.08-7.24,2.1-13.55.01-5.82-1.39-9.43-4.18-12.4-2.42-2.58-8.12-4.76-12.57-6.15-.89-2.54-1.85-5.64-2.63-7.72-.24.52-.57,1.18-.94,1.91l.94-1.91-11.02-12.62-.58,1.86-3.95-2.82-4.56-3.08-9.24-6.15,15.94,17.89h0s-15.94-17.89-15.94-17.89c.05.14,2.78,3.44,4.37,7.51,1.15,2.93,1.12,5.97,1.17,6.21-2.13-2.83-3.53-4.61-5.54-6.54-1.38-1.33-3.31-2.57-4.63-3.22.17,1.03.34,2.06.51,3.09l-6.56-2.72,1.64,3.34s-5.75-2.73-5.75-2.73l9.57-4.94c-10.36-1.14-13.09-1.44-19.65-1.61-1.67-.04-14.44,0-14.44,0l1.41,2-12.37,1.91h0s0,0,0,0c.94.27,2.05.58,3.25.91l12.87,5.63c-8.27-.63-14.01-1.05-24.72,2.6,0,0,0,0,0,0-11.64,4.22-16.85,9.71-24.06,16.56,6.17-2.63,8.98-3.91,15.59-6.2,8.46-3.89,15.87-3.89,15.87-3.89-3.14,1.96-6.32,3.9-6.32,3.9l6.48,8.99s-1-9.98,5.92-11.03l-.63,2.16c-.98,3.36-.86,6.97.5,10.2,0,.02.02.04.03.06,1.84,4.36,5.48,7.89,5.48,7.89l-8.65,12.08ZM77.62,11.85c-.06.03-3.54,1.83-3.55,1.83h0l3.55-1.83ZM67.26,15.46h0s-.01,0-.01,0c0,0,.01,0,.02,0ZM72.76,19.89c2.74-.29,5.48-.57,8.21-.86h.02s-8.23.86-8.23.86ZM118.77,35.86s-.02,0-.02,0l.22-.44c-.07.15-.13.3-.19.45ZM108.36,24.81l1.05,1.18c-.46-.5-.83-.91-1.05-1.18ZM111.68,52.36c.04-.75.08-1.49.13-2.23l-.13,2.23ZM85.74,56.71s.03-.05.03-.05h.24c-.08.02-.17.03-.26.05Z"/>
      <path class="st6" d="M73.23,50.16"/>
      <path class="st5" d="M77.37,11.98c3.18-1.94,7.11-5.56,9.83-5.07,3.12.56,5.21,2.53,5.21,2.53v-2.53c1.39,1.95,3.11,4.14,3.73,5.67.33.82.89,2.54,1.23,3.76.56,2.3.39,2.89.57,4.3l-10.06-9.15.41,2.46-6.56-2.72,1.64,3.34s-4.27-1.96-6.01-2.6Z"/>
      <path class="st5" d="M100.74,63.99c2.99-.86,9.18-2.16,16.55,0,5.49,1.61,10.21,4.39,12.14,7.02-5.28-.68-11.13-1.26-17.23-2.77-3.93-.98-7.98-3.1-11.46-4.25Z"/>
      <path class="st5" d="M82.17,61.19c-2.31-1.03-4.31-1.91-4.31-1.91,0,0,24.71.69,37.92,3.06,9.74,1.75,12.94,4.6,14.7,7.97,1.83,3.51,1.89,6.51,1.32,9.08.04-1.47-.48-4.09-1.78-6.76-.48-.98-1.19-3.04-5.21-5.09-6.66-3.41-13.15-3.94-16.87-4.08-1.62-.06-6.34.36-7.2.55-1.31-.02-2.86,0-4.46.03-4.85.1-9.67-.87-14.11-2.84Z"/>
      <polygon class="st5" points="104.09 18.8 107.77 20.5 106.38 18.74 107.16 18.91 103.53 15.12 105.52 18.63 104.09 18.8"/>
      <path class="st5" d="M124.05,42.54c-1.4.23-2.81.33-4.2.7,1.4.79,1.72.96,2.76,1.47.78.38,2.23-.13,2.48-.96,0,0,0,0,0-.01.21-.67-.35-1.31-1.04-1.19Z"/>
      <path class="st5" d="M77.86,59.28c8.82-1.47,20.94-6.56,29.75-8.03,3.86-4.93,9.45-13.13,16.8-13.73-6.03,2.17-12.62,10.41-16.06,15.61-9.23,1.2-21.27,4.95-30.5,6.15Z"/>
      <path class="st5" d="M63.15,23.13c-5.22-1.84-7.8-1.52-11.96-.35,1.75.48,2.78,1.06,3.71,1.56-3.09.77-5.49,1.18-7.85,2.34,5.58.73,9.73,1.24,16.24,2.03-2.87-.98-4.86-1.74-9.68-2.62,3.23-.5,3.89-.43,7.29-.03-1.47-1.71-4.22-3.01-5.55-3.17,4.06-.44,5.36,0,7.8.26Z"/>
      <path class="st5" d="M58.03,48.4c-3.51.84-4.41,1.26-7.01,3.24,2.64-.97,3.09-1.36,4.82-1.51-2.47,1.73-6.66,4.38-8.62,6.59,3.72-2.39,7.51-4.18,9.55-4.68-.99,1.6-4.11,6.84-4.41,8.42,2.41-4.14,6.56-7.64,9.85-9.17-1.19.25-3.61.83-4.77,1.56.23-.89,1.34-2.1,1.98-2.48-1.22.02-2.09.44-2.83.76.38-1.29.6-1.66,1.45-2.72Z"/>
      <path class="st5" d="M46.13,10.43c-1.91.2-3.21.26-5.99.99-4.39,1.16-6.54,2.05-8.54,3.08,1.29.28,1.64.28,5.45.91,1.43.24,2.65.42,3.61.79,1.44-1.5,4.04-4.27,5.48-5.77Z"/>
      <path class="st5" d="M126.91,45.28c.06-.76,1.06-2.92-.32-5.04-.81-1.24-2.41-2.11-3.04-2.51.38-.16.44-.19.82-.35.4.22,2.56.85,3.29,2.99.78,2.26-.57,4.52-.75,4.9Z"/>
      <path class="st5" d="M51.32,84.7c-.14-1.39-.03-7.68.71-10.44.82-3.08,3.02-4.6,5.47-5.25-1.12,1.09-2.54,2.39-3.2,4.64-.44,1.51-.61,2.19-.62,3.21.35-1.29.53-1.81,1.28-2.67.93-1.07,1.99-1.57,2.84-1.79-1.79,1.99-2.25,2.9-2.39,4.8-.19,2.69,1.05,8.2,2.48,9.57-1.18,0-5.38-2.07-6.56-2.07Z"/>
      <polygon class="st5" points="51.94 74.62 58.97 89 47.66 95.63 51.94 74.62"/>
      <path class="st0" d="M85.74,56.71c.09-.02.18-.03.26-.05h-.24s-.01.02-.03.05Z"/>
      <polygon class="st0" points="80.99 19.03 67.55 15.54 72.69 19.9 80.99 19.03"/>
      <path class="st5" d="M58.72,73.97c-.49.27-1.64,1.55-2.17,2.37-1.44,2.23-2.51,6.81-2.39,7.08.67.15,3.7,4.51,4.37,4.66-1.07-2.63-2.31-4.29-1.93-8.3.3-3.18,1.85-5.48,2.13-5.82Z"/>
      <path class="st5" d="M64.36,64.17c.2-1.6,1.46-4.87,1.46-4.87l-3.64,3.54s2.09-4.26,5.07-5.94c2.77-1.55,5.33-1.66,5.33-1.66h0s-1.64.65-4.5,3.29c-2.7,2.49-3.73,5.64-3.73,5.64Z"/>
      <path class="st5" d="M118.77,34.56c-.85-2.62-1.27-3.46-2.14-5.74,1.41,2.11,4.26,7.07,5.49,9.14-2.78,1.17-8.97,6.08-11.16,8.98.92-1.29,1.83-2.17,2.54-4.42.57-1.81-.45-4.16-1.37-5.84-.57-1.05-.93-1.86-3.16-4.11,1.53,1.03,3.98,2.87,5.8,5.76-.74-2.72-2.34-5.64-4.07-7.59,2.45,2.11,3.64,3.11,6.45,6.79-.53-1.93-4.64-8.2-7.22-10.87,2.58,1.62,3.52,2.71,4.97,4.11.35.34.69.69,1.01,1.05,1.12,1.25,1.89,1.96,2.85,2.75Z"/>
      <g>
        <path class="st5" d="M100.15,39.31c1.26,1.5,1.87,3.04,2.19,4.04-.8-.34-2.03-.74-3.53-.71-2.04.04-3.05.85-6.04,1.99-2.63,1-3.95,1.49-5.35,1.53-3.11.08-5.49-1.89-7.13-3.25-4.87-4.03-7.52-12.08-8.18-14.86,2.23,2.03,5.79,4.78,9.11,5.66,2.85.76,5.43,1.11,7.59,1.28-.48-.38-1.12-.97-1.7-1.82-.45-.65-.73-1.28-.92-1.77.68.55,1.75,1.34,3.17,2.09,2.24,1.19,2.96,1.02,5.29,2.06,1.61.73,3.75,1.69,5.5,3.76ZM95.03,40.65c-.33-.43-.96-1.15-1.98-1.7-.91-.49-1.75-.65-2.27-.72.04.21.29,1.7-.76,2.96-.9,1.07-2.13,1.23-2.52,1.26-.03,0-.05,0-.07,0-1.78.08-3.44-1.19-3.84-2.66-.1-.34-.11-.65-.1-.88.78.39,1.64.14,1.97-.43.27-.46.27-.9-.03-1.28-.47-.58-1.49-.7-1.8-.73-1.36-.12-2.97-.29-6.25-1.58,1.82,3.96,4.1,6.24,5.52,7.43,1.64,1.38,2.85,1.44,3.47,1.53.44.07.83.09,1.23.06,1.1-.09,2.22-.57,4.18-1.51,1.42-.68,2.53-1.33,3.25-1.76Z"/>
        <path class="st2" d="M93.05,38.95c1.02.55,1.65,1.27,1.98,1.7-.72.43-1.83,1.07-3.25,1.76-1.96.94-3.08,1.42-4.18,1.51l-.11-1.47c.39-.03,1.62-.18,2.52-1.26,1.05-1.26.8-2.75.76-2.96.53.06,1.36.22,2.27.72Z"/>
        <path class="st2" d="M87.49,42.45l.11,1.47c-.4.03-.79.01-1.23-.06-.62-.1-1.83-.15-3.47-1.53-1.42-1.19-3.7-3.47-5.52-7.43,3.28,1.29,4.89,1.46,6.25,1.58.31.03,1.33.16,1.8.73.31.37.3.82.03,1.28-.33.57-1.19.81-1.97.43-.01.23,0,.54.1.88.4,1.48,2.06,2.75,3.84,2.66.02,0,.04,0,.07,0Z"/>
      </g>
      <path class="st5" d="M75.29,36.36c1.12,2.84,1.73,4.32,2.71,5.8,1.29,1.96,2.75,3.46,4.51,4.36,1.35.69,3.51,1.9,7.28.82,2.7-.77,5.79-2.14,6.58-2.87-.3.9-1.34,1.81-3.31,2.91-4.71,2.61-8.77,2.04-11.56.83-5.15-2.25-8.79-13.37-8.79-13.37"/>
      <path class="st5" d="M61.74,32.29c4.2,1.36,10.8,3.76,15,5.12-.54-1.18-1.12-3.09-1.67-4.28-3.65-.17-9.68-.67-13.33-.84Z"/>
      <path class="st5" d="M73.3,34.9c-.96,2.55,1.37,7.92,3.44,12.03-5.08-4.38-7.59-10.32-8.33-12.74,1.4-.21,3.49.93,4.89.71Z"/>
      <path class="st1" d="M101.26,133.29c-6.45-9.42-10.28-14.69-12.69-24.8-1.35-5.69-2.31-10.88-1.8-20.41-3.75,8.51-6.84,14.92-10.59,23.44,2.08,6.6,5.38,8.91,9.55,12.62,4.85,4.31,9.56,6.53,15.53,9.16Z"/>
      <path class="st5" d="M96.79,63.48c-.98.17-2.63.79-4,1.9-1.9,1.53-2.95,2.88-3.6,3.74,1.07-.56,3.06-.34,4.13-.9-.37.41-.97,1.05-1.73,1.8-1.32,1.3-3.02,3.97-3.01,4.56,0,.24,2.41-1.01,2.41-1.01,0,0,6.06-1.64,9.18-2.61,4.54-1.41,8.87-2.53,12.94-3.42-.07-.05-.25-.15-.53-.28-.54-.25-.96-.4-1.1-.44-1.98-.64-3.8-2.04-5.77-2.52-3.15-.76-6.64-1.05-8.9-.82Z"/>
      <path class="st5" d="M89.75,72.28c-.71.98-2.9,3.97-3.62,5.34-.76,1.43-1.31,2.77-1.73,3.95-.12-.79-.14-2.15-.12-4.63.02-2.55.6-4.7.95-6.56-.98.86-3.13,3.35-5.92,7.57-2.16,3.26-1.1,5.18.08,7.57-8.17,1.74-8.36-9.81-8.36-9.81,0,0-2.62,9.4-4.28,14.36,3.09-.77,7.5-.69,10.58-1.46,4.48-.95,9.44-.53,9.44-.53,0,0-.4-1.97,0-3.95,0,0,.33-1.57.45-2.09.3-1.3-.27-1.63,0-2.98.14-.72,1.17-1.7,1.35-2.41.68-2.65,2.41-3.07,2.41-3.07,0,0-.72-.73-1.23-1.3Z"/>
      <path class="st5" d="M92.79,72.55l-6.02,15.53-20.72,2.42c4.24-2.88,12.08-2.78,16.32-5.66,4.07-2.76,5.33-12.77,10.41-12.3Z"/>
      <polygon class="st5" points="57.27 130.09 63.3 103.17 47.66 95.63 57.27 130.09"/>
      <path class="st1" d="M63.26,102.8c1.47,7.28,2.14,9.85,4.34,15.11,3.16,7.56,5.62,11.24,10.02,16.61-.68-5.87-.87-6.94-.77-10.08.21-6.22.58-5.72,1.33-10.52.13-.82,8.01-24.4,8.59-25.84-6.36,4.09-17.53,10.66-23.52,14.72Z"/>
      <polygon class="st5" points="63.3 103.17 66.75 90.08 86.77 88.08 63.3 103.17"/>
      <path class="st2" d="M114.58,58.79c-8.32-1.66-16.88-.59-24.56.19-.54.05,17.36.8,23.08,1.5,4.77.58,13.74,2.96,16.5,6.84-1.49-3.07-7.34-7-15.01-8.53Z"/>
      <path class="st2" d="M124.85,41.63c-.3-.38-.78-.83-1.47-1-1.97-.49-3.96,1.65-4.27,2,.92-.48,2.18-.98,3.61-1.11.83-.08,1.55,0,2.14.11Z"/>
      <path class="st2" d="M69.34,7.31c-3.97-.23-10.15.08-10.15.08,0,0,2.97.49,6.43.84-1.24.16-2.44.39-3.9.64-3.37.56-8.49,2.06-8.49,2.06,0,0,4.59-.22,8.58-.91.67-.12,1.38-.25,2.11-.4,3.5-.7,7.07-1.01,10.64-.95,2.34.04,4.52.06,5.86.11-4.76-1.28-7.14-1.25-11.07-1.48Z"/>
      <path class="st2" d="M138.94,51.92c-.07-.91-.05-1.08-.21-1.79-.17-.76-.18-1.01-.6-1.94-.73-1.61-1.28-2.41-2.32-3.37-.89-.81-2.27-1.66-3.86-2.39-.37-.17-2.79-1.05-2.79-1.05,0,0,2.38,1.09,2.9,1.44.44.29,1.13.7,1.5,1.01.57.48,1.04.83,1.86,1.63,1.27,1.24,1.67,1.94,2.57,3.66.22.41.32.59.5,1.23.21.76.28,1.35.36,1.85l.11,1.47v-1.35c0-.13-.01-.27-.02-.4Z"/>
      <path class="st2" d="M56.35,59.08c-2.71,3.7-2.88,7.64-2.87,9.07.51-2.01,1.45-4.78,3.25-7.73,1.47-2.41,3.08-4.22,4.39-5.5-1.21.66-3.13,1.92-4.77,4.16Z"/>
      <path class="st2" d="M116.56,27.16c.98,1.03,2.35,2.7,3.55,3.81-.36-.73-.69-1.34-1.05-1.94.04.05.08.1.11.15.87,1.19,2.12,3.38,2.83,5.01-.42-1.5-.69-2.8-1.37-4.48-2.64-3.31-6.73-7.28-9.01-9.73.78,1.18,1.96,2.59,3.2,4.03-1.04-.91-2-1.54-3.13-2.37,1.78,2.67,2.51,2.92,4.87,5.52Z"/>
      <path class="st2" d="M102.34,43.36c.85.12,1.58-.01,1.58-.01,1.02-.22,1.68-.81,2.08-1.18.11-.1.22-.21.32-.32,1.06-1.14,1.54-2.69,1.5-4.25-.04-1.23-.28-2.76-1.1-4.04-.12-.18-.3-.46-.6-.78-.52-.54-1.44-1.18-3.57-1.81-1.44-.42-2.52-.7-5.08-.89,3.61,1.28,3.97,1.46,5.66,2.39,1.35.74,1.75,1.11,2.28,1.68.73.81.65,2.12.57,2.81-.45-1.04-.79-1.51-1.8-2.11-.74-.44-1.39-.46-2.59,0,1.28.48,2.36,1.12,3,2.06.36.53.52,1.82-.05,2.27-.78.61-2.41-1.2-3.06-1.77-1.65-1.5-2.97-2.97-4.18-4.26-.87-.93-1.86-1.75-2.95-2.4-.91-.54-1.87-.99-3.22-1.5,1.73,1.69,2.36,2.3,3.64,3.85-4.39-2.77-10.14-6.24-17-10.07,3.73,3.58,4.83,4.48,8.77,8.64,1.75,1.62,5.49,3.36,9.11,4.78,2.68,1.94,5.27,6.7,6.7,6.9Z"/>
      <polygon class="st4" points="63.3 103.17 68.91 83.17 47.66 95.63 63.3 103.17"/>
      <polygon class="st3" points="0 62.62 16.7 53.8 18.7 40.18 0 62.62"/>
      <polygon class="st7" points="1.9 78.96 15.2 72.54 16.7 53.8 1.9 78.96"/>
      <polygon class="st3" points="8.5 99.66 21.31 86.78 15.2 72.54 8.5 99.66"/>
      <polygon class="st3" points="16.7 53.8 21.31 86.78 29.11 69.24 16.7 53.8"/>
      <polygon class="st7" points="19.01 110.72 29.11 100.61 21.31 86.78 19.01 110.72"/>
      <polygon class="st7" points="38.01 106.52 47.41 95.8 29.11 69.24 38.01 106.52"/>
      <polygon class="st3" points="29.11 100.61 29.11 116.14 38.01 106.52 31.32 78.48 29.11 100.61"/>
      <polygon class="st3" points="41.54 123.95 47.41 95.8 38.01 106.52 41.54 123.95"/>
      <polygon class="st3" points="4.49 43.73 18.7 40.18 25.6 28.5 4.49 43.73"/>
      <polygon class="st7" points="34.65 28.71 18.7 40.18 28.52 51.65 34.65 28.71"/>
      <polygon class="st3" points="43.77 59.06 52.42 46.98 28.52 51.65 43.77 59.06"/>
      <polygon class="st7" points="52.42 46.98 41.13 37.7 32.5 47.01 52.42 46.98"/>
      <polygon class="st3" points="32.5 47.01 41.13 37.7 34.05 35.44 32.5 47.01"/>
      <polygon class="st7" points="29.11 69.24 43.77 59.06 28.52 51.65 29.11 69.24"/>
      <path class="st3" d="M51.94,74.62c.01-.14-1.11-3.6-1.02-8.84.06-3.71,2.39-7.12,2.39-7.18-3.18.16-6.36.31-9.54.47l8.17,15.56Z"/>
      <path class="st2" d="M36.27,18.85c-7.21,2.08-12.84,6.17-14.84,7.71,3.2-1.8,7.78-4.11,13.25-6.02,4.48-1.56,8.22-2.39,11.01-2.84-1.83-.13-5.05-.11-9.42,1.16Z"/>
    </g>
    <path class="st5" d="M86.2,88.57c-3.06,2.59-3.14,3.7-4.19,6.29-1.62,4.02-1.23,7.84-1.23,7.84,0,0-1.89-2.48-1.9-5.46,0-1.32.28-2.41.55-3.17-1.05,1.29-2.38,3.3-3.19,6-.32,1.08-.51,2.08-.61,2.97-.46-1-1.22-3.01-1.1-5.63.15-3.06,1.43-5.24,2.05-6.16,2.27.18,7.34-2.84,9.61-2.67Z"/>
    <path class="st7" d="M85.09,102.15c-.05,2.64.12,7.52,1.97,12.96,2.36,6.96,6.11,10.83,7.79,12.37-1.9-3.13-4.12-7.32-6.1-12.61-1.78-4.74-2.91-9.12-3.65-12.73Z"/>
    <path class="st5" d="M66.56,108.86c1.17,7.93,6.59,14.56,8.85,19.15-.28-1.41-.02-8.21.58-11.19.39-1.93.8-4.87,1.34-5.9.4,1.04,1.15,2.87,3.07,5.9,1.05,1.65,2.58,2.75,3.46,3.11-1.96-2.01-2.09-2.78-3.72-5.5-.83-1.37-1.87-3.35-2.82-6.44-1.14,2.09-1.38,2.93-1.9,5.37-1.18,5.56-1.17,7.31-1.3,10.04-2.35-3.9-5.76-10.37-7.57-14.54Z"/>
  </g>
</svg>