<?xml version="1.0" encoding="UTF-8"?>
<svg id="Layer_1" data-name="Layer 1" xmlns="http://www.w3.org/2000/svg" xmlns:xlink="http://www.w3.org/1999/xlink" viewBox="0 0 200 200">
  <defs>
    <style>
      .cls-1 {
        fill: url(#linear-gradient);
      }

      .cls-2 {
        fill: #fff;
      }

      .cls-3 {
        fill: none;
        stroke: #fff;
        stroke-miterlimit: 10;
        stroke-width: 1.77px;
      }

      .cls-4 {
        opacity: .42;
      }
    </style>
    <linearGradient id="linear-gradient" x1="34.75" y1="164.43" x2="165.25" y2="33.94" gradientUnits="userSpaceOnUse">
      <stop offset="0" stop-color="#000"/>
      <stop offset="0" stop-color="#08090e"/>
      <stop offset="0" stop-color="#323d5b"/>
      <stop offset="0" stop-color="#43527a"/>
      <stop offset=".23" stop-color="#455178"/>
      <stop offset=".39" stop-color="#4f5172"/>
      <stop offset=".54" stop-color="#5f5169"/>
      <stop offset=".67" stop-color="#75515c"/>
      <stop offset=".8" stop-color="#92514c"/>
      <stop offset=".92" stop-color="#b55137"/>
      <stop offset="1" stop-color="#d35127"/>
    </linearGradient>
  </defs>
  <path class="cls-1" d="M147.76,181.91H52.24L4.47,99.19,52.24,16.46h95.53l47.76,82.73-47.76,82.73Z"/>
  <g class="cls-4">
    <path class="cls-3" d="M147.76,181.91H52.24L4.47,99.19,52.24,16.46h95.53l47.76,82.73-47.76,82.73Z"/>
  </g>
  <g>
    <path class="cls-2" d="M88.66,112.12h-23.88l-3.95,11.42h-12.63l21.56-60.05h14l21.56,60.05h-12.72l-3.96-11.42h0ZM85.4,102.5l-8.68-25.08-8.68,25.08h17.35Z"/>
    <path class="cls-2" d="M113.31,86.82c2.01-3.7,4.78-6.56,8.33-8.59,3.55-2.03,7.62-3.05,12.2-3.05,5.9,0,10.79,1.48,14.65,4.43,3.86,2.95,6.46,7.09,7.78,12.42h-12.97c-.69-2.06-1.85-3.68-3.48-4.86-1.63-1.18-3.65-1.76-6.06-1.76-3.44,0-6.16,1.24-8.16,3.74-2.01,2.49-3.01,6.03-3.01,10.61s1,8.03,3.01,10.53c2.01,2.49,4.72,3.74,8.16,3.74,4.86,0,8.05-2.18,9.53-6.53h12.97c-1.32,5.16-3.92,9.25-7.82,12.28s-8.76,4.55-14.61,4.55c-4.59,0-8.65-1.02-12.2-3.05-3.55-2.03-6.33-4.9-8.33-8.59-2.01-3.7-3.01-8.01-3.01-12.93s1-9.24,3.01-12.93h0Z"/>
  </g>
</svg>