<?xml version="1.0" encoding="UTF-8"?>
<svg id="Layer_1" data-name="Layer 1" xmlns="http://www.w3.org/2000/svg" viewBox="0 0 500 140">
  <defs>
    <style>
      .cls-1 {
        fill: none;
      }

      .cls-2 {
        fill: #047198;
      }

      .cls-3 {
        fill: #f26b26;
      }

      .cls-4 {
        fill: #dedddd;
      }

      .cls-5 {
        fill: #047198;
      }

      .cls-6 {
        fill: #c5c5c5;
      }

      .cls-7 {
        fill: #057197;
      }

      .cls-8 {
        fill: #c7c6c6;
      }
    </style>
  </defs>
  <g>
    <g>
      <g>
        <path class="cls-2" d="M150.08,105.39v-62.49c0-14.32,11.61-25.93,25.93-25.93h46.63c1.02,0,1.72,1.02,1.36,1.97l-2.93,7.8c-.71,1.89-2.52,3.14-4.54,3.14h-39.54c-7.83,0-14.19,6.35-14.19,14.19v9.28h42.03c1.02,0,1.72,1.02,1.36,1.97l-2.93,7.8c-.71,1.89-2.52,3.14-4.54,3.14h-35.92v40.3h-11.55c-.65,0-1.19-.53-1.19-1.19h0l.02.02Z"/>
        <path class="cls-2" d="M329.23,33.46h5.43c1.02,0,1.72,1.03,1.35,1.98l-2.89,7.49c-.68,1.78-2.35,3.01-4.26,3.1-16.2.76-23.49,13.81-23.49,23.73v35.41c0,.65-.53,1.19-1.19,1.19h-11.58c-.65,0-1.19-.53-1.19-1.19v-35.08c0-21.33,15.39-36.64,37.8-36.64h.02Z"/>
        <path class="cls-2" d="M335.3,96.5l41.25-50.49h-38.18c-1.02,0-1.72-1.03-1.35-1.98l3.73-9.64c.22-.56.75-.93,1.35-.93h51.69c.65,0,1.19.53,1.19,1.19v8.67l-41.25,50.49h39.12c1.02,0,1.72,1.03,1.35,1.98l-2.89,7.47c-.72,1.87-2.52,3.11-4.52,3.11h-50.31c-.65,0-1.19-.53-1.19-1.19v-8.67h0Z"/>
        <path class="cls-2" d="M470.19,70.99v34.25c0,.65-.53,1.19-1.19,1.19h-4.75c-1.77,0-3.39-.96-4.24-2.51l-3.47-6.28c-4.46,6.56-16.89,10.89-25.41,10.89-21.52,0-37.7-16.79-37.7-37.53s16.18-37.53,37.7-37.53,39.06,16.79,39.06,37.53h0ZM456.56,70.99c0-14.06-11.35-25.41-25.41-25.41s-25.41,11.35-25.41,25.41,11.35,25.41,25.41,25.41,25.41-11.35,25.41-25.41Z"/>
        <path class="cls-2" d="M249.45,108.67c-21.65,0-37.13-16.79-37.13-37.53s15.49-37.53,37.13-37.53,37.13,16.79,37.13,37.53-15.48,37.53-37.13,37.53h0ZM274.91,71.14c0-14.06-11.35-25.41-25.41-25.41s-25.41,11.35-25.41,25.41,11.35,25.41,25.41,25.41,25.41-11.35,25.41-25.41Z"/>
      </g>
      <g>
        <path class="cls-2" d="M483.33,33.46h-12.89c-.16,0-.25.08-.25.25v2.42c0,.16.08.25.25.25h4.78l.02,6.56c0,.07.02.12.07.17.05.05.11.07.17.07h2.82c.16,0,.25-.08.25-.25v-6.56h4.78c.16,0,.25-.08.25-.25v-2.42c0-.16-.08-.25-.25-.25h0Z"/>
        <path class="cls-2" d="M499.75,33.46h-3.13s-.09.02-.12.05l-4.37,3.93-4.37-3.93s-.07-.05-.12-.05h-3.13c-.16,0-.25.08-.25.25v9.22c0,.16.08.25.25.25h2.82c.16,0,.25-.08.25-.25v-5.66l-.02-.32,3.76,3.67s.07.05.12.05h1.4s.09-.02.12-.05l3.79-3.69-.05.34v5.66c0,.16.08.25.25.25h2.82c.16,0,.25-.08.25-.25v-9.22c0-.16-.08-.25-.25-.25h-.02Z"/>
      </g>
    </g>
    <g>
      <path class="cls-3" d="M151.02,130.59c-.26,0-.42-.13-.47-.39l-1.91-9.25c-.06-.29.09-.47.39-.47h1.65c.24,0,.4.13.46.39l1.43,7.12,4.41-7.22c.1-.19.27-.29.52-.29h1.96c.34,0,.47.23.29.52l-5.87,9.31c-.13.19-.3.29-.52.29h-2.34Z"/>
      <path class="cls-3" d="M160.74,130.59c-.3,0-.44-.19-.39-.47l1.96-9.25c.06-.26.21-.39.47-.39h1.66c.3,0,.44.19.39.47l-1.96,9.25c-.06.26-.21.39-.47.39h-1.66Z"/>
      <path class="cls-3" d="M169.45,130.59c-2.18,0-3.27-1.07-3.02-3.01.04-.27.2-.4.47-.4h1.7c.24,0,.39.14.4.44.03.36.26.53.67.53h2.88c.64,0,.95-.19,1.06-.69.1-.52-.07-.7-.66-.75l-2.91-.23c-2.21-.17-3.11-1.19-2.72-3.05.44-2.05,1.43-2.97,3.77-2.97h2.69c2.18,0,3.28,1.1,3.04,3.01-.04.27-.2.4-.47.4h-1.7c-.24,0-.39-.14-.4-.44-.03-.36-.26-.53-.69-.53h-2.66c-.64,0-.93.17-1.05.69-.11.5.07.69.66.73l2.91.2c2.16.16,3.11,1.16,2.71,3.04-.21,1.03-.62,1.79-1.19,2.29-.56.49-1.42.73-2.58.73h-2.91,0Z"/>
      <path class="cls-3" d="M178.65,130.59c-.3,0-.44-.19-.39-.47l1.96-9.25c.06-.26.21-.39.47-.39h1.66c.3,0,.44.19.39.47l-1.96,9.25c-.06.26-.21.39-.47.39h-1.66Z"/>
      <path class="cls-3" d="M187.72,130.59c-1.13,0-1.95-.32-2.48-.96s-.67-1.48-.46-2.52l.66-3.14c.5-2.33,1.79-3.5,3.85-3.5h3.77c1.13,0,1.96.33,2.49.97s.67,1.48.44,2.52l-.66,3.14c-.49,2.32-1.78,3.48-3.85,3.48h-3.77,0ZM191.71,128.15c.63,0,.9-.26,1.06-.96l.7-3.31c.16-.75,0-.97-.64-.97h-3.77c-.64,0-.89.23-1.05.97l-.7,3.31c-.16.73,0,.96.63.96h3.77Z"/>
      <path class="cls-3" d="M197.84,130.59c-.3,0-.44-.19-.39-.47l1.96-9.25c.06-.26.21-.39.47-.39h1.7c.21,0,.39.1.5.3l3.28,6.16,1.3-6.07c.06-.26.21-.39.47-.39h1.68c.3,0,.44.19.39.47l-1.96,9.25c-.06.26-.21.39-.47.39h-1.68c-.21,0-.39-.1-.5-.3l-3.32-6.27-1.29,6.19c-.06.26-.21.39-.47.39h-1.68,0Z"/>
      <path class="cls-3" d="M210.94,130.59c-.32,0-.44-.16-.39-.47l.37-1.75c.06-.24.21-.37.47-.37h1.66c.32,0,.44.16.39.47l-.37,1.75c-.06.24-.21.37-.47.37h-1.66Z"/>
      <path class="cls-3" d="M221.68,130.59c-.3,0-.44-.19-.39-.47l1.96-9.25c.06-.26.21-.39.47-.39h4.97c2.81,0,3.94,1.32,3.42,3.8l-.09.42c-.27,1.29-.75,2.23-1.42,2.84-.66.6-1.68.9-3.04.9h-3.38l-.37,1.78c-.06.26-.21.39-.47.39h-1.68l.02-.02ZM224.72,126.02h2.87c1.15,0,1.68-.23,1.91-1.36l.09-.37c.24-1.13-.17-1.38-1.33-1.38h-2.86l-.66,3.11h-.02Z"/>
      <path class="cls-3" d="M241.08,120.47c2.87,0,4.1,1.33,3.58,3.8l-.06.27c-.4,1.88-1.15,3.05-2.59,3.52l.97,2.02c.13.3,0,.5-.32.5h-1.85c-.24,0-.4-.11-.49-.33l-.8-1.98h-2.91l-.4,1.92c-.06.26-.21.39-.47.39h-1.68c-.3,0-.44-.19-.39-.47l1.96-9.25c.06-.26.21-.39.47-.39h4.98ZM242.09,124.29c.29-1.13-.2-1.38-1.46-1.38h-2.86l-.63,2.97h2.87c.6,0,1.06-.09,1.36-.26.3-.17.53-.54.67-1.1l.06-.23h0Z"/>
      <path class="cls-3" d="M246.6,130.59c-.3,0-.44-.19-.39-.47l1.96-9.25c.06-.26.21-.39.47-.39h7.68c.3,0,.44.19.39.47l-.33,1.58c-.06.26-.21.39-.47.39h-5.63l-.32,1.49h3.34c.3,0,.44.19.39.47l-.29,1.35c-.06.26-.21.39-.47.39h-3.44l-.33,1.55h5.53c.3,0,.44.19.39.47l-.33,1.58c-.06.26-.21.39-.47.39h-7.68v-.02Z"/>
      <path class="cls-3" d="M261.17,130.59c-1.13,0-1.95-.32-2.48-.96s-.67-1.48-.46-2.52l.66-3.14c.5-2.33,1.79-3.5,3.85-3.5h3.19c1.13,0,1.96.33,2.49.97s.67,1.48.44,2.52h0c-.04.27-.2.4-.47.4h-1.66c-.32,0-.46-.09-.43-.24l.04-.24c.17-.82-.03-.97-.64-.97h-3.19c-.62,0-.87.16-1.05.97l-.7,3.31c-.17.79.06.96.63.96h3.19c.57,0,.89-.17,1.06-.96l.06-.26c.06-.26.21-.39.46-.39h1.69c.3,0,.44.09.42.27l-.06.29c-.46,2.22-1.55,3.48-3.71,3.48h-3.34,0Z"/>
      <path class="cls-3" d="M270.58,130.59c-.3,0-.44-.19-.39-.47l1.96-9.25c.06-.26.21-.39.47-.39h1.66c.3,0,.44.19.39.47l-1.96,9.25c-.06.26-.21.39-.47.39h-1.66Z"/>
      <path class="cls-3" d="M279.29,130.59c-2.18,0-3.27-1.07-3.02-3.01.04-.27.2-.4.47-.4h1.7c.24,0,.39.14.4.44.03.36.26.53.67.53h2.88c.64,0,.95-.19,1.06-.69.1-.52-.07-.7-.66-.75l-2.91-.23c-2.21-.17-3.11-1.19-2.72-3.05.44-2.05,1.43-2.97,3.77-2.97h2.69c2.18,0,3.28,1.1,3.04,3.01-.04.27-.2.4-.47.4h-1.7c-.24,0-.39-.14-.4-.44-.03-.36-.26-.53-.69-.53h-2.66c-.64,0-.93.17-1.05.69-.11.5.07.69.66.73l2.91.2c2.16.16,3.11,1.16,2.71,3.04-.21,1.03-.62,1.79-1.19,2.29-.56.49-1.42.73-2.58.73h-2.91Z"/>
      <path class="cls-3" d="M288.49,130.59c-.3,0-.44-.19-.39-.47l1.96-9.25c.06-.26.21-.39.47-.39h1.66c.3,0,.44.19.39.47l-1.96,9.25c-.06.26-.21.39-.47.39h-1.66Z"/>
      <path class="cls-3" d="M297.56,130.59c-1.13,0-1.95-.32-2.48-.96s-.67-1.48-.46-2.52l.66-3.14c.5-2.33,1.79-3.5,3.85-3.5h3.77c1.13,0,1.96.33,2.49.97s.67,1.48.44,2.52l-.66,3.14c-.49,2.32-1.78,3.48-3.85,3.48h-3.77.01ZM301.55,128.15c.63,0,.9-.26,1.06-.96l.7-3.31c.16-.75,0-.97-.64-.97h-3.77c-.64,0-.89.23-1.05.97l-.7,3.31c-.16.73,0,.96.63.96h3.77Z"/>
      <path class="cls-3" d="M307.68,130.59c-.3,0-.44-.19-.39-.47l1.96-9.25c.06-.26.21-.39.47-.39h1.7c.21,0,.39.1.5.3l3.28,6.16,1.3-6.07c.06-.26.21-.39.47-.39h1.68c.3,0,.44.19.39.47l-1.96,9.25c-.06.26-.21.39-.47.39h-1.68c-.21,0-.39-.1-.5-.3l-3.32-6.27-1.29,6.19c-.06.26-.21.39-.47.39h-1.68.01Z"/>
      <path class="cls-3" d="M320.78,130.59c-.32,0-.44-.16-.39-.47l.37-1.75c.06-.24.21-.37.47-.37h1.66c.32,0,.44.16.39.47l-.37,1.75c-.06.24-.21.37-.47.37h-1.66Z"/>
      <path class="cls-3" d="M331.52,130.59c-.3,0-.44-.19-.39-.47l1.96-9.25c.06-.26.21-.39.47-.39h4.97c2.81,0,3.94,1.32,3.42,3.8l-.09.42c-.27,1.29-.75,2.23-1.42,2.84-.66.6-1.68.9-3.04.9h-3.38l-.37,1.78c-.06.26-.21.39-.47.39h-1.68l.02-.02ZM334.56,126.02h2.87c1.15,0,1.68-.23,1.91-1.36l.09-.37c.24-1.13-.17-1.38-1.33-1.38h-2.86l-.66,3.11h-.02Z"/>
      <path class="cls-3" d="M343.91,130.59c-.3,0-.44-.19-.39-.47l1.96-9.25c.06-.26.21-.39.47-.39h7.68c.3,0,.44.19.39.47l-.33,1.58c-.06.26-.21.39-.47.39h-5.63l-.32,1.49h3.34c.3,0,.44.19.39.47l-.29,1.35c-.06.26-.21.39-.47.39h-3.44l-.33,1.55h5.53c.3,0,.44.19.39.47l-.33,1.58c-.06.26-.21.39-.47.39h-7.68v-.02Z"/>
      <path class="cls-3" d="M362.33,120.47c2.87,0,4.1,1.33,3.58,3.8l-.06.27c-.4,1.88-1.15,3.05-2.59,3.52l.97,2.02c.13.3.01.5-.32.5h-1.85c-.24,0-.4-.11-.49-.33l-.8-1.98h-2.91l-.4,1.92c-.06.26-.21.39-.47.39h-1.68c-.3,0-.44-.19-.39-.47l1.96-9.25c.06-.26.21-.39.47-.39h4.98ZM363.35,124.29c.29-1.13-.2-1.38-1.46-1.38h-2.86l-.63,2.97h2.87c.6,0,1.06-.09,1.36-.26.3-.17.53-.54.67-1.1l.06-.23h-.01Z"/>
      <path class="cls-3" d="M367.86,130.59c-.3,0-.44-.19-.39-.47l1.96-9.25c.06-.26.21-.39.47-.39h7.45c.3,0,.44.19.39.47l-.33,1.58c-.06.26-.21.39-.47.39h-5.4l-.32,1.49h3.17c.3,0,.44.19.39.47l-.29,1.35c-.06.26-.21.39-.47.39h-3.27l-.76,3.6c-.06.26-.21.39-.47.39h-1.66v-.02Z"/>
      <path class="cls-3" d="M381.82,130.59c-1.13,0-1.95-.32-2.48-.96s-.67-1.48-.46-2.52l.66-3.14c.5-2.33,1.79-3.5,3.85-3.5h3.77c1.13,0,1.96.33,2.49.97s.67,1.48.44,2.52l-.66,3.14c-.49,2.32-1.78,3.48-3.85,3.48h-3.77.01ZM385.81,128.15c.63,0,.9-.26,1.06-.96l.7-3.31c.16-.75,0-.97-.64-.97h-3.77c-.64,0-.89.23-1.05.97l-.7,3.31c-.16.73,0,.96.63.96h3.77Z"/>
      <path class="cls-3" d="M398.95,120.47c2.87,0,4.1,1.33,3.58,3.8l-.06.27c-.4,1.88-1.15,3.05-2.59,3.52l.97,2.02c.13.3.01.5-.32.5h-1.85c-.24,0-.4-.11-.49-.33l-.8-1.98h-2.91l-.4,1.92c-.06.26-.21.39-.47.39h-1.68c-.3,0-.44-.19-.39-.47l1.96-9.25c.06-.26.21-.39.47-.39h4.98ZM399.96,124.29c.29-1.13-.2-1.38-1.46-1.38h-2.86l-.63,2.97h2.87c.6,0,1.06-.09,1.36-.26.3-.17.53-.54.67-1.1l.06-.23h-.01Z"/>
      <path class="cls-3" d="M404.48,130.59c-.3,0-.44-.19-.39-.47l1.96-9.25c.06-.26.21-.39.47-.39h1.82c.24,0,.42.11.49.34l2.01,5.21,4.04-5.3c.13-.17.3-.26.53-.26h2.26c.3,0,.44.19.39.47l-1.96,9.25c-.06.26-.21.39-.47.39h-1.66c-.3,0-.44-.19-.39-.47l1.19-5.57-3.38,4.18c-.13.17-.32.26-.53.26h-1c-.24,0-.42-.11-.49-.34l-1.56-4.05-1.19,5.62c-.06.26-.21.39-.47.39h-1.67Z"/>
      <path class="cls-3" d="M427.93,130.59c-.24,0-.4-.13-.46-.39l-.24-1.19h-4.93l-.82,1.29c-.1.19-.27.29-.52.29h-1.99c-.34,0-.47-.23-.29-.52l6.22-9.33c.13-.19.3-.27.52-.27h2.03c.26,0,.42.13.47.37l2.25,9.27c.07.29-.07.47-.37.47h-1.88,0ZM423.6,126.95h3.21l-.77-3.87-2.44,3.87Z"/>
      <path class="cls-3" d="M433.07,130.59c-.3,0-.44-.19-.39-.47l1.96-9.25c.06-.26.21-.39.47-.39h1.7c.21,0,.39.1.5.3l3.28,6.16,1.3-6.07c.06-.26.21-.39.47-.39h1.68c.3,0,.44.19.39.47l-1.96,9.25c-.06.26-.21.39-.47.39h-1.68c-.21,0-.39-.1-.5-.3l-3.32-6.27-1.29,6.19c-.06.26-.21.39-.47.39h-1.68.01Z"/>
      <path class="cls-3" d="M449.41,130.59c-1.13,0-1.95-.32-2.48-.96s-.67-1.48-.46-2.52l.66-3.14c.5-2.33,1.79-3.5,3.85-3.5h3.19c1.13,0,1.96.33,2.49.97s.67,1.48.44,2.52h0c-.04.27-.2.4-.47.4h-1.66c-.32,0-.46-.09-.43-.24l.04-.24c.17-.82-.03-.97-.64-.97h-3.19c-.62,0-.87.16-1.05.97l-.7,3.31c-.17.79.06.96.63.96h3.19c.57,0,.89-.17,1.06-.96l.06-.26c.06-.26.21-.39.46-.39h1.69c.3,0,.44.09.42.27l-.06.29c-.46,2.22-1.55,3.48-3.71,3.48h-3.34,0Z"/>
      <path class="cls-3" d="M458.82,130.59c-.3,0-.44-.19-.39-.47l1.96-9.25c.06-.26.21-.39.47-.39h7.68c.3,0,.44.19.39.47l-.33,1.58c-.06.26-.21.39-.47.39h-5.63l-.32,1.49h3.34c.3,0,.44.19.39.47l-.29,1.35c-.06.26-.21.39-.47.39h-3.44l-.33,1.55h5.53c.3,0,.44.19.39.47l-.33,1.58c-.06.26-.21.39-.47.39h-7.68v-.02Z"/>
      <path class="cls-3" d="M470.28,130.59c-.32,0-.44-.16-.39-.47l.37-1.75c.06-.24.21-.37.47-.37h1.66c.32,0,.44.16.39.47l-.37,1.75c-.06.24-.21.37-.47.37h-1.66Z"/>
    </g>
  </g>
  <g>
    <g>
      <path class="cls-7" d="M47.62,8.82c-2.42.75-6.53,1.46-11.98,4.74-4.36,2.62-8.21,5.33-12.4,10.24,8.66-2.27,28.14-7.25,36.66-9.61-3.06-1.57-8.65-3.84-12.28-5.37Z"/>
      <path class="cls-3" d="M45.24,57.94l12.23-8.24s3.12-.22-1.36,5.67c-2.05,2.69-2.62,4.58-3.29,6.36-.78,2.08-1.03,3.53-1.02,5.85s.38,3.45,1.7,6.07c.21.42,7.1,14.52,7.1,14.52-3.04-3.46-4.07-5.87-3.12-10.04,1.02-4.49,3.63-5.63,3.63-5.63,1.2,1.46,2.52,2.68,3.86,4.06,2.79,2.89,3.49,3.62,5.67,5.71,0,0,1.38,6.15,3.21,4.08l-.02.17s1.72.01,3.86-.03c.91.26,1.78.36,2.28-.07,2.66-.11,5.29-.32,5.88-.76,3.04-2.27,5.91-13.1,7.58-13.94l9.35-8.81-12.11-1.58c-.22.2-.44.4-.65.6-2.33-.95-3.21-.52-4.64-1.26-.05-.03-2.76-1.45-4.43-2.3l4.94,1.26s8.59.03,12.3,0c4.2-.04,11.13.45,17.33,1.71,4.94,1,14.73,3.38,17.3,7.93.75,1.32,1.38,4.98,1.4,5.98.1,3.7-.45,6.73-.93,8.72,1.71-1.65,6.22-6.93,8.18-15.48.9-3.9,2.1-7.31,2.12-13.69.01-5.87-1.41-9.53-4.22-12.53-2.45-2.61-8.2-4.8-12.7-6.21-.89-2.56-1.87-5.7-2.66-7.8-.24.52-.57,1.2-.95,1.93l.95-1.93-11.13-12.75-.58,1.88-3.99-2.85-4.61-3.11-9.33-6.21,16.1,18.07h0s-16.1-18.07-16.1-18.07c.06.14,2.81,3.47,4.41,7.58,1.16,2.96,1.13,6.03,1.18,6.27-2.15-2.85-3.57-4.66-5.59-6.6-1.4-1.34-3.35-2.6-4.68-3.25.17,1.04.34,2.08.52,3.12l-6.62-2.75,1.66,3.38s-5.81-2.76-5.81-2.76l9.67-4.99c-10.46-1.15-13.22-1.46-19.85-1.63-1.68-.04-14.58,0-14.58,0l1.43,2.02-12.5,1.93h0s0,0,0,0c.95.28,2.07.59,3.29.92l13,5.69c-8.35-.63-14.15-1.06-24.97,2.62,0,0,0,0,0,0-11.76,4.26-17.02,9.81-24.3,16.72,6.24-2.66,9.07-3.95,15.75-6.26,8.55-3.93,16.02-3.93,16.02-3.93-3.17,1.98-6.38,3.94-6.38,3.94l6.55,9.08s-1.01-10.08,5.98-11.14l-.64,2.18c-.99,3.39-.87,7.04.5,10.3,0,.02.02.04.03.06,1.86,4.4,5.53,7.97,5.53,7.97l-8.74,12.2ZM79.43,10.26c-.06.03-3.58,1.85-3.59,1.85h0l3.59-1.85ZM68.97,13.9h0s-.01,0-.01,0c0,0,.01,0,.02,0ZM74.52,18.37c2.77-.29,5.53-.58,8.3-.87h.02s-8.31.87-8.31.87ZM120.99,34.51s-.02,0-.02,0l.22-.45c-.07.16-.13.31-.2.45ZM110.48,23.34l1.06,1.19c-.47-.51-.84-.92-1.06-1.19ZM113.84,51.18c.04-.75.08-1.5.13-2.25l-.13,2.25ZM87.64,55.57s.03-.05.03-.05h.24c-.08.02-.17.03-.26.05Z"/>
      <path class="cls-7" d="M79.18,10.39c3.21-1.96,7.18-5.61,9.93-5.12,3.15.57,5.27,2.55,5.27,2.55v-2.55c1.4,1.97,3.15,4.19,3.77,5.73.34.83.89,2.56,1.25,3.8.56,2.32.4,2.92.58,4.35l-10.17-9.24.41,2.49-6.62-2.75,1.66,3.38s-4.31-1.98-6.07-2.62Z"/>
      <path class="cls-7" d="M84.03,60.09c-2.34-1.04-4.35-1.93-4.35-1.93,0,0,24.95.7,38.3,3.09,9.84,1.76,13.07,4.65,14.84,8.05,1.85,3.54,1.91,6.58,1.33,9.17.04-1.49-.48-4.13-1.8-6.83-.49-.99-1.2-3.07-5.26-5.14-6.73-3.44-13.29-3.98-17.04-4.12-1.64-.06-5.87,1.7-6.74,1.89-1.32-.02-3.32-.03-4.94,0-4.9.1-9.86-2.18-14.34-4.17Z"/>
      <polygon class="cls-7" points="106.17 17.28 109.88 18.99 108.48 17.22 109.28 17.39 105.6 13.56 107.61 17.11 106.17 17.28"/>
      <path class="cls-7" d="M126.33,41.25c-1.41.23-2.84.34-4.24.7,1.41.8,1.74.97,2.79,1.48.79.39,2.25-.13,2.51-.97,0,0,0,0,0-.01.21-.67-.36-1.32-1.05-1.2Z"/>
      <path class="cls-7" d="M79.68,58.16c8.9-1.49,21.15-6.63,30.05-8.11,3.9-4.98,9.54-13.26,16.97-13.87-6.09,2.19-12.75,10.51-16.22,15.77-9.33,1.21-21.48,5-30.81,6.21Z"/>
      <path class="cls-7" d="M64.82,21.65c-5.27-1.85-7.88-1.54-12.08-.35,1.76.49,2.81,1.07,3.75,1.57-3.12.78-5.55,1.19-7.93,2.36,5.63.73,9.82,1.25,16.41,2.05-2.9-.99-4.9-1.75-9.78-2.65,3.27-.5,3.93-.43,7.37-.03-1.49-1.73-4.26-3.04-5.61-3.2,4.1-.45,5.42,0,7.88.26Z"/>
      <path class="cls-7" d="M59.64,47.17c-3.54.85-4.46,1.28-7.08,3.27,2.67-.98,3.12-1.38,4.87-1.52-2.5,1.75-6.73,4.42-8.71,6.65,3.76-2.42,7.59-4.22,9.64-4.73-1,1.62-4.15,6.9-4.45,8.5,2.44-4.18,6.63-7.71,9.94-9.26-1.2.25-3.64.84-4.82,1.57.23-.9,1.35-2.12,2-2.5-1.23.02-2.11.44-2.86.77.39-1.3.6-1.68,1.46-2.74Z"/>
      <path class="cls-7" d="M47.62,8.82c-1.93.2-3.24.26-6.05,1-4.44,1.17-6.61,2.07-8.63,3.11,1.3.29,1.66.28,5.5.92,1.45.24,2.68.42,3.65.8,1.46-1.52,4.08-4.32,5.53-5.83Z"/>
      <path class="cls-7" d="M129.22,44.02c.06-.77,1.07-2.95-.33-5.09-.82-1.25-2.43-2.13-3.07-2.53.38-.16.44-.19.82-.35.4.22,2.59.86,3.33,3.02.78,2.29-.57,4.57-.75,4.95Z"/>
      <path class="cls-7" d="M52.87,83.84c-.15-1.41-.03-7.75.72-10.55.83-3.11,3.05-4.65,5.52-5.3-1.13,1.1-2.57,2.41-3.24,4.69-.45,1.53-.62,2.22-.62,3.24.35-1.31.53-1.83,1.29-2.7.94-1.08,2.01-1.58,2.86-1.8-1.8,2.01-2.27,2.93-2.41,4.85-.2,2.72,1.06,8.28,2.5,9.67-1.19,0-5.44-2.09-6.63-2.09Z"/>
      <polygon class="cls-7" points="53.5 73.66 60.59 88.18 49.17 94.87 53.5 73.66"/>
      <path class="cls-1" d="M87.64,55.57c.09-.02.18-.03.26-.05h-.24s-.01.02-.03.05Z"/>
      <polygon class="cls-1" points="82.84 17.51 69.26 13.98 74.45 18.38 82.84 17.51"/>
      <path class="cls-7" d="M60.34,73c-.49.27-1.66,1.57-2.19,2.39-1.45,2.25-2.54,6.88-2.42,7.16.67.15,3.74,4.56,4.41,4.71-1.08-2.66-2.33-4.34-1.95-8.38.3-3.22,1.87-5.54,2.15-5.88Z"/>
      <path class="cls-7" d="M66.04,63.1c.21-1.62,1.47-4.92,1.47-4.92l-3.67,3.57s2.11-4.31,5.13-6c2.8-1.57,5.38-1.67,5.38-1.67h0s-1.66.65-4.54,3.32c-2.72,2.52-3.77,5.7-3.77,5.7Z"/>
      <path class="cls-7" d="M121,33.19c-.86-2.65-1.28-3.49-2.16-5.8,1.42,2.13,4.3,7.14,5.55,9.23-2.81,1.19-9.06,6.14-11.27,9.07.93-1.3,1.84-2.19,2.56-4.47.58-1.83-.45-4.2-1.38-5.9-.58-1.06-.94-1.88-3.2-4.15,1.55,1.04,4.02,2.9,5.86,5.82-.74-2.75-2.36-5.7-4.11-7.67,2.48,2.13,3.68,3.14,6.51,6.86-.53-1.95-4.69-8.29-7.29-10.98,2.6,1.64,3.55,2.73,5.02,4.15.35.34.7.7,1.02,1.06,1.13,1.26,1.91,1.98,2.88,2.77Z"/>
      <g>
        <path class="cls-7" d="M102.19,37.99c1.28,1.51,1.89,3.07,2.21,4.09-.81-.34-2.06-.75-3.57-.71-2.05.05-3.07.86-6.1,2.01-2.66,1.01-3.99,1.51-5.4,1.54-3.14.08-5.54-1.9-7.2-3.28-4.92-4.07-7.6-12.2-8.27-15.01,2.25,2.04,5.85,4.83,9.2,5.71,2.88.76,5.49,1.13,7.66,1.29-.49-.38-1.13-.98-1.71-1.84-.45-.66-.74-1.29-.93-1.79.69.56,1.77,1.36,3.2,2.11,2.26,1.2,2.99,1.02,5.34,2.08,1.63.73,3.79,1.7,5.56,3.8ZM97.02,39.35c-.33-.44-.98-1.16-2-1.72-.92-.5-1.77-.67-2.29-.73.04.21.29,1.72-.77,2.99-.9,1.08-2.15,1.24-2.54,1.27-.03,0-.05,0-.07,0-1.8.09-3.48-1.2-3.88-2.69-.1-.34-.11-.65-.1-.89.79.39,1.66.15,1.99-.43.27-.46.28-.9-.03-1.28-.47-.58-1.5-.72-1.82-.75-1.37-.12-3-.29-6.31-1.59,1.84,3.99,4.14,6.3,5.57,7.5,1.66,1.4,2.89,1.45,3.51,1.55.44.07.84.09,1.24.06,1.11-.09,2.24-.59,4.22-1.53,1.44-.68,2.56-1.33,3.28-1.77Z"/>
        <path class="cls-4" d="M95.02,37.63c1.02.56,1.67,1.28,2,1.72-.72.44-1.85,1.08-3.28,1.77-1.98.94-3.11,1.44-4.22,1.53l-.11-1.49c.4-.03,1.64-.19,2.54-1.27,1.06-1.27.81-2.77.77-2.99.53.06,1.37.23,2.29.73Z"/>
        <path class="cls-4" d="M89.41,41.16l.11,1.49c-.4.03-.8.01-1.24-.06-.63-.1-1.85-.16-3.51-1.55-1.42-1.2-3.73-3.5-5.57-7.5,3.31,1.3,4.94,1.47,6.31,1.59.32.03,1.34.16,1.82.75.31.38.31.82.03,1.28-.33.58-1.2.82-1.99.43-.01.24,0,.54.1.89.4,1.49,2.08,2.78,3.88,2.69.02,0,.04,0,.07,0Z"/>
      </g>
      <path class="cls-7" d="M77.08,35.01c1.13,2.87,1.75,4.36,2.74,5.86,1.31,1.98,2.78,3.49,4.55,4.4,1.36.7,3.55,1.92,7.35.83,2.72-.78,5.85-2.17,6.64-2.9-.3.91-1.35,1.83-3.35,2.94-4.75,2.63-8.86,2.06-11.67.84-5.2-2.27-8.88-13.5-8.88-13.5"/>
      <path class="cls-7" d="M63.4,30.9c4.24,1.37,10.91,3.8,15.15,5.17-.55-1.19-1.14-3.12-1.68-4.32-3.69-.18-9.77-.68-13.46-.85Z"/>
      <path class="cls-7" d="M75.07,33.54c-.97,2.57,1.38,7.99,3.48,12.15-5.13-4.43-7.67-10.43-8.41-12.87,1.42-.22,3.52.93,4.94.72Z"/>
      <path class="cls-3" d="M103.31,132.92c-6.51-9.51-10.39-14.83-12.81-25.05-1.37-5.75-2.33-10.99-1.82-20.62-3.79,8.6-6.91,15.07-10.7,23.67,2.1,6.67,5.43,9,9.65,12.75,4.9,4.35,9.65,6.6,15.68,9.25Z"/>
      <path class="cls-7" d="M98.8,62.41c-.99.18-2.66.8-4.05,1.92-1.92,1.55-2.97,2.91-3.64,3.78,1.08-.57,3.09-.34,4.17-.91-.38.41-.98,1.06-1.75,1.82-1.33,1.31-3.05,4.01-3.04,4.61,0,.24,2.43-1.02,2.43-1.02,0,0,3.03-.82,5.92-1.65,2.05-.59,4.12-1.06,6.23-1.38,3.78-.58,7.33-1.33,10.61-2.05-.07-.05-.26-.16-.54-.29-.54-.25-.97-.4-1.11-.45-2-.65-6-1.94-7.92-2.69-3.05-1.19-5.05-1.92-7.32-1.69Z"/>
      <path class="cls-7" d="M91.68,71.29c-.72.99-2.93,4.01-3.66,5.39-.76,1.44-1.33,2.8-1.75,3.99-.12-.8-.14-2.18-.12-4.67.02-2.58.61-4.74.96-6.62-.99.87-3.16,3.38-5.98,7.65-2.18,3.29-1.11,5.24.08,7.65-8.25,1.76-8.44-9.91-8.44-9.91,0,0-2.65,9.49-4.32,14.5,3.12-.77,7.57-.7,10.69-1.48,4.53-.96,9.53-.54,9.53-.54,0,0-.4-1.99,0-3.99,0,0,.33-1.58.45-2.11.3-1.31-.27-1.65,0-3.01.14-.73,1.18-1.72,1.37-2.43.68-2.67,2.43-3.1,2.43-3.1,0,0-.72-.73-1.24-1.32Z"/>
      <path class="cls-7" d="M94.76,71.57l-6.08,15.69-20.92,2.44c4.28-2.9,12.21-2.81,16.48-5.71,4.11-2.79,5.39-12.9,10.52-12.42Z"/>
      <polygon class="cls-7" points="58.88 129.69 64.96 102.49 49.17 94.87 58.88 129.69"/>
      <path class="cls-3" d="M64.93,102.12c1.48,7.36,2.16,9.95,4.38,15.26,3.19,7.63,5.68,11.35,10.12,16.78-.69-5.93-.88-7.01-.77-10.18.21-6.28.58-5.78,1.34-10.62.13-.83,8.09-24.64,8.68-26.1-6.42,4.13-17.71,10.77-23.75,14.87Z"/>
      <polygon class="cls-7" points="64.96 102.49 68.46 89.27 88.68 87.25 64.96 102.49"/>
      <path class="cls-4" d="M116.77,57.67c-8.4-1.68-17.05-.59-24.81.19-.54.06,17.54.81,23.31,1.52,4.82.59,13.88,2.99,16.66,6.91-1.51-3.1-7.41-7.07-15.16-8.62Z"/>
      <path class="cls-4" d="M127.14,40.34c-.31-.38-.79-.84-1.49-1.01-1.99-.5-4,1.66-4.32,2.02.93-.48,2.2-.99,3.64-1.12.84-.08,1.57,0,2.16.11Z"/>
      <path class="cls-4" d="M71.07,5.67c-4.01-.23-10.25.08-10.25.08,0,0,3,.5,6.5.85-1.26.16-2.47.4-3.94.64-3.41.57-8.58,2.08-8.58,2.08,0,0,4.64-.22,8.66-.92.68-.12,1.4-.25,2.13-.4,3.54-.71,7.14-1.02,10.75-.96,2.36.04,4.57.06,5.92.12-4.81-1.3-7.21-1.26-11.18-1.49Z"/>
      <path class="cls-4" d="M141.37,50.73c-.08-.92-.05-1.09-.21-1.81-.17-.77-.18-1.02-.61-1.96-.74-1.63-1.29-2.44-2.34-3.4-.89-.82-2.3-1.67-3.89-2.41-.37-.17-2.82-1.06-2.82-1.06,0,0,2.4,1.11,2.93,1.45.45.29,1.14.71,1.51,1.02.58.49,1.05.84,1.88,1.65,1.29,1.25,1.69,1.96,2.6,3.7.22.42.33.6.5,1.24.21.77.29,1.37.36,1.87l.11,1.49v-1.37c0-.13-.01-.27-.02-.4Z"/>
      <path class="cls-4" d="M57.95,57.96c-2.73,3.73-2.91,7.71-2.9,9.16.52-2.03,1.46-4.83,3.28-7.81,1.49-2.44,3.11-4.26,4.44-5.55-1.22.66-3.16,1.94-4.82,4.2Z"/>
      <path class="cls-4" d="M118.76,25.72c.99,1.04,2.37,2.72,3.58,3.85-.37-.74-.7-1.35-1.06-1.95.04.05.08.1.11.15.88,1.2,2.14,3.41,2.86,5.06-.42-1.52-.69-2.83-1.39-4.53-2.67-3.35-6.8-7.36-9.1-9.83.79,1.19,1.98,2.62,3.23,4.07-1.05-.92-2.02-1.56-3.16-2.4,1.8,2.7,2.53,2.95,4.92,5.58Z"/>
      <path class="cls-4" d="M104.4,42.08c.86.13,1.6-.01,1.6-.01,1.03-.22,1.7-.82,2.1-1.19.12-.11.22-.21.32-.32,1.07-1.15,1.56-2.72,1.51-4.29-.04-1.25-.28-2.79-1.11-4.08-.12-.18-.3-.46-.61-.78-.52-.55-1.46-1.19-3.61-1.83-1.45-.43-2.55-.71-5.13-.9,3.65,1.29,4.01,1.48,5.72,2.41,1.36.75,1.77,1.12,2.3,1.7.74.81.66,2.14.58,2.84-.46-1.05-.79-1.53-1.81-2.13-.75-.44-1.41-.47-2.62,0,1.29.48,2.38,1.13,3.03,2.08.36.53.52,1.84-.05,2.29-.79.61-2.43-1.22-3.09-1.78-1.67-1.51-3-3-4.23-4.3-.88-.94-1.88-1.77-2.98-2.43-.92-.55-1.89-1-3.25-1.52,1.75,1.71,2.38,2.33,3.67,3.89-4.43-2.79-10.24-6.31-17.17-10.17,3.77,3.62,4.88,4.53,8.86,8.72,1.77,1.64,5.55,3.39,9.2,4.83,2.71,1.96,5.32,6.76,6.77,6.97Z"/>
      <polygon class="cls-6" points="64.96 102.49 70.64 82.29 49.17 94.87 64.96 102.49"/>
      <polygon class="cls-5" points="1.03 61.54 17.91 52.63 19.92 38.87 1.03 61.54"/>
      <polygon class="cls-8" points="2.95 78.04 16.39 71.56 17.91 52.63 2.95 78.04"/>
      <polygon class="cls-5" points="9.62 98.95 22.55 85.93 16.39 71.56 9.62 98.95"/>
      <polygon class="cls-5" points="17.91 52.63 22.55 85.93 30.43 68.22 17.91 52.63"/>
      <polygon class="cls-8" points="20.23 110.12 30.43 99.9 22.55 85.93 20.23 110.12"/>
      <polygon class="cls-8" points="39.43 105.88 48.92 95.05 30.43 68.22 39.43 105.88"/>
      <polygon class="cls-5" points="30.43 99.9 30.43 115.6 39.43 105.88 32.66 77.55 30.43 99.9"/>
      <polygon class="cls-5" points="42.99 123.48 48.92 95.05 39.43 105.88 42.99 123.48"/>
      <polygon class="cls-5" points="5.57 42.46 19.92 38.87 26.89 27.08 5.57 42.46"/>
      <polygon class="cls-8" points="36.03 27.29 19.92 38.87 29.84 50.46 36.03 27.29"/>
      <polygon class="cls-5" points="45.24 57.94 53.98 45.74 29.84 50.46 45.24 57.94"/>
      <polygon class="cls-8" points="53.98 45.74 42.58 36.37 33.85 45.77 53.98 45.74"/>
      <polygon class="cls-5" points="33.85 45.77 42.58 36.37 35.43 34.08 33.85 45.77"/>
      <polygon class="cls-8" points="30.43 68.22 45.24 57.94 29.84 50.46 30.43 68.22"/>
      <path class="cls-5" d="M53.5,73.66c.01-.14-1.12-3.64-1.03-8.93.06-3.75,2.41-7.19,2.42-7.25-3.21.16-6.43.31-9.64.47l8.25,15.71Z"/>
      <path class="cls-4" d="M37.66,17.33c-7.28,2.1-12.97,6.23-14.98,7.78,3.23-1.82,7.86-4.15,13.39-6.08,4.53-1.58,8.31-2.41,11.12-2.87-1.85-.13-5.1-.11-9.52,1.17Z"/>
    </g>
    <path class="cls-7" d="M88.1,87.75c-3.09,2.61-3.17,3.74-4.23,6.35-1.64,4.06-1.25,7.92-1.25,7.92,0,0-1.91-2.51-1.92-5.52,0-1.33.28-2.44.55-3.21-1.06,1.31-2.4,3.33-3.22,6.06-.33,1.09-.51,2.1-.61,3-.46-1.01-1.23-3.04-1.11-5.69.15-3.09,1.44-5.29,2.07-6.23,2.29.18,7.42-2.87,9.71-2.69Z"/>
    <path class="cls-8" d="M86.98,101.46c-.05,2.67.12,7.6,1.99,13.09,2.39,7.03,6.17,10.94,7.87,12.5-1.92-3.16-4.16-7.4-6.17-12.74-1.8-4.79-2.94-9.21-3.69-12.85Z"/>
    <path class="cls-7" d="M68.27,108.25c1.18,8.01,6.65,14.7,8.94,19.34-.28-1.42-.02-8.29.59-11.3.39-1.95.81-4.92,1.36-5.96.4,1.05,1.16,2.89,3.1,5.96,1.06,1.67,2.6,2.78,3.5,3.14-1.98-2.03-2.11-2.81-3.76-5.55-.83-1.38-1.89-3.38-2.85-6.51-1.15,2.11-1.39,2.96-1.92,5.42-1.19,5.61-1.18,7.39-1.31,10.14-2.37-3.94-5.81-10.47-7.65-14.69Z"/>
    <path class="cls-3" d="M95.76,60.91c4.32.13,11.67.39,19.32,1.7,6.25,1.07,12.87,3.04,14.83,5.7-5.34-.68-13.81.12-19.97-1.41-3.97-.99-10.61-3.18-14.18-5.99Z"/>
  </g>
</svg>