<?xml version="1.0" encoding="UTF-8"?>
<svg id="Layer_1" data-name="Layer 1" xmlns="http://www.w3.org/2000/svg" viewBox="0 0 250 250">
  <defs>
    <style>
      .cls-1 {
        fill: none;
      }

      .cls-2 {
        fill: #b3b3b3;
      }

      .cls-3 {
        fill: #fff;
      }
    </style>
  </defs>
  <g>
    <polygon class="cls-1" points="175.38 211.82 232.46 112.97 231.78 114.14 175.38 211.82"/>
    <path class="cls-3" d="M175.38,211.82l56.4-97.68.68-1.17L175.38,14.11H61.24L4.16,112.97l13.21,22.89,43.86,75.97h114.15ZM73.12,27.79h.21s.01-.02.01-.02h96.81l48.4,83.84-48.4,83.84h-96.81L24.94,111.6,73.12,27.79Z"/>
    <polygon points="73.35 27.77 73.33 27.79 170.15 27.77 73.35 27.77"/>
    <polygon class="cls-2" points="232.46 112.97 175.38 211.82 61.24 211.82 17.38 135.86 74.84 235.64 187.92 235.89 245.84 135.57 232.46 112.97"/>
    <polygon class="cls-2" points="73.12 27.79 24.94 111.6 73.33 27.79 73.12 27.79"/>
    <polygon class="cls-2" points="74.47 195.44 36.05 128.99 83.2 47.24 180.83 46.26 170.15 27.77 73.33 27.79 24.94 111.6 73.35 195.44 74.47 195.44"/>
  </g>
  <g>
    <path class="cls-3" d="M110.67,142.02h-28.43l-4.7,13.6h-15.04l25.67-71.49h16.67l25.67,71.49h-15.14l-4.71-13.6ZM106.79,130.56l-10.33-29.86-10.33,29.86h20.66Z"/>
    <path class="cls-3" d="M140.02,111.9c2.39-4.4,5.69-7.81,9.92-10.23,4.23-2.42,9.07-3.63,14.52-3.63,7.02,0,12.84,1.76,17.44,5.27,4.6,3.51,7.69,8.44,9.26,14.78h-15.44c-.82-2.45-2.2-4.38-4.14-5.78-1.94-1.4-4.35-2.1-7.21-2.1-4.09,0-7.33,1.48-9.72,4.45-2.39,2.97-3.58,7.18-3.58,12.63s1.19,9.56,3.58,12.53c2.39,2.97,5.62,4.45,9.72,4.45,5.79,0,9.58-2.59,11.35-7.77h15.44c-1.57,6.14-4.67,11.01-9.31,14.62-4.64,3.61-10.43,5.42-17.39,5.42-5.46,0-10.3-1.21-14.52-3.63-4.23-2.42-7.53-5.83-9.92-10.23-2.39-4.4-3.58-9.53-3.58-15.39s1.19-11,3.58-15.39Z"/>
  </g>
</svg>