<?xml version="1.0" encoding="UTF-8"?>
<svg id="Layer_1" data-name="Layer 1" xmlns="http://www.w3.org/2000/svg" viewBox="0 0 250 250">
  <defs>
    <style>
      .cls-1 {
        fill: none;
      }

      .cls-2 {
        fill: #b3b3b3;
      }

      .cls-3 {
        fill: #fff;
      }
    </style>
  </defs>
  <g>
    <polygon class="cls-1" points="176.38 211.82 233.46 112.97 232.78 114.14 176.38 211.82"/>
    <path class="cls-3" d="M176.38,211.82l56.4-97.68.68-1.17L176.38,14.11H62.24L5.16,112.97l13.21,22.89,43.86,75.97h114.15ZM74.12,27.79h.21s.01-.02.01-.02h96.81l48.4,83.84-48.4,83.84h-96.81L25.94,111.6,74.12,27.79Z"/>
    <polygon points="74.35 27.77 74.34 27.79 171.15 27.77 74.35 27.77"/>
    <polygon class="cls-2" points="233.46 112.97 176.38 211.82 62.24 211.82 18.38 135.86 75.84 235.64 188.92 235.89 246.84 135.57 233.46 112.97"/>
    <polygon class="cls-2" points="74.12 27.79 25.94 111.6 74.34 27.79 74.12 27.79"/>
    <polygon class="cls-2" points="75.47 195.44 37.05 128.99 84.21 47.24 181.83 46.26 171.15 27.77 74.34 27.79 25.94 111.6 74.35 195.44 75.47 195.44"/>
  </g>
  <g>
    <path class="cls-3" d="M69.18,100.96c3.17-5.56,7.5-9.89,12.99-12.99,5.49-3.1,11.64-4.65,18.46-4.65,7.98,0,14.97,2.05,20.97,6.14,6,4.09,10.19,9.75,12.58,16.98h-16.47c-1.64-3.41-3.94-5.97-6.9-7.67-2.97-1.7-6.39-2.56-10.28-2.56-4.16,0-7.86.97-11.1,2.92-3.24,1.94-5.76,4.69-7.57,8.23-1.81,3.55-2.71,7.71-2.71,12.48s.9,8.85,2.71,12.43c1.81,3.58,4.33,6.34,7.57,8.28,3.24,1.94,6.94,2.92,11.1,2.92,3.89,0,7.31-.87,10.28-2.61,2.97-1.74,5.27-4.31,6.9-7.72h16.47c-2.39,7.3-6.56,12.97-12.53,17.03-5.97,4.06-12.97,6.08-21.02,6.08-6.82,0-12.97-1.55-18.46-4.65-5.49-3.1-9.82-7.42-12.99-12.94-3.17-5.52-4.76-11.79-4.76-18.82s1.58-13.31,4.76-18.87Z"/>
    <path class="cls-3" d="M200.65,98.96l-35.08,83.46h-15.24l12.27-28.23-22.71-55.23h16.06l14.63,39.58,14.83-39.58h15.24Z"/>
  </g>
</svg>