<?xml version="1.0" encoding="UTF-8"?>
<svg id="Layer_1" data-name="Layer 1" xmlns="http://www.w3.org/2000/svg" viewBox="0 0 250 250">
  <defs>
    <style>
      .cls-1 {
        fill: none;
      }

      .cls-2 {
        fill: #b3b3b3;
      }

      .cls-3 {
        fill: #fff;
      }
    </style>
  </defs>
  <g>
    <polygon class="cls-1" points="171.71 211.82 228.79 112.97 228.11 114.14 171.71 211.82"/>
    <path class="cls-3" d="M171.71,211.82l56.4-97.68.68-1.17L171.71,14.11H57.57L.49,112.97l13.21,22.89,43.86,75.97h114.15ZM69.45,27.79h.21s.01-.02.01-.02h96.81l48.4,83.84-48.4,83.84h-96.81L21.27,111.6,69.45,27.79Z"/>
    <polygon points="69.68 27.77 69.67 27.79 166.48 27.77 69.68 27.77"/>
    <polygon class="cls-2" points="228.79 112.97 171.71 211.82 57.57 211.82 13.71 135.86 71.17 235.64 184.25 235.89 242.17 135.57 228.79 112.97"/>
    <polygon class="cls-2" points="69.45 27.79 21.27 111.6 69.67 27.79 69.45 27.79"/>
    <polygon class="cls-2" points="70.8 195.44 32.38 128.99 79.54 47.24 177.16 46.26 166.48 27.77 69.67 27.79 21.27 111.6 69.68 195.44 70.8 195.44"/>
  </g>
  <g>
    <path class="cls-3" d="M86.8,95.79v17.9h24.03v11.35h-24.03v18.92h27.1v11.66h-41.42v-71.49h41.42v11.66h-27.1Z"/>
    <path class="cls-3" d="M148.83,100.65c3.24-1.74,6.94-2.61,11.1-2.61,4.84,0,9.22,1.19,13.14,3.58,3.92,2.39,7.02,5.78,9.31,10.18,2.28,4.4,3.43,9.5,3.43,15.29s-1.14,10.93-3.43,15.39c-2.29,4.47-5.39,7.93-9.31,10.38-3.92,2.46-8.3,3.68-13.14,3.68-4.16,0-7.82-.85-10.99-2.56-3.17-1.7-5.75-3.85-7.72-6.44v35.08h-14.32v-83.66h14.32v8.18c1.84-2.59,4.38-4.76,7.62-6.49ZM169.08,118.24c-1.4-2.49-3.24-4.38-5.52-5.68-2.29-1.29-4.76-1.94-7.42-1.94s-5.03.66-7.31,1.99c-2.29,1.33-4.13,3.26-5.52,5.78-1.4,2.52-2.1,5.49-2.1,8.9s.7,6.38,2.1,8.9c1.4,2.52,3.24,4.45,5.52,5.78,2.28,1.33,4.72,1.99,7.31,1.99s5.13-.68,7.42-2.05c2.28-1.36,4.12-3.31,5.52-5.83s2.1-5.52,2.1-9-.7-6.36-2.1-8.85Z"/>
  </g>
</svg>