<?xml version="1.0" encoding="UTF-8"?>
<svg id="Layer_1" data-name="Layer 1" xmlns="http://www.w3.org/2000/svg" viewBox="0 0 250 250">
  <defs>
    <style>
      .cls-1 {
        fill: none;
      }

      .cls-2 {
        fill: #b3b3b3;
      }

      .cls-3 {
        fill: #fff;
      }
    </style>
  </defs>
  <g>
    <polygon class="cls-1" points="175.5 211.82 232.57 112.97 231.89 114.14 175.5 211.82"/>
    <path class="cls-3" d="M175.5,211.82l56.4-97.68.68-1.17L175.5,14.11H61.35L4.28,112.97l13.21,22.89,43.86,75.97h114.15ZM73.24,27.79h.21s.01-.02.01-.02h96.81l48.4,83.84-48.4,83.84h-96.81L25.06,111.6,73.24,27.79Z"/>
    <polygon points="73.46 27.77 73.45 27.79 170.27 27.77 73.46 27.77"/>
    <polygon class="cls-2" points="232.57 112.97 175.5 211.82 61.35 211.82 17.49 135.86 74.95 235.64 188.04 235.89 245.95 135.57 232.57 112.97"/>
    <polygon class="cls-2" points="73.24 27.79 25.06 111.6 73.45 27.79 73.24 27.79"/>
    <polygon class="cls-2" points="74.58 195.44 36.17 128.99 83.32 47.24 180.95 46.26 170.27 27.77 73.45 27.79 25.06 111.6 73.46 195.44 74.58 195.44"/>
  </g>
  <g>
    <path class="cls-3" d="M125.12,86.24v71.39h-14.32v-30.38h-30.58v30.38h-14.32v-71.39h14.32v29.35h30.58v-29.35h14.32Z"/>
    <path class="cls-3" d="M149.66,154.91c-4.36-2.42-7.79-5.85-10.28-10.28-2.49-4.43-3.73-9.54-3.73-15.34s1.28-10.91,3.83-15.34c2.56-4.43,6.05-7.86,10.48-10.28,4.43-2.42,9.37-3.63,14.83-3.63s10.4,1.21,14.83,3.63c4.43,2.42,7.93,5.85,10.48,10.28,2.56,4.43,3.84,9.55,3.84,15.34s-1.31,10.91-3.94,15.34c-2.63,4.43-6.17,7.86-10.64,10.28-4.47,2.42-9.46,3.63-14.98,3.63s-10.37-1.21-14.73-3.63ZM171.7,144.17c2.28-1.26,4.11-3.15,5.47-5.68,1.36-2.52,2.05-5.59,2.05-9.21,0-5.39-1.42-9.53-4.25-12.43-2.83-2.9-6.29-4.35-10.38-4.35s-7.52,1.45-10.28,4.35c-2.76,2.9-4.14,7.04-4.14,12.43s1.35,9.53,4.04,12.43c2.69,2.9,6.09,4.35,10.18,4.35,2.59,0,5.03-.63,7.31-1.89Z"/>
  </g>
</svg>