<?xml version="1.0" encoding="UTF-8"?>
<svg id="Layer_1" data-name="Layer 1" xmlns="http://www.w3.org/2000/svg" viewBox="0 0 250 250">
  <defs>
    <style>
      .cls-1 {
        fill: none;
      }

      .cls-2 {
        fill: #b3b3b3;
      }

      .cls-3 {
        fill: #fff;
      }
    </style>
  </defs>
  <g>
    <polygon class="cls-1" points="174.78 211.82 231.86 112.97 231.18 114.14 174.78 211.82"/>
    <path class="cls-3" d="M174.78,211.82l56.4-97.68.68-1.17L174.78,14.11H60.64L3.56,112.97l13.21,22.89,43.86,75.97h114.15ZM72.52,27.79h.21s.01-.02.01-.02h96.81l48.4,83.84-48.4,83.84h-96.81L24.34,111.6,72.52,27.79Z"/>
    <polygon points="72.75 27.77 72.73 27.79 169.55 27.77 72.75 27.77"/>
    <polygon class="cls-2" points="231.86 112.97 174.78 211.82 60.64 211.82 16.78 135.86 74.24 235.64 187.32 235.89 245.24 135.57 231.86 112.97"/>
    <polygon class="cls-2" points="72.52 27.79 24.34 111.6 72.73 27.79 72.52 27.79"/>
    <polygon class="cls-2" points="73.87 195.44 35.45 128.99 82.61 47.24 180.23 46.26 169.55 27.77 72.73 27.79 24.34 111.6 72.75 195.44 73.87 195.44"/>
  </g>
  <g>
    <polygon class="cls-1" points="174.78 211.82 231.86 112.97 231.18 114.14 174.78 211.82"/>
    <path class="cls-3" d="M174.78,211.82l56.4-97.68.68-1.17L174.78,14.11H60.64L3.56,112.97l13.21,22.89,43.86,75.97h114.15ZM72.52,27.79h.21s.01-.02.01-.02h96.81l48.4,83.84-48.4,83.84h-96.81L24.34,111.6,72.52,27.79Z"/>
    <polygon points="72.75 27.77 72.73 27.79 169.55 27.77 72.75 27.77"/>
    <polygon class="cls-2" points="231.86 112.97 174.78 211.82 60.64 211.82 16.78 135.86 74.24 235.64 187.32 235.89 245.24 135.57 231.86 112.97"/>
    <polygon class="cls-2" points="72.52 27.79 24.34 111.6 72.73 27.79 72.52 27.79"/>
    <polygon class="cls-2" points="73.87 195.44 35.45 128.99 82.61 47.24 180.23 46.26 169.55 27.77 72.73 27.79 24.34 111.6 72.75 195.44 73.87 195.44"/>
  </g>
  <g>
    <path class="cls-3" d="M134.01,87.64v64.06h-12.85v-41.66l-17.16,41.66h-9.73l-17.25-41.66v41.66h-12.85v-64.06h14.59l20.37,47.63,20.37-47.63h14.5Z"/>
    <path class="cls-3" d="M193.57,130.13h-37.17c.3,3.67,1.59,6.55,3.85,8.63,2.26,2.08,5.05,3.12,8.35,3.12,4.77,0,8.17-2.05,10.19-6.15h13.86c-1.47,4.9-4.28,8.92-8.44,12.07-4.16,3.15-9.27,4.73-15.33,4.73-4.9,0-9.28-1.09-13.17-3.26-3.89-2.17-6.92-5.25-9.09-9.22-2.17-3.98-3.26-8.56-3.26-13.77s1.07-9.88,3.21-13.86c2.14-3.98,5.14-7.03,8.99-9.18,3.85-2.14,8.29-3.21,13.31-3.21s9.16,1.04,12.99,3.12c3.82,2.08,6.79,5.03,8.9,8.86,2.11,3.82,3.17,8.21,3.17,13.17,0,1.84-.12,3.49-.37,4.96ZM180.63,121.5c-.06-3.3-1.25-5.95-3.58-7.94-2.33-1.99-5.17-2.98-8.54-2.98-3.18,0-5.86.96-8.03,2.89-2.17,1.93-3.5,4.6-3.99,8.03h24.14Z"/>
  </g>
</svg>