<?xml version="1.0" encoding="UTF-8"?>
<svg id="Layer_1" data-name="Layer 1" xmlns="http://www.w3.org/2000/svg" viewBox="0 0 250 250">
  <defs>
    <style>
      .cls-1 {
        fill: none;
      }

      .cls-2 {
        fill: #b3b3b3;
      }

      .cls-3 {
        fill: #fff;
      }
    </style>
  </defs>
  <g>
    <polygon class="cls-1" points="175.26 211.82 232.33 112.97 231.66 114.14 175.26 211.82"/>
    <path class="cls-3" d="M175.26,211.82l56.4-97.68.68-1.17L175.26,14.11H61.11L4.04,112.97l13.21,22.89,43.86,75.97h114.15ZM73,27.79h.21s.01-.02.01-.02h96.81l48.4,83.84-48.4,83.84h-96.81L24.82,111.6,73,27.79Z"/>
    <polygon points="73.22 27.77 73.21 27.79 170.03 27.77 73.22 27.77"/>
    <polygon class="cls-2" points="232.33 112.97 175.26 211.82 61.11 211.82 17.25 135.86 74.71 235.64 187.8 235.89 245.72 135.57 232.33 112.97"/>
    <polygon class="cls-2" points="73 27.79 24.82 111.6 73.21 27.79 73 27.79"/>
    <polygon class="cls-2" points="74.34 195.44 35.93 128.99 83.08 47.24 180.71 46.26 170.03 27.77 73.21 27.79 24.82 111.6 73.22 195.44 74.34 195.44"/>
  </g>
  <g>
    <path class="cls-3" d="M136.26,88.13v61.74h-12.38v-40.16l-16.54,40.16h-9.38l-16.63-40.16v40.16h-12.38v-61.74h14.06l19.64,45.91,19.64-45.91h13.98Z"/>
    <path class="cls-3" d="M157.48,147.52c-3.77-2.09-6.74-5.06-8.89-8.89-2.15-3.83-3.23-8.25-3.23-13.27s1.11-9.43,3.32-13.27c2.21-3.83,5.23-6.79,9.07-8.89,3.83-2.09,8.11-3.14,12.82-3.14s8.99,1.05,12.83,3.14c3.83,2.09,6.86,5.06,9.07,8.89,2.21,3.83,3.32,8.26,3.32,13.27s-1.14,9.44-3.41,13.27c-2.27,3.83-5.34,6.8-9.2,8.89-3.86,2.09-8.18,3.14-12.96,3.14s-8.96-1.05-12.74-3.14ZM176.54,138.24c1.97-1.09,3.55-2.73,4.73-4.91,1.18-2.18,1.77-4.83,1.77-7.96,0-4.66-1.22-8.24-3.67-10.75-2.45-2.51-5.44-3.76-8.98-3.76s-6.5,1.25-8.89,3.76c-2.39,2.51-3.58,6.09-3.58,10.75s1.16,8.24,3.49,10.75c2.33,2.51,5.26,3.76,8.8,3.76,2.24,0,4.35-.54,6.32-1.64Z"/>
  </g>
</svg>