<?xml version="1.0" encoding="UTF-8"?>
<svg id="Layer_1" data-name="Layer 1" xmlns="http://www.w3.org/2000/svg" viewBox="0 0 250 250">
  <defs>
    <style>
      .cls-1 {
        fill: none;
      }

      .cls-2 {
        fill: #b3b3b3;
      }

      .cls-3 {
        fill: #fff;
      }
    </style>
  </defs>
  <g>
    <polygon class="cls-1" points="175.74 213.71 232.81 114.85 232.14 116.02 175.74 213.71"/>
    <path class="cls-3" d="M175.74,213.71l56.4-97.68.68-1.17L175.74,16H61.59L4.52,114.85l13.21,22.89,43.86,75.97h114.15ZM73.48,29.67h.21s.01-.02.01-.02h96.81l48.4,83.84-48.4,83.84h-96.81L25.3,113.49,73.48,29.67Z"/>
    <polygon points="73.7 29.65 73.69 29.67 170.51 29.65 73.7 29.65"/>
    <polygon class="cls-2" points="232.81 114.85 175.74 213.71 61.59 213.71 17.73 137.74 75.19 237.52 188.28 237.77 246.2 137.45 232.81 114.85"/>
    <polygon class="cls-2" points="73.48 29.67 25.3 113.49 73.69 29.67 73.48 29.67"/>
    <polygon class="cls-2" points="74.82 197.32 36.41 130.87 83.56 49.12 181.19 48.14 170.51 29.65 73.69 29.67 25.3 113.49 73.7 197.33 74.82 197.32"/>
  </g>
  <g>
    <path class="cls-3" d="M138.16,92.45v61.29h-12.29v-39.86l-16.42,39.86h-9.31l-16.51-39.86v39.86h-12.29v-61.29h13.96l19.49,45.57,19.49-45.57h13.87Z"/>
    <path class="cls-3" d="M158.18,152.38c-3.16-1.43-5.66-3.38-7.51-5.84-1.84-2.46-2.85-5.18-3.03-8.17h12.38c.23,1.87,1.16,3.42,2.77,4.65,1.61,1.23,3.61,1.84,6.01,1.84s4.17-.47,5.49-1.41c1.32-.94,1.98-2.14,1.98-3.6,0-1.58-.81-2.77-2.42-3.56-1.61-.79-4.17-1.65-7.68-2.59-3.63-.88-6.6-1.79-8.91-2.72-2.31-.94-4.3-2.37-5.97-4.3s-2.5-4.54-2.5-7.81c0-2.69.78-5.15,2.33-7.38,1.55-2.22,3.78-3.98,6.67-5.27,2.9-1.29,6.31-1.93,10.23-1.93,5.8,0,10.42,1.45,13.87,4.35s5.36,6.8,5.71,11.72h-11.77c-.18-1.93-.98-3.47-2.42-4.61-1.44-1.14-3.35-1.71-5.75-1.71-2.23,0-3.94.41-5.14,1.23-1.2.82-1.8,1.96-1.8,3.42,0,1.64.82,2.88,2.46,3.73,1.64.85,4.18,1.71,7.64,2.59,3.51.88,6.41,1.79,8.69,2.72,2.28.94,4.26,2.39,5.93,4.35,1.67,1.96,2.53,4.55,2.59,7.77,0,2.81-.78,5.33-2.33,7.55-1.55,2.23-3.78,3.97-6.67,5.22s-6.28,1.89-10.14,1.89-7.55-.72-10.71-2.15Z"/>
  </g>
</svg>