<?xml version="1.0" encoding="UTF-8"?>
<svg id="Layer_1" data-name="Layer 1" xmlns="http://www.w3.org/2000/svg" viewBox="0 0 250 250">
  <defs>
    <style>
      .cls-1 {
        fill: none;
      }

      .cls-2 {
        fill: #b3b3b3;
      }

      .cls-3 {
        fill: #fff;
      }
    </style>
  </defs>
  <g>
    <polygon class="cls-1" points="175.2 211.82 232.27 112.97 231.6 114.14 175.2 211.82"/>
    <path class="cls-3" d="M175.2,211.82l56.4-97.68.68-1.17L175.2,14.11H61.05L3.98,112.97l13.21,22.89,43.86,75.97h114.15ZM72.94,27.79h.21s.01-.02.01-.02h96.81l48.4,83.84-48.4,83.84h-96.81L24.76,111.6,72.94,27.79Z"/>
    <polygon points="73.16 27.77 73.15 27.79 169.97 27.77 73.16 27.77"/>
    <polygon class="cls-2" points="232.27 112.97 175.2 211.82 61.05 211.82 17.19 135.86 74.65 235.64 187.74 235.89 245.65 135.57 232.27 112.97"/>
    <polygon class="cls-2" points="72.94 27.79 24.76 111.6 73.15 27.79 72.94 27.79"/>
    <polygon class="cls-2" points="74.28 195.44 35.87 128.99 83.02 47.24 180.65 46.26 169.97 27.77 73.15 27.79 24.76 111.6 73.16 195.44 74.28 195.44"/>
  </g>
  <g>
    <path class="cls-3" d="M122.25,117.06c-1.81,3.34-4.64,6.03-8.49,8.08-3.85,2.04-8.71,3.07-14.57,3.07h-11.97v27.41h-14.32v-71.39h26.28c5.52,0,10.23.96,14.11,2.86,3.89,1.91,6.8,4.54,8.74,7.88,1.94,3.34,2.92,7.13,2.92,11.35,0,3.82-.9,7.4-2.71,10.74ZM107.37,113.95c1.91-1.81,2.86-4.35,2.86-7.62,0-6.95-3.89-10.43-11.66-10.43h-11.35v20.76h11.35c3.95,0,6.89-.9,8.8-2.71Z"/>
    <path class="cls-3" d="M145.52,152.91c-4.37-2.42-7.79-5.85-10.28-10.28-2.49-4.43-3.73-9.54-3.73-15.34s1.28-10.91,3.83-15.34c2.56-4.43,6.05-7.86,10.48-10.28,4.43-2.42,9.37-3.63,14.83-3.63s10.4,1.21,14.83,3.63c4.43,2.42,7.93,5.85,10.48,10.28,2.56,4.43,3.84,9.55,3.84,15.34s-1.31,10.91-3.94,15.34c-2.63,4.43-6.17,7.86-10.64,10.28-4.47,2.42-9.46,3.63-14.98,3.63s-10.37-1.21-14.73-3.63ZM167.56,142.17c2.28-1.26,4.11-3.15,5.47-5.68,1.36-2.52,2.04-5.59,2.04-9.2,0-5.39-1.42-9.53-4.24-12.43-2.83-2.9-6.29-4.35-10.38-4.35s-7.52,1.45-10.28,4.35c-2.76,2.9-4.14,7.04-4.14,12.43s1.35,9.53,4.04,12.43c2.69,2.9,6.09,4.35,10.18,4.35,2.59,0,5.03-.63,7.31-1.89Z"/>
  </g>
</svg>