<?xml version="1.0" encoding="UTF-8"?>
<svg id="Layer_1" xmlns="http://www.w3.org/2000/svg" version="1.1" viewBox="0 0 250 250">
  <!-- Generator: Adobe Illustrator 29.7.1, SVG Export Plug-In . SVG Version: 2.1.1 Build 8)  -->
  <defs>
    <style>
      .st0 {
        fill: none;
      }

      .st1 {
        fill: #fff;
      }

      .st2 {
        fill: #b3b3b3;
      }
    </style>
  </defs>
  <g>
    <polygon class="st0" points="175.14 211.29 232.21 112.43 231.53 113.61 175.14 211.29"/>
    <polygon class="st1" points="175.14 13.58 60.99 13.58 3.92 112.43 17.13 135.32 60.99 211.29 175.14 211.29 231.53 113.61 232.21 112.43 175.14 13.58"/>
    <g>
      <polygon class="st2" points="232.21 112.43 175.14 211.29 60.99 211.29 17.13 135.32 74.59 235.11 187.68 235.35 245.59 135.04 232.21 112.43"/>
      <polygon class="st2" points="74.22 194.91 35.81 128.46 82.96 46.7 180.59 45.72 169.91 27.23 72.88 27.25 24.7 111.07 73.1 194.91 74.22 194.91"/>
    </g>
  </g>
  <g>
    <path class="st1" d="M110.67,140.61h-28.43l-4.7,13.6h-15.04l25.67-71.49h16.67l25.67,71.49h-15.14l-4.71-13.6h.01ZM106.79,129.16l-10.33-29.86-10.33,29.86h20.66Z"/>
    <path class="st1" d="M140.02,110.49c2.39-4.4,5.69-7.81,9.92-10.23,4.23-2.42,9.07-3.63,14.52-3.63,7.02,0,12.84,1.76,17.44,5.27,4.6,3.51,7.69,8.44,9.26,14.78h-15.44c-.82-2.45-2.2-4.38-4.14-5.78s-4.35-2.1-7.21-2.1c-4.09,0-7.33,1.48-9.72,4.45-2.39,2.97-3.58,7.18-3.58,12.63s1.19,9.56,3.58,12.53,5.62,4.45,9.72,4.45c5.79,0,9.58-2.59,11.35-7.77h15.44c-1.57,6.14-4.67,11.01-9.31,14.62s-10.43,5.42-17.39,5.42c-5.46,0-10.3-1.21-14.52-3.63-4.23-2.42-7.53-5.83-9.92-10.23s-3.58-9.53-3.58-15.39,1.19-11,3.58-15.39h0Z"/>
  </g>
  <g>
    <path class="st1" d="M104.83,154.01l-15.46-27.3h-6.62v27.3h-14.05v-70.06h26.3c5.42,0,10.04.95,13.85,2.86,3.81,1.91,6.67,4.48,8.58,7.73,1.91,3.25,2.86,6.88,2.86,10.89,0,4.62-1.34,8.78-4.02,12.5-2.68,3.71-6.66,6.27-11.94,7.68l16.76,28.41h-16.26ZM82.75,116.17h11.74c3.81,0,6.66-.92,8.53-2.76,1.87-1.84,2.81-4.4,2.81-7.68s-.94-5.7-2.81-7.48c-1.87-1.77-4.72-2.66-8.53-2.66h-11.74v20.58Z"/>
    <path class="st1" d="M185.53,98.4v55.61h-14.15v-7.03c-1.81,2.41-4.17,4.3-7.08,5.67-2.91,1.37-6.07,2.06-9.49,2.06-4.35,0-8.2-.92-11.54-2.76-3.35-1.84-5.97-4.55-7.88-8.13-1.91-3.58-2.86-7.85-2.86-12.8v-32.62h14.05v30.61c0,4.42,1.1,7.81,3.31,10.19,2.21,2.38,5.22,3.56,9.03,3.56s6.93-1.19,9.13-3.56c2.21-2.38,3.31-5.77,3.31-10.19v-30.61h14.15Z"/>
  </g>
</svg>