<?xml version="1.0" encoding="UTF-8"?>
<svg id="Layer_1" data-name="Layer 1" xmlns="http://www.w3.org/2000/svg" viewBox="0 0 250 250">
  <defs>
    <style>
      .cls-1 {
        fill: none;
      }

      .cls-2 {
        fill: #b3b3b3;
      }

      .cls-3 {
        fill: #fff;
      }
    </style>
  </defs>
  <g>
    <polygon class="cls-1" points="174.57 211.82 231.64 112.97 230.96 114.14 174.57 211.82"/>
    <path class="cls-3" d="M174.57,211.82l56.4-97.68.68-1.17L174.57,14.11H60.42L3.35,112.97l13.21,22.89,43.86,75.97h114.15ZM72.3,27.79h.21s.01-.02.01-.02h96.81l48.4,83.84-48.4,83.84h-96.81L24.13,111.6,72.3,27.79Z"/>
    <polygon points="72.53 27.77 72.52 27.79 169.34 27.77 72.53 27.77"/>
    <polygon class="cls-2" points="231.64 112.97 174.57 211.82 60.42 211.82 16.56 135.86 74.02 235.64 187.1 235.89 245.02 135.57 231.64 112.97"/>
    <polygon class="cls-2" points="72.3 27.79 24.13 111.6 72.52 27.79 72.3 27.79"/>
    <polygon class="cls-2" points="73.65 195.44 35.24 128.99 82.39 47.24 180.01 46.26 169.34 27.77 72.52 27.79 24.13 111.6 72.53 195.44 73.65 195.44"/>
  </g>
  <g>
    <path class="cls-3" d="M94.11,153.78c-3.99-1.7-7.14-4.16-9.46-7.36-2.32-3.2-3.51-6.99-3.58-11.35h15.34c.2,2.93,1.24,5.25,3.12,6.96,1.88,1.71,4.45,2.56,7.72,2.56s5.97-.8,7.88-2.4c1.91-1.6,2.86-3.7,2.86-6.29,0-2.11-.65-3.85-1.94-5.22-1.3-1.36-2.92-2.44-4.86-3.22-1.94-.78-4.62-1.65-8.03-2.61-4.64-1.36-8.4-2.71-11.3-4.04-2.9-1.33-5.39-3.34-7.47-6.03-2.08-2.69-3.12-6.29-3.12-10.79,0-4.23,1.06-7.91,3.17-11.05,2.11-3.14,5.08-5.54,8.9-7.21,3.82-1.67,8.18-2.51,13.09-2.51,7.36,0,13.35,1.79,17.95,5.37,4.6,3.58,7.14,8.58,7.62,14.98h-15.75c-.14-2.45-1.18-4.48-3.12-6.09-1.94-1.6-4.52-2.4-7.72-2.4-2.8,0-5.03.72-6.7,2.15-1.67,1.43-2.51,3.51-2.51,6.24,0,1.91.63,3.49,1.89,4.76,1.26,1.26,2.83,2.29,4.71,3.07,1.87.78,4.52,1.69,7.93,2.71,4.64,1.36,8.42,2.73,11.35,4.09,2.93,1.37,5.45,3.41,7.57,6.14,2.11,2.73,3.17,6.31,3.17,10.74,0,3.82-.99,7.36-2.97,10.64-1.98,3.27-4.88,5.88-8.69,7.82-3.82,1.94-8.35,2.92-13.6,2.92-4.98,0-9.46-.85-13.45-2.56Z"/>
    <path class="cls-3" d="M146.17,89.81c-1.67-1.6-2.51-3.6-2.51-5.98s.83-4.38,2.51-5.98c1.67-1.6,3.77-2.4,6.29-2.4s4.62.8,6.29,2.4c1.67,1.6,2.51,3.6,2.51,5.98s-.84,4.38-2.51,5.98c-1.67,1.6-3.77,2.4-6.29,2.4s-4.62-.8-6.29-2.4ZM159.52,98.96v56.66h-14.32v-56.66h14.32Z"/>
  </g>
</svg>