<?xml version="1.0" encoding="UTF-8"?>
<svg id="Layer_1" data-name="Layer 1" xmlns="http://www.w3.org/2000/svg" viewBox="0 0 250 250">
  <defs>
    <style>
      .cls-1 {
        fill: none;
      }

      .cls-2 {
        fill: #b3b3b3;
      }

      .cls-3 {
        fill: #fff;
      }
    </style>
  </defs>
  <g>
    <polygon class="cls-1" points="175.14 211.82 232.21 112.97 231.53 114.14 175.14 211.82"/>
    <path class="cls-3" d="M175.14,211.82l56.4-97.68.68-1.17L175.14,14.11H60.99L3.92,112.97l13.21,22.89,43.86,75.97h114.15ZM72.88,27.79h.21s.01-.02.01-.02h96.81l48.4,83.84-48.4,83.84h-96.81L24.7,111.6,72.88,27.79Z"/>
    <polygon points="73.1 27.77 73.09 27.79 169.91 27.77 73.1 27.77"/>
    <polygon class="cls-2" points="232.21 112.97 175.14 211.82 60.99 211.82 17.13 135.86 74.59 235.64 187.68 235.89 245.59 135.57 232.21 112.97"/>
    <polygon class="cls-2" points="72.88 27.79 24.7 111.6 73.09 27.79 72.88 27.79"/>
    <polygon class="cls-2" points="74.22 195.44 35.81 128.99 82.96 47.24 180.59 46.26 169.91 27.77 73.09 27.79 24.7 111.6 73.1 195.44 74.22 195.44"/>
  </g>
  <g>
    <path class="cls-3" d="M139.87,92.71l-14.96,53.54h-12.66l-10.05-38.12-10.51,38.12-12.58.08-14.42-53.62h11.51l9.43,41.57,10.89-41.57h11.97l10.28,41.34,9.51-41.34h11.58Z"/>
    <path class="cls-3" d="M146.65,113.42c1.71-3.32,4.04-5.88,6.98-7.67,2.94-1.79,6.22-2.68,9.86-2.68,3.17,0,5.94.64,8.32,1.92,2.38,1.28,4.28,2.89,5.71,4.83v-6.06h10.82v42.49h-10.82v-6.21c-1.38,1.99-3.29,3.64-5.71,4.95-2.43,1.3-5.23,1.96-8.4,1.96-3.58,0-6.84-.92-9.78-2.76-2.94-1.84-5.27-4.44-6.98-7.79-1.71-3.35-2.57-7.2-2.57-11.54s.86-8.1,2.57-11.43ZM175.99,118.29c-1.02-1.87-2.4-3.3-4.14-4.3-1.74-1-3.6-1.5-5.6-1.5s-3.83.49-5.52,1.46c-1.69.97-3.06,2.39-4.1,4.26-1.05,1.87-1.57,4.08-1.57,6.63s.52,4.79,1.57,6.71c1.05,1.92,2.43,3.39,4.14,4.41,1.71,1.02,3.54,1.53,5.48,1.53s3.86-.5,5.6-1.5c1.74-1,3.12-2.43,4.14-4.29,1.02-1.87,1.53-4.1,1.53-6.71s-.51-4.84-1.53-6.71Z"/>
  </g>
</svg>