<?xml version="1.0" encoding="UTF-8"?>
<svg id="Layer_1" data-name="Layer 1" xmlns="http://www.w3.org/2000/svg" xmlns:xlink="http://www.w3.org/1999/xlink" viewBox="0 0 200 200">
  <defs>
    <style>
      .cls-1 {
        fill: url(#linear-gradient);
      }

      .cls-2 {
        fill: #fff;
      }

      .cls-3 {
        fill: none;
        stroke: #fff;
        stroke-miterlimit: 10;
        stroke-width: 1.77px;
      }

      .cls-4 {
        opacity: .42;
      }
    </style>
    <linearGradient id="linear-gradient" x1="34.75" y1="164.43" x2="165.25" y2="33.94" gradientUnits="userSpaceOnUse">
      <stop offset="0" stop-color="#000"/>
      <stop offset="0" stop-color="#08090e"/>
      <stop offset="0" stop-color="#323d5b"/>
      <stop offset="0" stop-color="#43527a"/>
      <stop offset=".23" stop-color="#455178"/>
      <stop offset=".39" stop-color="#4f5172"/>
      <stop offset=".54" stop-color="#5f5169"/>
      <stop offset=".67" stop-color="#75515c"/>
      <stop offset=".8" stop-color="#92514c"/>
      <stop offset=".92" stop-color="#b55137"/>
      <stop offset="1" stop-color="#d35127"/>
    </linearGradient>
  </defs>
  <g>
    <path class="cls-1" d="M147.76,181.91H52.24L4.47,99.19,52.24,16.46h95.53l47.76,82.73-47.76,82.73Z"/>
    <g class="cls-4">
      <path class="cls-3" d="M147.76,181.91H52.24L4.47,99.19,52.24,16.46h95.53l47.76,82.73-47.76,82.73Z"/>
    </g>
  </g>
  <g>
    <path class="cls-2" d="M108.7,65.77v60.32h-12.1v-39.23l-16.16,39.23h-9.16l-16.24-39.23v39.23h-12.1v-60.32h13.74l19.18,44.85,19.18-44.85h13.66Z"/>
    <path class="cls-2" d="M164.78,105.78h-35c.28,3.46,1.5,6.17,3.63,8.13,2.13,1.96,4.76,2.94,7.86,2.94,4.49,0,7.69-1.93,9.6-5.79h13.05c-1.38,4.61-4.03,8.4-7.95,11.37-3.92,2.97-8.73,4.45-14.44,4.45-4.61,0-8.74-1.03-12.4-3.07-3.66-2.04-6.52-4.94-8.56-8.68-2.04-3.75-3.07-8.06-3.07-12.97s1.01-9.3,3.02-13.05c2.02-3.75,4.84-6.62,8.47-8.64,3.63-2.02,7.81-3.02,12.53-3.02s8.63.98,12.23,2.94c3.6,1.96,6.39,4.74,8.38,8.34,1.99,3.6,2.99,7.73,2.99,12.4,0,1.73-.11,3.29-.35,4.67h0ZM152.6,97.65c-.06-3.11-1.18-5.6-3.37-7.48-2.19-1.87-4.87-2.81-8.04-2.81-2.99,0-5.52.9-7.56,2.72-2.04,1.82-3.3,4.33-3.76,7.56h22.73Z"/>
  </g>
</svg>