<?xml version="1.0" encoding="UTF-8"?>
<svg id="Layer_1" xmlns="http://www.w3.org/2000/svg" version="1.1" viewBox="0 0 1627 3192.32">
  <!-- Generator: Adobe Illustrator 29.5.1, SVG Export Plug-In . SVG Version: 2.1.0 Build 141)  -->
  <defs>
    <style>
      .st0 {
        fill: black;
      }

      .st1 {
        stroke-width: 1.25px;
      }

      .st1, .st2, .st3, .st4 {
        fill: none;
        stroke: black;
        stroke-miterlimit: 10;
      }

      .st2 {
        stroke-width: 1.67px;
      }

      .st5 {
        fill: black;
      }

      .st3 {
        stroke-width: 3.24px;
      }

      .st4 {
        stroke-width: 2.94px;
      }

      .st6 {
        fill: black;
      }

      .st7 {
        fill: black;
      }
    </style>
  </defs>
  <line class="st1" x1="429.23" y1="789.81" x2="348.54" y2="789.81"/>
  <line class="st1" x1="433.18" y1="788.98" x2="489.5" y2="710.88"/>
  <line class="st1" x1="660.27" y1="412.78" x2="625.91" y2="464.59"/>
  <line class="st1" x1="532.14" y1="642.6" x2="565.08" y2="573.34"/>
  <line class="st1" x1="382.48" y1="477.25" x2="284.49" y2="418.91"/>
  <line class="st1" x1="273.97" y1="676.12" x2="238.11" y2="608.26"/>
  <line class="st1" x1="398.95" y1="500.13" x2="497.03" y2="573.34"/>
  <line class="st1" x1="530.82" y1="396.83" x2="611.12" y2="469.89"/>
  <line class="st1" x1="570.97" y1="323.56" x2="531.84" y2="389.25"/>
  <line class="st1" x1="484.47" y1="328.02" x2="451.49" y2="378.18"/>
  <line class="st1" x1="525.67" y1="394.35" x2="453.01" y2="384.14"/>
  <line class="st1" x1="616.15" y1="171.43" x2="547.9" y2="89.09"/>
  <polygon class="st1" points="664.08 287.08 628.82 348.14 664.08 409.21 734.59 409.21 769.85 348.14 734.59 287.08 664.08 287.08"/>
  <polygon class="st1" points="601.17 639.09 530.66 639.09 495.4 700.15 530.66 761.22 601.17 761.22 636.43 700.15 601.17 639.09"/>
  <line class="st1" x1="739.65" y1="417.3" x2="792.92" y2="524.69"/>
  <line class="st1" x1="491.39" y1="324.37" x2="531.84" y2="395.72"/>
  <line class="st1" x1="534.47" y1="265.38" x2="491.88" y2="316.72"/>
  <line class="st1" x1="481.92" y1="322.78" x2="358.92" y2="322.86"/>
  <line class="st1" x1="497.03" y1="573.34" x2="339.22" y2="605.16"/>
  <line class="st1" x1="494.3" y1="574.01" x2="559.27" y2="573.34"/>
  <line class="st1" x1="530.45" y1="637.46" x2="496.96" y2="575.81"/>
  <line class="st1" x1="892.74" y1="523.04" x2="790.33" y2="523.04"/>
  <line class="st1" x1="531.84" y1="833.45" x2="531.84" y2="763.29"/>
  <line class="st1" x1="531.84" y1="903.61" x2="531.84" y2="833.45"/>
  <line class="st1" x1="587.8" y1="1090.2" x2="801.73" y2="1086.49"/>
  <line class="st1" x1="535.34" y1="242.58" x2="501.85" y2="180.92"/>
  <line class="st1" x1="543.42" y1="85.66" x2="502.37" y2="152.35"/>
  <line class="st4" x1="1140.15" y1="1896.02" x2="1140.15" y2="1830.4"/>
  <g>
    <g>
      <path class="st4" d="M1176.27,2049.34v-122.56l6.78-6.83c5.14-5.18,4.29-13.47-1.82-17.61-6.55-4.44-14.48-6.65-22.52-6.29l-38.65-.04c-13.86,1.79-16.7,4.56-21.89,8.54-6.57,5.04-5.74,14.78,1.6,18.75l6.39,3.46v120.55c1.21-.38,2.56-.58,3.97-.66"/>
      <line class="st4" x1="1147.18" y1="2011.49" x2="1106.29" y2="2011.49"/>
      <line class="st4" x1="1147.18" y1="1977.23" x2="1106.29" y2="1977.23"/>
      <polygon class="st7" points="1176.26 1928.85 1136.63 1927.38 1176.26 1925.9 1176.26 1928.85 1176.26 1928.85"/>
      <path class="st7" d="M1172.83,1912.08c-10.3,1.18-21.07,1.4-31.45,1.47-10.38-.07-21.14-.29-31.45-1.47,10.3-1.18,21.07-1.4,31.45-1.47,10.38.07,21.14.29,31.45,1.47h0Z"/>
    </g>
    <path class="st4" d="M1109.01,2048.74c-45.9,14.46-79.24,57.97-79.24,109.4,0,63.24,50.41,114.51,112.59,114.51s112.59-51.27,112.59-114.51c0-51.91-33.97-95.75-80.53-109.79"/>
    <line class="st4" x1="1150.82" y1="2046.91" x2="1109.94" y2="2046.91"/>
    <line class="st4" x1="1099.99" y1="2080.39" x2="1059.11" y2="2080.39"/>
    <line class="st2" x1="1080.05" y1="2111.44" x2="873.3" y2="2111.44"/>
    <line class="st4" x1="1070.65" y1="2173.54" x2="1029.77" y2="2173.54"/>
    <line class="st4" x1="1079.55" y1="2204.59" x2="1038.66" y2="2204.59"/>
    <line class="st4" x1="1102.13" y1="2235.64" x2="1061.24" y2="2235.64"/>
    <line class="st4" x1="1030.63" y1="2143.94" x2="1070.65" y2="2143.94"/>
  </g>
  <line class="st1" x1="800.87" y1="2218.8" x2="860.01" y2="2109.82"/>
  <g>
    <g>
      <path class="st3" d="M495.05,956.06v108.46c0,5.38-1.69,10.63-4.82,15l-117.65,164.01c-4.73,6.59-7.27,14.49-7.27,22.6h0c0,9.15,5.68,17.34,14.25,20.54l18.43,6.88c91.6,34.21,192.87,31.74,282.7-6.89l5.19-2.23c9.55-4.11,15.74-13.51,15.74-23.91v-3.87c0-9.13-2.94-18.02-8.39-25.34l-116.02-155.94c-3.02-4.06-4.66-8.99-4.66-14.06v-104.7c0-4.94,1.87-9.71,5.23-13.33l6.21-6.7c4.99-5.38,4.94-13.71-.11-19.03l-1.28-1.35c-7.59-8.02-18.15-12.56-29.19-12.56h-42.33c-10.29,0-20.17,4.01-27.56,11.17l-.25.24c-4.87,4.72-5.36,12.28-1.19,17.54l8.51,10.74c2.88,3.63,4.44,8.13,4.44,12.76Z"/>
      <polygon class="st7" points="572.23 949.76 528.26 948.14 572.23 946.52 572.23 949.76 572.23 949.76"/>
      <path class="st7" d="M568.42,924.95c-11.43,1.29-23.38,1.54-34.89,1.62-11.52-.07-23.45-.32-34.89-1.62,11.43-1.3,23.38-1.54,34.89-1.62,11.52.08,23.45.32,34.89,1.62h0Z"/>
    </g>
    <line class="st3" x1="518.38" y1="1100.36" x2="473.01" y2="1100.36"/>
    <line class="st3" x1="489.18" y1="1141.02" x2="443.81" y2="1141.02"/>
    <line class="st3" x1="466.49" y1="1181.69" x2="421.13" y2="1181.69"/>
    <line class="st3" x1="430.69" y1="1228.05" x2="385.32" y2="1228.05"/>
    <line class="st3" x1="541.06" y1="1059.69" x2="495.69" y2="1059.69"/>
    <line class="st3" x1="541.06" y1="1019.03" x2="495.69" y2="1019.03"/>
    <line class="st3" x1="541.06" y1="981.65" x2="495.69" y2="981.65"/>
  </g>
  <line class="st1" x1="621.21" y1="85.66" x2="551.05" y2="85.66"/>
  <polygon class="st6" points="503.38 149.08 513.91 165.91 504.59 183.44 484.76 184.14 474.23 167.31 483.55 149.78 503.38 149.08"/>
  <polygon class="st6" points="549.73 234.39 560.25 251.22 550.94 268.74 531.1 269.44 520.58 252.61 529.89 235.08 549.73 234.39"/>
  <polygon class="st6" points="350.55 306.03 361.07 322.86 351.76 340.39 331.92 341.09 321.4 324.26 330.71 306.73 350.55 306.03"/>
  <polygon class="st6" points="625.91 464.59 636.43 481.42 627.12 498.95 607.28 499.65 596.76 482.82 606.07 465.29 625.91 464.59"/>
  <polygon class="st6" points="672.29 269.86 682.81 286.7 673.5 304.22 653.66 304.92 643.14 288.09 652.45 270.56 672.29 269.86"/>
  <polygon class="st6" points="778.53 329.35 789.05 346.18 779.74 363.71 759.9 364.41 749.38 347.57 758.69 330.05 778.53 329.35"/>
  <polygon class="st6" points="802.93 505.4 813.46 522.23 804.14 539.76 784.31 540.45 773.78 523.62 783.1 506.09 802.93 505.4"/>
  <polygon class="st6" points="915.79 504.29 926.31 521.12 917 538.65 897.16 539.34 886.64 522.51 895.95 504.98 915.79 504.29"/>
  <polygon class="st6" points="610.89 621.56 621.41 638.39 612.1 655.92 592.26 656.61 581.74 639.78 591.05 622.26 610.89 621.56"/>
  <polygon class="st6" points="395.77 468.64 409.12 483.33 403.08 502.23 383.68 506.45 370.33 491.76 376.38 472.85 395.77 468.64"/>
  <polygon class="st6" points="271.92 491.8 282.45 508.63 273.13 526.16 253.3 526.86 242.77 510.03 252.09 492.5 271.92 491.8"/>
  <polygon class="st6" points="293.81 675.42 304.33 692.25 295.01 709.78 275.18 710.48 264.65 693.65 273.97 676.12 293.81 675.42"/>
  <polygon class="st6" points="503.38 684.55 513.91 701.38 504.59 718.91 484.76 719.61 474.23 702.78 483.55 685.25 503.38 684.55"/>
  <polygon class="st6" points="645.74 684.55 656.27 701.38 646.95 718.91 627.12 719.61 616.59 702.78 625.91 685.25 645.74 684.55"/>
  <polygon class="st6" points="611.15 743.69 621.68 760.52 612.36 778.05 592.52 778.75 582 761.92 591.32 744.39 611.15 743.69"/>
  <polygon class="st6" points="796.85 1069.21 807.37 1086.04 798.06 1103.56 778.22 1104.26 767.7 1087.43 777.01 1069.9 796.85 1069.21"/>
  <polygon class="st6" points="632.84 68.13 643.36 84.96 634.05 102.49 614.21 103.18 603.69 86.35 613 68.83 632.84 68.13"/>
  <polygon class="st6" points="870.59 2092.51 881.12 2109.34 871.8 2126.87 851.97 2127.57 841.44 2110.74 850.76 2093.21 870.59 2092.51"/>
  <circle class="st5" cx="487.5" cy="321" r="9.14"/>
  <circle class="st5" cx="529.42" cy="394.35" r="9.14"/>
  <circle class="st5" cx="664.08" cy="409.21" r="9.14"/>
  <circle class="st5" cx="732.66" cy="287.39" r="9.14"/>
  <circle class="st5" cx="759.38" cy="457.07" r="9.14"/>
  <circle class="st5" cx="496.64" cy="573.34" r="9.14"/>
  <circle class="st5" cx="238.11" cy="606.63" r="9.14"/>
  <circle class="st5" cx="531.84" cy="639.09" r="9.14"/>
  <circle class="st5" cx="531.84" cy="759.07" r="9.14"/>
  <circle class="st5" cx="800.87" cy="2218.8" r="9.14"/>
  <circle class="st5" cx="544.83" cy="85.66" r="9.14"/>
  <polygon class="st6" points="625.69 171.09 630.75 179.19 626.27 187.61 616.73 187.95 611.67 179.86 616.15 171.43 625.69 171.09"/>
  <polygon class="st6" points="567.34 311.03 575.61 315.8 575.61 325.34 567.34 330.12 559.08 325.34 559.08 315.8 567.34 311.03"/>
  <polygon class="st6" points="406.17 214.75 411.23 222.84 406.75 231.27 397.21 231.6 392.15 223.51 396.63 215.08 406.17 214.75"/>
  <polygon class="st6" points="956.32 448.64 961.38 456.73 956.9 465.16 947.36 465.5 942.3 457.41 946.78 448.98 956.32 448.64"/>
  <polygon class="st6" points="739.07 400.78 744.13 408.87 739.65 417.3 730.11 417.64 725.05 409.54 729.53 401.12 739.07 400.78"/>
  <polygon class="st6" points="335.72 596.73 340.78 604.83 336.3 613.25 326.77 613.59 321.7 605.5 326.18 597.07 335.72 596.73"/>
  <polygon class="st6" points="452.38 375.71 457.44 383.81 452.96 392.23 443.42 392.57 438.36 384.48 442.84 376.05 452.38 375.71"/>
  <polygon class="st6" points="391.66 702.46 396.72 710.55 392.24 718.98 382.7 719.31 377.64 711.22 382.12 702.79 391.66 702.46"/>
  <polygon class="st6" points="654.36 816.93 659.42 825.02 654.94 833.45 645.4 833.79 640.34 825.69 644.82 817.26 654.36 816.93"/>
  <polygon class="st6" points="641.36 352.92 633.09 357.69 624.83 352.92 624.83 343.37 633.09 338.6 641.36 343.37 641.36 352.92"/>
  <polygon class="st6" points="569.56 564.91 574.62 573.01 570.14 581.44 560.6 581.77 555.54 573.68 560.02 565.25 569.56 564.91"/>
  <line class="st1" x1="333.72" y1="338.09" x2="285.19" y2="419.05"/>
  <line class="st1" x1="286.6" y1="415.71" x2="443.53" y2="384.14"/>
  <line class="st1" x1="634.99" y1="94.8" x2="625.69" y2="171.09"/>
  <line class="st1" x1="615.23" y1="179.52" x2="510.73" y2="166.68"/>
  <line class="st1" x1="549.73" y1="234.39" x2="616.73" y2="187.95"/>
  <line class="st1" x1="404.86" y1="229.91" x2="526.29" y2="252.75"/>
  <line class="st1" x1="489.45" y1="180.77" x2="409.97" y2="222.84"/>
  <circle class="st0" cx="395.93" cy="321.78" r="4.57"/>
  <circle class="st0" cx="583.51" cy="132.06" r="4.57"/>
  <circle class="st0" cx="433.41" cy="322.82" r="4.57"/>
  <line class="st1" x1="268.27" y1="505.67" x2="285.19" y2="419.05"/>
  <line class="st1" x1="449.71" y1="389.25" x2="560.02" y2="565.25"/>
  <circle class="st0" cx="467.39" cy="352.71" r="4.57"/>
  <line class="st1" x1="560.25" y1="251.22" x2="662.97" y2="272.77"/>
  <line class="st1" x1="951.84" y1="459.68" x2="913.84" y2="508.32"/>
  <circle class="st5" cx="284.49" cy="418.91" r="9.14"/>
  <line class="st1" x1="394.22" y1="471" x2="443.42" y2="392.57"/>
  <line class="st1" x1="282.45" y1="508.63" x2="375.42" y2="491.63"/>
  <line class="st1" x1="284.49" y1="692.95" x2="387.18" y2="500.13"/>
  <circle class="st0" cx="276.73" cy="462.36" r="4.57"/>
  <line class="st1" x1="569.56" y1="564.91" x2="611.5" y2="492.49"/>
  <line class="st1" x1="350" y1="339.66" x2="447.9" y2="378.68"/>
  <circle class="st0" cx="494.07" cy="460.02" r="4.57"/>
  <circle class="st0" cx="518.59" cy="500.32" r="4.57"/>
  <circle class="st0" cx="364.35" cy="400.07" r="4.57"/>
  <circle class="st0" cx="449.71" cy="201.81" r="4.57"/>
  <circle class="st0" cx="854.56" cy="523.04" r="4.57"/>
  <line class="st1" x1="327.7" y1="598.54" x2="266.56" y2="518.47"/>
  <circle class="st0" cx="411.69" cy="590.55" r="4.57"/>
  <circle class="st0" cx="699.33" cy="409.21" r="4.57"/>
  <line class="st1" x1="548.61" y1="261.99" x2="567.34" y2="311.03"/>
  <line class="st1" x1="575.61" y1="315.8" x2="644.89" y2="287.39"/>
  <line class="st1" x1="573.82" y1="323.56" x2="628.12" y2="345.08"/>
  <circle class="st0" cx="600.97" cy="334.32" r="4.57"/>
  <line class="st1" x1="391.75" y1="710.88" x2="474.6" y2="702.08"/>
  <line class="st1" x1="773.78" y1="523.62" x2="634.7" y2="482.98"/>
  <circle class="st0" cx="671.06" cy="494.79" r="4.57"/>
  <circle class="st0" cx="724.87" cy="509.33" r="4.57"/>
  <line class="st1" x1="601.84" y1="640.57" x2="570.14" y2="581.44"/>
  <line class="st1" x1="383.3" y1="706.48" x2="333.78" y2="608.74"/>
  <line class="st1" x1="381.01" y1="711.66" x2="286.74" y2="688.72"/>
  <circle class="st5" cx="433.18" cy="788.98" r="9.14"/>
  <polygon class="st6" points="342.8 772.31 353.32 789.14 344.01 806.66 324.17 807.36 313.65 790.53 322.96 773 342.8 772.31"/>
  <circle class="st0" cx="531.84" cy="846.55" r="4.57"/>
  <circle class="st0" cx="619.09" cy="669.62" r="4.57"/>
  <circle class="st0" cx="309.45" cy="646.08" r="4.57"/>
  <circle class="st0" cx="388.38" cy="789.31" r="4.57"/>
  <circle class="st0" cx="361.37" cy="548.6" r="4.57"/>
  <line class="st1" x1="1242.77" y1="1855.43" x2="1323.45" y2="1855.43"/>
  <line class="st1" x1="1238.82" y1="1854.6" x2="1182.5" y2="1776.5"/>
  <line class="st1" x1="1011.73" y1="1478.39" x2="1046.09" y2="1530.21"/>
  <line class="st1" x1="1139.86" y1="1708.22" x2="1106.92" y2="1638.96"/>
  <line class="st1" x1="1289.52" y1="1542.86" x2="1387.51" y2="1484.53"/>
  <line class="st1" x1="1398.03" y1="1741.73" x2="1433.89" y2="1673.87"/>
  <line class="st1" x1="1273.05" y1="1565.75" x2="1174.97" y2="1638.96"/>
  <line class="st1" x1="1106.92" y1="1638.96" x2="1147.38" y2="1566.27"/>
  <line class="st1" x1="1066.69" y1="1462.66" x2="1110.14" y2="1532.55"/>
  <line class="st1" x1="1063.29" y1="1538.96" x2="1110.02" y2="1637.38"/>
  <line class="st1" x1="1233.18" y1="1323.56" x2="1200.25" y2="1254.3"/>
  <line class="st1" x1="1382.48" y1="1487.25" x2="1284.49" y2="1428.91"/>
  <line class="st1" x1="1398.95" y1="1510.13" x2="1299.76" y2="1583.34"/>
  <line class="st1" x1="1106.92" y1="1638.96" x2="1012.39" y2="1583.05"/>
  <line class="st1" x1="1176.43" y1="1406.83" x2="1106.92" y2="1479.89"/>
  <line class="st1" x1="1166.28" y1="1333.56" x2="1139.86" y2="1389.25"/>
  <line class="st1" x1="1076.47" y1="1338.02" x2="1043.49" y2="1388.18"/>
  <line class="st1" x1="1139.86" y1="1394.35" x2="1053.01" y2="1384.14"/>
  <line class="st1" x1="1206.15" y1="1181.43" x2="1137.9" y2="1099.09"/>
  <polygon class="st1" points="1064.08 1297.08 1028.82 1358.14 1064.08 1419.21 1134.59 1419.21 1169.85 1358.14 1134.59 1297.08 1064.08 1297.08"/>
  <polygon class="st1" points="1201.17 1649.09 1130.66 1649.09 1095.4 1710.15 1130.66 1771.22 1201.17 1771.22 1236.43 1710.15 1201.17 1649.09"/>
  <line class="st1" x1="1139.65" y1="1427.3" x2="1192.92" y2="1534.69"/>
  <line class="st1" x1="1091.39" y1="1334.37" x2="1131.84" y2="1405.72"/>
  <line class="st1" x1="1134.47" y1="1275.38" x2="1091.88" y2="1326.72"/>
  <line class="st1" x1="1081.92" y1="1332.78" x2="958.92" y2="1332.86"/>
  <line class="st1" x1="1097.03" y1="1583.34" x2="939.22" y2="1615.16"/>
  <line class="st1" x1="1094.3" y1="1584.01" x2="1159.27" y2="1583.34"/>
  <line class="st1" x1="1130.45" y1="1647.46" x2="1096.96" y2="1585.81"/>
  <line class="st1" x1="892.74" y1="1533.04" x2="790.33" y2="1533.04"/>
  <line class="st1" x1="1131.84" y1="1843.45" x2="1131.84" y2="1773.29"/>
  <line class="st1" x1="1131.84" y1="1913.61" x2="1131.84" y2="1843.45"/>
  <line class="st1" x1="1187.8" y1="2100.2" x2="1401.73" y2="2096.49"/>
  <line class="st1" x1="1135.34" y1="1252.58" x2="1101.85" y2="1190.92"/>
  <line class="st1" x1="1143.42" y1="1095.66" x2="1102.37" y2="1162.35"/>
  <line class="st4" x1="560.15" y1="1896.02" x2="560.15" y2="1830.4"/>
  <g>
    <g>
      <path class="st4" d="M596.27,2049.34v-122.56l6.78-6.83c5.14-5.18,4.29-13.47-1.82-17.61-6.55-4.44-14.48-6.65-22.52-6.29l-38.65-.04c-13.86,1.79-16.7,4.56-21.89,8.54-6.57,5.04-5.74,14.78,1.6,18.75l6.39,3.46v120.55c1.21-.38,2.56-.58,3.97-.66"/>
      <line class="st4" x1="567.18" y1="2011.49" x2="526.29" y2="2011.49"/>
      <line class="st4" x1="567.18" y1="1977.23" x2="526.29" y2="1977.23"/>
      <polygon class="st7" points="596.26 1928.85 556.63 1927.38 596.26 1925.9 596.26 1928.85 596.26 1928.85"/>
      <path class="st7" d="M592.83,1912.08c-10.3,1.18-21.07,1.4-31.45,1.47-10.38-.07-21.14-.29-31.45-1.47,10.3-1.18,21.07-1.4,31.45-1.47,10.38.07,21.14.29,31.45,1.47h0Z"/>
    </g>
    <path class="st4" d="M529.01,2048.74c-45.9,14.46-79.24,57.97-79.24,109.4,0,63.24,50.41,114.51,112.59,114.51s112.59-51.27,112.59-114.51c0-51.91-33.97-95.75-80.53-109.79"/>
    <line class="st4" x1="570.82" y1="2046.91" x2="529.94" y2="2046.91"/>
    <line class="st4" x1="519.99" y1="2080.39" x2="479.11" y2="2080.39"/>
    <line class="st2" x1="500.05" y1="2111.44" x2="293.3" y2="2111.44"/>
    <line class="st4" x1="490.65" y1="2173.54" x2="449.77" y2="2173.54"/>
    <line class="st4" x1="499.55" y1="2204.59" x2="458.66" y2="2204.59"/>
    <line class="st4" x1="522.13" y1="2235.64" x2="481.24" y2="2235.64"/>
    <line class="st4" x1="450.63" y1="2143.94" x2="490.65" y2="2143.94"/>
  </g>
  <line class="st1" x1="1400.87" y1="2218.8" x2="1460.01" y2="2109.82"/>
  <g>
    <g>
      <path class="st3" d="M495.05,1956.06v108.46c0,5.38-1.69,10.63-4.82,15l-117.65,164.01c-4.73,6.59-7.27,14.49-7.27,22.6h0c0,9.15,5.68,17.34,14.25,20.54l18.43,6.88c91.6,34.21,192.87,31.74,282.7-6.89l5.19-2.23c9.55-4.11,15.74-13.51,15.74-23.91v-3.87c0-9.13-2.94-18.02-8.39-25.34l-116.02-155.94c-3.02-4.06-4.66-8.99-4.66-14.06v-104.7c0-4.94,1.87-9.71,5.23-13.33l6.21-6.7c4.99-5.38,4.94-13.71-.11-19.03l-1.28-1.35c-7.59-8.02-18.15-12.56-29.19-12.56h-42.33c-10.29,0-20.17,4.01-27.56,11.17l-.25.24c-4.87,4.72-5.36,12.28-1.19,17.54l8.51,10.74c2.88,3.63,4.44,8.13,4.44,12.76Z"/>
      <polygon class="st7" points="572.23 1949.76 528.26 1948.14 572.23 1946.52 572.23 1949.76 572.23 1949.76"/>
      <path class="st7" d="M568.42,1924.95c-11.43,1.29-23.38,1.54-34.89,1.62-11.52-.07-23.45-.32-34.89-1.62,11.43-1.3,23.38-1.54,34.89-1.62,11.52.08,23.45.32,34.89,1.62h0Z"/>
    </g>
    <line class="st3" x1="518.38" y1="2100.36" x2="473.01" y2="2100.36"/>
    <line class="st3" x1="489.18" y1="2141.02" x2="443.81" y2="2141.02"/>
    <line class="st3" x1="466.49" y1="2181.69" x2="421.13" y2="2181.69"/>
    <line class="st3" x1="430.69" y1="2228.05" x2="385.32" y2="2228.05"/>
    <line class="st3" x1="541.06" y1="2059.69" x2="495.69" y2="2059.69"/>
    <line class="st3" x1="541.06" y1="2019.03" x2="495.69" y2="2019.03"/>
    <line class="st3" x1="541.06" y1="1981.65" x2="495.69" y2="1981.65"/>
  </g>
  <line class="st1" x1="621.21" y1="1085.66" x2="551.05" y2="1085.66"/>
  <polygon class="st6" points="503.38 1149.08 513.91 1165.91 504.59 1183.44 484.76 1184.14 474.23 1167.31 483.55 1149.78 503.38 1149.08"/>
  <polygon class="st6" points="549.73 1234.39 560.25 1251.22 550.94 1268.74 531.1 1269.44 520.58 1252.61 529.89 1235.08 549.73 1234.39"/>
  <polygon class="st6" points="350.55 1306.03 361.07 1322.86 351.76 1340.39 331.92 1341.09 321.4 1324.26 330.71 1306.73 350.55 1306.03"/>
  <polygon class="st6" points="625.91 1464.59 636.43 1481.42 627.12 1498.95 607.28 1499.65 596.76 1482.82 606.07 1465.29 625.91 1464.59"/>
  <polygon class="st6" points="672.29 1269.86 682.81 1286.7 673.5 1304.22 653.66 1304.92 643.14 1288.09 652.45 1270.56 672.29 1269.86"/>
  <polygon class="st6" points="778.53 1329.35 789.05 1346.18 779.74 1363.71 759.9 1364.41 749.38 1347.57 758.69 1330.05 778.53 1329.35"/>
  <polygon class="st6" points="802.93 1505.4 813.46 1522.23 804.14 1539.76 784.31 1540.45 773.78 1523.62 783.1 1506.09 802.93 1505.4"/>
  <polygon class="st6" points="915.79 1504.29 926.31 1521.12 917 1538.65 897.16 1539.34 886.64 1522.51 895.95 1504.98 915.79 1504.29"/>
  <polygon class="st6" points="610.89 1621.56 621.41 1638.39 612.1 1655.92 592.26 1656.61 581.74 1639.78 591.05 1622.26 610.89 1621.56"/>
  <polygon class="st6" points="395.77 1468.64 409.12 1483.33 403.08 1502.23 383.68 1506.45 370.33 1491.76 376.38 1472.85 395.77 1468.64"/>
  <polygon class="st6" points="271.92 1491.8 282.45 1508.63 273.13 1526.16 253.3 1526.86 242.77 1510.03 252.09 1492.5 271.92 1491.8"/>
  <polygon class="st6" points="293.81 1675.42 304.33 1692.25 295.01 1709.78 275.18 1710.48 264.65 1693.65 273.97 1676.12 293.81 1675.42"/>
  <polygon class="st6" points="503.38 1684.55 513.91 1701.38 504.59 1718.91 484.76 1719.61 474.23 1702.78 483.55 1685.25 503.38 1684.55"/>
  <polygon class="st6" points="645.74 1684.55 656.27 1701.38 646.95 1718.91 627.12 1719.61 616.59 1702.78 625.91 1685.25 645.74 1684.55"/>
  <polygon class="st6" points="611.15 1743.69 621.68 1760.52 612.36 1778.05 592.52 1778.75 582 1761.92 591.32 1744.39 611.15 1743.69"/>
  <polygon class="st6" points="796.85 2069.21 807.37 2086.04 798.06 2103.56 778.22 2104.26 767.7 2087.43 777.01 2069.9 796.85 2069.21"/>
  <polygon class="st6" points="632.84 1068.13 643.36 1084.96 634.05 1102.49 614.21 1103.18 603.69 1086.35 613 1068.83 632.84 1068.13"/>
  <polygon class="st6" points="870.59 3092.51 881.12 3109.34 871.8 3126.87 851.97 3127.57 841.44 3110.74 850.76 3093.21 870.59 3092.51"/>
  <circle class="st5" cx="487.5" cy="1321" r="9.14"/>
  <circle class="st5" cx="529.42" cy="1394.35" r="9.14"/>
  <circle class="st5" cx="664.08" cy="1409.21" r="9.14"/>
  <circle class="st5" cx="732.66" cy="1297.39" r="9.14"/>
  <circle class="st5" cx="759.38" cy="1457.07" r="9.14"/>
  <circle class="st5" cx="496.64" cy="1573.34" r="9.14"/>
  <circle class="st5" cx="238.11" cy="1606.63" r="9.14"/>
  <circle class="st5" cx="531.84" cy="1649.09" r="9.14"/>
  <circle class="st5" cx="531.84" cy="1759.07" r="9.14"/>
  <circle class="st5" cx="800.87" cy="2218.8" r="9.14"/>
  <circle class="st5" cx="544.83" cy="1095.66" r="9.14"/>
  <polygon class="st6" points="625.69 1181.09 630.75 1189.19 626.27 1197.61 616.73 1197.95 611.67 1189.86 616.15 1181.43 625.69 1181.09"/>
  <polygon class="st6" points="567.34 1311.03 575.61 1315.8 575.61 1325.34 567.34 1330.12 559.08 1325.34 559.08 1315.8 567.34 1311.03"/>
  <polygon class="st6" points="406.17 1224.75 411.23 1232.84 406.75 1241.27 397.21 1241.6 392.15 1233.51 396.63 1225.08 406.17 1224.75"/>
  <polygon class="st6" points="956.32 1458.64 961.38 1466.73 956.9 1475.16 947.36 1475.5 942.3 1467.41 946.78 1458.98 956.32 1458.64"/>
  <polygon class="st6" points="739.07 1410.78 744.13 1418.87 739.65 1427.3 730.11 1427.64 725.05 1419.54 729.53 1411.12 739.07 1410.78"/>
  <polygon class="st6" points="335.72 1606.73 340.78 1614.83 336.3 1623.25 326.77 1623.59 321.7 1615.5 326.18 1607.07 335.72 1606.73"/>
  <polygon class="st6" points="452.38 1385.71 457.44 1393.81 452.96 1402.23 443.42 1402.57 438.36 1394.48 442.84 1386.05 452.38 1385.71"/>
  <polygon class="st6" points="391.66 1712.46 396.72 1720.55 392.24 1728.98 382.7 1729.31 377.64 1721.22 382.12 1712.79 391.66 1712.46"/>
  <polygon class="st6" points="654.36 1826.93 659.42 1835.02 654.94 1843.45 645.4 1843.79 640.34 1835.69 644.82 1827.26 654.36 1826.93"/>
  <polygon class="st6" points="641.36 1362.92 633.09 1367.69 624.83 1362.92 624.83 1353.37 633.09 1348.6 641.36 1353.37 641.36 1362.92"/>
  <polygon class="st6" points="569.56 1574.91 574.62 1583.01 570.14 1591.44 560.6 1591.77 555.54 1583.68 560.02 1575.25 569.56 1574.91"/>
  <line class="st1" x1="333.72" y1="1348.09" x2="285.19" y2="1429.05"/>
  <line class="st1" x1="286.6" y1="1425.71" x2="443.53" y2="1394.14"/>
  <line class="st1" x1="634.99" y1="1104.8" x2="625.69" y2="1181.09"/>
  <line class="st1" x1="615.23" y1="1189.52" x2="510.73" y2="1176.68"/>
  <line class="st1" x1="549.73" y1="1244.39" x2="616.73" y2="1197.95"/>
  <line class="st1" x1="404.86" y1="1239.91" x2="526.29" y2="1262.75"/>
  <line class="st1" x1="489.45" y1="1190.77" x2="409.97" y2="1232.84"/>
  <circle class="st0" cx="395.93" cy="1331.78" r="4.57"/>
  <circle class="st0" cx="583.51" cy="1142.06" r="4.57"/>
  <circle class="st0" cx="433.41" cy="1332.82" r="4.57"/>
  <line class="st1" x1="268.27" y1="1515.67" x2="285.19" y2="1429.05"/>
  <line class="st1" x1="449.71" y1="1399.25" x2="560.02" y2="1575.25"/>
  <circle class="st0" cx="467.39" cy="1362.71" r="4.57"/>
  <line class="st1" x1="560.25" y1="1261.22" x2="662.97" y2="1282.77"/>
  <line class="st1" x1="951.84" y1="1469.68" x2="913.84" y2="1518.32"/>
  <circle class="st5" cx="284.49" cy="1428.91" r="9.14"/>
  <line class="st1" x1="394.22" y1="1481" x2="443.42" y2="1402.57"/>
  <line class="st1" x1="282.45" y1="1518.63" x2="375.42" y2="1501.63"/>
  <line class="st1" x1="284.49" y1="1702.95" x2="387.18" y2="1510.13"/>
  <circle class="st0" cx="276.73" cy="1472.36" r="4.57"/>
  <line class="st1" x1="569.56" y1="1574.91" x2="611.5" y2="1502.49"/>
  <line class="st1" x1="350" y1="1349.66" x2="447.9" y2="1388.68"/>
  <circle class="st0" cx="494.07" cy="1470.02" r="4.57"/>
  <circle class="st0" cx="518.59" cy="1510.32" r="4.57"/>
  <circle class="st0" cx="364.35" cy="1410.07" r="4.57"/>
  <circle class="st0" cx="449.71" cy="1211.81" r="4.57"/>
  <circle class="st0" cx="854.56" cy="1533.04" r="4.57"/>
  <line class="st1" x1="327.7" y1="1608.54" x2="266.56" y2="1528.47"/>
  <circle class="st0" cx="411.69" cy="1600.55" r="4.57"/>
  <circle class="st0" cx="699.33" cy="1419.21" r="4.57"/>
  <line class="st1" x1="548.61" y1="1271.99" x2="567.34" y2="1321.03"/>
  <line class="st1" x1="575.61" y1="1315.8" x2="644.89" y2="1297.39"/>
  <line class="st1" x1="573.82" y1="1333.56" x2="628.12" y2="1355.08"/>
  <circle class="st0" cx="600.97" cy="1344.32" r="4.57"/>
  <line class="st1" x1="391.75" y1="1720.88" x2="474.6" y2="1712.08"/>
  <line class="st1" x1="773.78" y1="1533.62" x2="634.7" y2="1492.98"/>
  <circle class="st0" cx="671.06" cy="1504.79" r="4.57"/>
  <circle class="st0" cx="724.87" cy="1519.33" r="4.57"/>
  <line class="st1" x1="601.84" y1="1650.57" x2="570.14" y2="1591.44"/>
  <line class="st1" x1="383.3" y1="1716.48" x2="333.78" y2="1618.74"/>
  <line class="st1" x1="381.01" y1="1721.66" x2="286.74" y2="1698.72"/>
  <circle class="st5" cx="433.18" cy="1798.98" r="9.14"/>
  <polygon class="st6" points="342.8 1782.31 353.32 1799.14 344.01 1816.66 324.17 1817.36 313.65 1800.53 322.96 1783 342.8 1782.31"/>
  <circle class="st0" cx="531.84" cy="1856.55" r="4.57"/>
  <circle class="st0" cx="619.09" cy="1679.62" r="4.57"/>
  <circle class="st0" cx="309.45" cy="1656.08" r="4.57"/>
  <circle class="st0" cx="388.38" cy="1799.31" r="4.57"/>
  <circle class="st0" cx="361.37" cy="1558.6" r="4.57"/>
  <line class="st1" x1="1242.77" y1="2855.43" x2="1323.45" y2="2855.43"/>
  <line class="st1" x1="1238.82" y1="2854.6" x2="1182.5" y2="2776.5"/>
  <line class="st1" x1="1011.73" y1="2478.39" x2="1046.09" y2="2530.21"/>
  <line class="st1" x1="1139.86" y1="2708.22" x2="1106.92" y2="2638.96"/>
  <line class="st1" x1="1289.52" y1="2542.86" x2="1387.51" y2="2484.53"/>
  <line class="st1" x1="1398.03" y1="2741.73" x2="1433.89" y2="2673.87"/>
  <line class="st1" x1="1273.05" y1="2565.75" x2="1174.97" y2="2638.96"/>
  <line class="st1" x1="1106.92" y1="2638.96" x2="1147.38" y2="2566.27"/>
  <line class="st1" x1="1066.69" y1="2462.66" x2="1110.14" y2="2532.55"/>
  <line class="st1" x1="1063.29" y1="2538.96" x2="1110.02" y2="2637.38"/>
  <line class="st1" x1="1233.18" y1="2323.56" x2="1200.25" y2="2254.3"/>
  <line class="st1" x1="1382.48" y1="2487.25" x2="1284.49" y2="2428.91"/>
  <line class="st1" x1="1398.95" y1="2510.13" x2="1299.76" y2="2583.34"/>
  <line class="st1" x1="1106.92" y1="2638.96" x2="1012.39" y2="2583.05"/>
  <line class="st1" x1="1176.43" y1="2406.83" x2="1106.92" y2="2479.89"/>
  <line class="st1" x1="1166.28" y1="2333.56" x2="1139.86" y2="2389.25"/>
  <line class="st1" x1="1076.47" y1="2338.02" x2="1043.49" y2="2388.18"/>
  <line class="st1" x1="1139.86" y1="2394.35" x2="1053.01" y2="2384.14"/>
  <line class="st1" x1="1206.15" y1="2181.43" x2="1137.9" y2="2099.09"/>
  <polygon class="st1" points="1064.08 2297.08 1028.82 2358.14 1064.08 2419.21 1134.59 2419.21 1169.85 2358.14 1134.59 2297.08 1064.08 2297.08"/>
  <polygon class="st1" points="1201.17 2649.09 1130.66 2649.09 1095.4 2710.15 1130.66 2771.22 1201.17 2771.22 1236.43 2710.15 1201.17 2649.09"/>
  <line class="st1" x1="1139.65" y1="2427.3" x2="1192.92" y2="2534.69"/>
  <line class="st1" x1="1091.39" y1="2334.37" x2="1131.84" y2="2405.72"/>
  <line class="st1" x1="1134.47" y1="2275.38" x2="1091.88" y2="2326.72"/>
  <line class="st1" x1="1081.92" y1="2332.78" x2="958.92" y2="2332.86"/>
  <line class="st1" x1="1097.03" y1="2583.34" x2="939.22" y2="2615.16"/>
  <line class="st1" x1="1094.3" y1="2584.01" x2="1159.27" y2="2583.34"/>
  <line class="st1" x1="1130.45" y1="2647.46" x2="1096.96" y2="2585.81"/>
  <line class="st1" x1="892.74" y1="2533.04" x2="790.33" y2="2533.04"/>
  <line class="st1" x1="1131.84" y1="2843.45" x2="1131.84" y2="2773.29"/>
  <line class="st1" x1="1131.84" y1="2913.61" x2="1131.84" y2="2843.45"/>
  <line class="st1" x1="1187.8" y1="3100.2" x2="1401.73" y2="3096.49"/>
  <line class="st1" x1="1135.34" y1="2252.58" x2="1101.85" y2="2190.92"/>
  <line class="st1" x1="1143.42" y1="2095.66" x2="1102.37" y2="2162.35"/>
  <line class="st4" x1="560.15" y1="2896.02" x2="560.15" y2="2830.4"/>
  <g>
    <g>
      <path class="st4" d="M596.27,3049.34v-122.56l6.78-6.83c5.14-5.18,4.29-13.47-1.82-17.61-6.55-4.44-14.48-6.65-22.52-6.29l-38.65-.04c-13.86,1.79-16.7,4.56-21.89,8.54-6.57,5.04-5.74,14.78,1.6,18.75l6.39,3.46v120.55c1.21-.38,2.56-.58,3.97-.66"/>
      <line class="st4" x1="567.18" y1="3011.49" x2="526.29" y2="3011.49"/>
      <line class="st4" x1="567.18" y1="2977.23" x2="526.29" y2="2977.23"/>
      <polygon class="st7" points="596.26 2928.85 556.63 2927.38 596.26 2925.9 596.26 2928.85 596.26 2928.85"/>
      <path class="st7" d="M592.83,2912.08c-10.3,1.18-21.07,1.4-31.45,1.47-10.38-.07-21.14-.29-31.45-1.47,10.3-1.18,21.07-1.4,31.45-1.47,10.38.07,21.14.29,31.45,1.47h0Z"/>
    </g>
    <path class="st4" d="M529.01,3048.74c-45.9,14.46-79.24,57.97-79.24,109.4,0,63.24,50.41,114.51,112.59,114.51s112.59-51.27,112.59-114.51c0-51.91-33.97-95.75-80.53-109.79"/>
    <line class="st4" x1="570.82" y1="3046.91" x2="529.94" y2="3046.91"/>
    <line class="st4" x1="519.99" y1="3080.39" x2="479.11" y2="3080.39"/>
    <line class="st2" x1="500.05" y1="3111.44" x2="293.3" y2="3111.44"/>
    <line class="st4" x1="490.65" y1="3173.54" x2="449.77" y2="3173.54"/>
    <line class="st4" x1="499.55" y1="3204.59" x2="458.66" y2="3204.59"/>
    <line class="st4" x1="522.13" y1="3235.64" x2="481.24" y2="3235.64"/>
    <line class="st4" x1="450.63" y1="3143.94" x2="490.65" y2="3143.94"/>
  </g>
</svg> 