<?xml version="1.0" encoding="UTF-8"?>
<svg id="Layer_1" xmlns="http://www.w3.org/2000/svg" version="1.1" viewBox="0 0 1627 3192.32">
  <!-- Generator: Adobe Illustrator 29.5.1, SVG Export Plug-In . SVG Version: 2.1.0 Build 141)  -->
  <defs>
    <style>
      .st0 {
        fill: #57789f;
      }

      .st1 {
        stroke-width: 1.25px;
      }

      .st1, .st2, .st3, .st4 {
        fill: none;
        stroke: #3a6289;
        stroke-miterlimit: 10;
      }

      .st2 {
        stroke-width: 1.67px;
      }

      .st5 {
        fill: #214b7b;
      }

      .st3 {
        stroke-width: 3.24px;
      }

      .st4 {
        stroke-width: 2.94px;
      }

      .st6 {
        fill: #395f8a;
      }

      .st7 {
        fill: #3a6289;
      }
    </style>
  </defs>
  <line class="st1" x1="429.23" y1="789.81" x2="348.54" y2="789.81"/>
  <line class="st1" x1="433.18" y1="788.98" x2="489.5" y2="710.88"/>
  <line class="st1" x1="660.27" y1="412.78" x2="625.91" y2="464.59"/>
  <line class="st1" x1="532.14" y1="642.6" x2="565.08" y2="573.34"/>
  <line class="st1" x1="382.48" y1="477.25" x2="284.49" y2="418.91"/>
  <line class="st1" x1="273.97" y1="676.12" x2="238.11" y2="608.26"/>
  <line class="st1" x1="398.95" y1="500.13" x2="497.03" y2="573.34"/>
  <line class="st1" x1="530.82" y1="396.83" x2="611.12" y2="469.89"/>
  <line class="st1" x1="570.97" y1="323.56" x2="531.84" y2="389.25"/>
  <line class="st1" x1="484.47" y1="328.02" x2="451.49" y2="378.18"/>
  <line class="st1" x1="525.67" y1="394.35" x2="453.01" y2="384.14"/>
  <line class="st1" x1="616.15" y1="171.43" x2="547.9" y2="89.09"/>
  <polygon class="st1" points="664.08 287.08 628.82 348.14 664.08 409.21 734.59 409.21 769.85 348.14 734.59 287.08 664.08 287.08"/>
  <polygon class="st1" points="601.17 639.09 530.66 639.09 495.4 700.15 530.66 761.22 601.17 761.22 636.43 700.15 601.17 639.09"/>
  <line class="st1" x1="739.65" y1="417.3" x2="792.92" y2="524.69"/>
  <line class="st1" x1="491.39" y1="324.37" x2="531.84" y2="395.72"/>
  <line class="st1" x1="534.47" y1="265.38" x2="491.88" y2="316.72"/>
  <line class="st1" x1="481.92" y1="322.78" x2="358.92" y2="322.86"/>
  <line class="st1" x1="497.03" y1="573.34" x2="339.22" y2="605.16"/>
  <line class="st1" x1="494.3" y1="574.01" x2="559.27" y2="573.34"/>
  <line class="st1" x1="530.45" y1="637.46" x2="496.96" y2="575.81"/>
  <line class="st1" x1="892.74" y1="523.04" x2="790.33" y2="523.04"/>
  <line class="st1" x1="531.84" y1="833.45" x2="531.84" y2="763.29"/>
  <line class="st1" x1="531.84" y1="903.61" x2="531.84" y2="833.45"/>
  <line class="st1" x1="587.8" y1="1090.2" x2="801.73" y2="1086.49"/>
  <line class="st1" x1="535.34" y1="242.58" x2="501.85" y2="180.92"/>
  <line class="st1" x1="543.42" y1="85.66" x2="502.37" y2="152.35"/>
  <line class="st4" x1="1140.15" y1="1896.02" x2="1140.15" y2="1830.4"/>
  <g>
    <g>
      <path class="st4" d="M1176.27,2049.34v-122.56l6.78-6.83c5.14-5.18,4.29-13.47-1.82-17.61-6.55-4.44-14.48-6.65-22.52-6.29l-38.65-.04c-13.86,1.79-16.7,4.56-21.89,8.54-6.57,5.04-5.74,14.78,1.6,18.75l6.39,3.46v120.55c1.21-.38,2.56-.58,3.97-.66"/>
      <line class="st4" x1="1147.18" y1="2011.49" x2="1106.29" y2="2011.49"/>
      <line class="st4" x1="1147.18" y1="1977.23" x2="1106.29" y2="1977.23"/>
      <polygon class="st7" points="1176.26 1928.85 1136.63 1927.38 1176.26 1925.9 1176.26 1928.85 1176.26 1928.85"/>
      <path class="st7" d="M1172.83,1912.08c-10.3,1.18-21.07,1.4-31.45,1.47-10.38-.07-21.14-.29-31.45-1.47,10.3-1.18,21.07-1.4,31.45-1.47,10.38.07,21.14.29,31.45,1.47h0Z"/>
    </g>
    <path class="st4" d="M1109.01,2048.74c-45.9,14.46-79.24,57.97-79.24,109.4,0,63.24,50.41,114.51,112.59,114.51s112.59-51.27,112.59-114.51c0-51.91-33.97-95.75-80.53-109.79"/>
    <line class="st4" x1="1150.82" y1="2046.91" x2="1109.94" y2="2046.91"/>
    <line class="st4" x1="1099.99" y1="2080.39" x2="1059.11" y2="2080.39"/>
    <line class="st2" x1="1080.05" y1="2111.44" x2="873.3" y2="2111.44"/>
    <line class="st4" x1="1070.65" y1="2173.54" x2="1029.77" y2="2173.54"/>
    <line class="st4" x1="1079.55" y1="2204.59" x2="1038.66" y2="2204.59"/>
    <line class="st4" x1="1102.13" y1="2235.64" x2="1061.24" y2="2235.64"/>
    <line class="st4" x1="1030.63" y1="2143.94" x2="1070.65" y2="2143.94"/>
  </g>
  <line class="st1" x1="800.87" y1="2218.8" x2="860.01" y2="2109.82"/>
  <g>
    <g>
      <path class="st3" d="M495.05,956.06v108.46c0,5.38-1.69,10.63-4.82,15l-117.65,164.01c-4.73,6.59-7.27,14.49-7.27,22.6h0c0,9.15,5.68,17.34,14.25,20.54l18.43,6.88c91.6,34.21,192.87,31.74,282.7-6.89l5.19-2.23c9.55-4.11,15.74-13.51,15.74-23.91v-3.87c0-9.13-2.94-18.02-8.39-25.34l-116.02-155.94c-3.02-4.06-4.66-8.99-4.66-14.06v-104.7c0-4.94,1.87-9.71,5.23-13.33l6.21-6.7c4.99-5.38,4.94-13.71-.11-19.03l-1.28-1.35c-7.59-8.02-18.15-12.56-29.19-12.56h-42.33c-10.29,0-20.17,4.01-27.56,11.17l-.25.24c-4.87,4.72-5.36,12.28-1.19,17.54l8.51,10.74c2.88,3.63,4.44,8.13,4.44,12.76Z"/>
      <polygon class="st7" points="572.23 949.76 528.26 948.14 572.23 946.52 572.23 949.76 572.23 949.76"/>
      <path class="st7" d="M568.42,924.95c-11.43,1.29-23.38,1.54-34.89,1.62-11.52-.07-23.45-.32-34.89-1.62,11.43-1.3,23.38-1.54,34.89-1.62,11.52.08,23.45.32,34.89,1.62h0Z"/>
    </g>
    <line class="st3" x1="518.38" y1="1100.36" x2="473.01" y2="1100.36"/>
    <line class="st3" x1="489.18" y1="1141.02" x2="443.81" y2="1141.02"/>
    <line class="st3" x1="466.49" y1="1181.69" x2="421.13" y2="1181.69"/>
    <line class="st3" x1="430.69" y1="1228.05" x2="385.32" y2="1228.05"/>
    <line class="st3" x1="541.06" y1="1059.69" x2="495.69" y2="1059.69"/>
    <line class="st3" x1="541.06" y1="1019.03" x2="495.69" y2="1019.03"/>
    <line class="st3" x1="541.06" y1="981.65" x2="495.69" y2="981.65"/>
  </g>
  <line class="st1" x1="621.21" y1="85.66" x2="551.05" y2="85.66"/>
  <polygon class="st6" points="503.38 149.08 513.91 165.91 504.59 183.44 484.76 184.14 474.23 167.31 483.55 149.78 503.38 149.08"/>
  <polygon class="st6" points="549.73 234.39 560.25 251.22 550.94 268.74 531.1 269.44 520.58 252.61 529.89 235.08 549.73 234.39"/>
  <polygon class="st6" points="350.55 306.03 361.07 322.86 351.76 340.39 331.92 341.09 321.4 324.26 330.71 306.73 350.55 306.03"/>
  <polygon class="st6" points="625.91 464.59 636.43 481.42 627.12 498.95 607.28 499.65 596.76 482.82 606.07 465.29 625.91 464.59"/>
  <polygon class="st6" points="672.29 269.86 682.81 286.7 673.5 304.22 653.66 304.92 643.14 288.09 652.45 270.56 672.29 269.86"/>
  <polygon class="st6" points="778.53 329.35 789.05 346.18 779.74 363.71 759.9 364.41 749.38 347.57 758.69 330.05 778.53 329.35"/>
  <polygon class="st6" points="802.93 505.4 813.46 522.23 804.14 539.76 784.31 540.45 773.78 523.62 783.1 506.09 802.93 505.4"/>
  <polygon class="st6" points="915.79 504.29 926.31 521.12 917 538.65 897.16 539.34 886.64 522.51 895.95 504.98 915.79 504.29"/>
  <polygon class="st6" points="610.89 621.56 621.41 638.39 612.1 655.92 592.26 656.61 581.74 639.78 591.05 622.26 610.89 621.56"/>
  <polygon class="st6" points="395.77 468.64 409.12 483.33 403.08 502.23 383.68 506.45 370.33 491.76 376.38 472.85 395.77 468.64"/>
  <polygon class="st6" points="271.92 491.8 282.45 508.63 273.13 526.16 253.3 526.86 242.77 510.03 252.09 492.5 271.92 491.8"/>
  <polygon class="st6" points="293.81 675.42 304.33 692.25 295.01 709.78 275.18 710.48 264.65 693.65 273.97 676.12 293.81 675.42"/>
  <polygon class="st6" points="503.38 684.55 513.91 701.38 504.59 718.91 484.76 719.61 474.23 702.78 483.55 685.25 503.38 684.55"/>
  <polygon class="st6" points="645.74 684.55 656.27 701.38 646.95 718.91 627.12 719.61 616.59 702.78 625.91 685.25 645.74 684.55"/>
  <polygon class="st6" points="611.15 743.69 621.68 760.52 612.36 778.05 592.52 778.75 582 761.92 591.32 744.39 611.15 743.69"/>
  <polygon class="st6" points="796.85 1069.21 807.37 1086.04 798.06 1103.56 778.22 1104.26 767.7 1087.43 777.01 1069.9 796.85 1069.21"/>
  <polygon class="st6" points="632.84 68.13 643.36 84.96 634.05 102.49 614.21 103.18 603.69 86.35 613 68.83 632.84 68.13"/>
  <polygon class="st6" points="870.59 2092.51 881.12 2109.34 871.8 2126.87 851.97 2127.57 841.44 2110.74 850.76 2093.21 870.59 2092.51"/>
  <circle class="st5" cx="487.5" cy="321" r="9.14"/>
  <circle class="st5" cx="529.42" cy="394.35" r="9.14"/>
  <circle class="st5" cx="664.08" cy="409.21" r="9.14"/>
  <circle class="st5" cx="732.66" cy="287.39" r="9.14"/>
  <circle class="st5" cx="759.38" cy="457.07" r="9.14"/>
  <circle class="st5" cx="496.64" cy="573.34" r="9.14"/>
  <circle class="st5" cx="238.11" cy="606.63" r="9.14"/>
  <circle class="st5" cx="531.84" cy="639.09" r="9.14"/>
  <circle class="st5" cx="531.84" cy="759.07" r="9.14"/>
  <circle class="st5" cx="800.87" cy="2218.8" r="9.14"/>
  <circle class="st5" cx="544.83" cy="85.66" r="9.14"/>
  <polygon class="st6" points="625.69 171.09 630.75 179.19 626.27 187.61 616.73 187.95 611.67 179.86 616.15 171.43 625.69 171.09"/>
  <polygon class="st6" points="567.34 311.03 575.61 315.8 575.61 325.34 567.34 330.12 559.08 325.34 559.08 315.8 567.34 311.03"/>
  <polygon class="st6" points="406.17 214.75 411.23 222.84 406.75 231.27 397.21 231.6 392.15 223.51 396.63 215.08 406.17 214.75"/>
  <polygon class="st6" points="956.32 448.64 961.38 456.73 956.9 465.16 947.36 465.5 942.3 457.41 946.78 448.98 956.32 448.64"/>
  <polygon class="st6" points="739.07 400.78 744.13 408.87 739.65 417.3 730.11 417.64 725.05 409.54 729.53 401.12 739.07 400.78"/>
  <polygon class="st6" points="335.72 596.73 340.78 604.83 336.3 613.25 326.77 613.59 321.7 605.5 326.18 597.07 335.72 596.73"/>
  <polygon class="st6" points="452.38 375.71 457.44 383.81 452.96 392.23 443.42 392.57 438.36 384.48 442.84 376.05 452.38 375.71"/>
  <polygon class="st6" points="391.66 702.46 396.72 710.55 392.24 718.98 382.7 719.31 377.64 711.22 382.12 702.79 391.66 702.46"/>
  <polygon class="st6" points="654.36 816.93 659.42 825.02 654.94 833.45 645.4 833.79 640.34 825.69 644.82 817.26 654.36 816.93"/>
  <polygon class="st6" points="641.36 352.92 633.09 357.69 624.83 352.92 624.83 343.37 633.09 338.6 641.36 343.37 641.36 352.92"/>
  <polygon class="st6" points="569.56 564.91 574.62 573.01 570.14 581.44 560.6 581.77 555.54 573.68 560.02 565.25 569.56 564.91"/>
  <line class="st1" x1="333.72" y1="338.09" x2="285.19" y2="419.05"/>
  <line class="st1" x1="286.6" y1="415.71" x2="443.53" y2="384.14"/>
  <line class="st1" x1="634.99" y1="94.8" x2="625.69" y2="171.09"/>
  <line class="st1" x1="615.23" y1="179.52" x2="510.73" y2="166.68"/>
  <line class="st1" x1="549.73" y1="234.39" x2="616.73" y2="187.95"/>
  <line class="st1" x1="404.86" y1="229.91" x2="526.29" y2="252.75"/>
  <line class="st1" x1="489.45" y1="180.77" x2="409.97" y2="222.84"/>
  <circle class="st0" cx="395.93" cy="321.78" r="4.57"/>
  <circle class="st0" cx="583.51" cy="132.06" r="4.57"/>
  <circle class="st0" cx="433.41" cy="322.82" r="4.57"/>
  <line class="st1" x1="268.27" y1="505.67" x2="285.19" y2="419.05"/>
  <line class="st1" x1="449.71" y1="389.25" x2="560.02" y2="565.25"/>
  <circle class="st0" cx="467.39" cy="352.71" r="4.57"/>
  <line class="st1" x1="560.25" y1="251.22" x2="662.97" y2="272.77"/>
  <line class="st1" x1="951.84" y1="459.68" x2="913.84" y2="508.32"/>
  <circle class="st5" cx="284.49" cy="418.91" r="9.14"/>
  <line class="st1" x1="394.22" y1="471" x2="443.42" y2="392.57"/>
  <line class="st1" x1="282.45" y1="508.63" x2="375.42" y2="491.63"/>
  <line class="st1" x1="284.49" y1="692.95" x2="387.18" y2="500.13"/>
  <circle class="st0" cx="276.73" cy="462.36" r="4.57"/>
  <line class="st1" x1="569.56" y1="564.91" x2="611.5" y2="492.49"/>
  <line class="st1" x1="350" y1="339.66" x2="447.9" y2="378.68"/>
  <circle class="st0" cx="494.07" cy="460.02" r="4.57"/>
  <circle class="st0" cx="518.59" cy="500.32" r="4.57"/>
  <circle class="st0" cx="364.35" cy="400.07" r="4.57"/>
  <circle class="st0" cx="449.71" cy="201.81" r="4.57"/>
  <circle class="st0" cx="854.56" cy="523.04" r="4.57"/>
  <line class="st1" x1="327.7" y1="598.54" x2="266.56" y2="518.47"/>
  <circle class="st0" cx="411.69" cy="590.55" r="4.57"/>
  <circle class="st0" cx="699.33" cy="409.21" r="4.57"/>
  <line class="st1" x1="548.61" y1="261.99" x2="567.34" y2="311.03"/>
  <line class="st1" x1="575.61" y1="315.8" x2="644.89" y2="287.39"/>
  <line class="st1" x1="573.82" y1="323.56" x2="628.12" y2="345.08"/>
  <circle class="st0" cx="600.97" cy="334.32" r="4.57"/>
  <line class="st1" x1="391.75" y1="710.88" x2="474.6" y2="702.08"/>
  <line class="st1" x1="773.78" y1="523.62" x2="634.7" y2="482.98"/>
  <circle class="st0" cx="671.06" cy="494.79" r="4.57"/>
  <circle class="st0" cx="724.87" cy="509.33" r="4.57"/>
  <line class="st1" x1="601.84" y1="640.57" x2="570.14" y2="581.44"/>
  <line class="st1" x1="383.3" y1="706.48" x2="333.78" y2="608.74"/>
  <line class="st1" x1="381.01" y1="711.66" x2="286.74" y2="688.72"/>
  <circle class="st5" cx="433.18" cy="788.98" r="9.14"/>
  <polygon class="st6" points="342.8 772.31 353.32 789.14 344.01 806.66 324.17 807.36 313.65 790.53 322.96 773 342.8 772.31"/>
  <circle class="st0" cx="531.84" cy="846.55" r="4.57"/>
  <circle class="st0" cx="619.09" cy="669.62" r="4.57"/>
  <circle class="st0" cx="309.45" cy="646.08" r="4.57"/>
  <circle class="st0" cx="388.38" cy="789.31" r="4.57"/>
  <circle class="st0" cx="361.37" cy="548.6" r="4.57"/>
  <line class="st1" x1="1242.77" y1="1855.43" x2="1323.45" y2="1855.43"/>
  <line class="st1" x1="1238.82" y1="1854.6" x2="1182.5" y2="1776.5"/>
  <line class="st1" x1="1011.73" y1="1478.39" x2="1046.09" y2="1530.21"/>
  <line class="st1" x1="1139.86" y1="1708.22" x2="1106.92" y2="1638.96"/>
  <line class="st1" x1="1289.52" y1="1542.86" x2="1387.51" y2="1484.53"/>
  <line class="st1" x1="1398.03" y1="1741.73" x2="1433.89" y2="1673.87"/>
  <line class="st1" x1="1273.05" y1="1565.75" x2="1174.97" y2="1638.96"/>
  <line class="st1" x1="1141.18" y1="1462.44" x2="1060.88" y2="1535.5"/>
  <line class="st1" x1="1101.03" y1="1389.17" x2="1140.15" y2="1454.86"/>
  <line class="st1" x1="1187.53" y1="1393.64" x2="1220.51" y2="1443.79"/>
  <line class="st1" x1="1146.33" y1="1459.96" x2="1218.99" y2="1449.76"/>
  <line class="st1" x1="1055.85" y1="1237.04" x2="1124.1" y2="1154.71"/>
  <polygon class="st1" points="1007.92 1352.69 1043.18 1413.76 1007.92 1474.82 937.41 1474.82 902.15 1413.76 937.41 1352.69 1007.92 1352.69"/>
  <polygon class="st1" points="1070.82 1704.7 1141.34 1704.7 1176.59 1765.77 1141.34 1826.83 1070.82 1826.83 1035.57 1765.77 1070.82 1704.7"/>
  <line class="st1" x1="1180.6" y1="1389.98" x2="1140.15" y2="1461.33"/>
  <line class="st1" x1="1137.53" y1="1331" x2="1180.11" y2="1382.33"/>
  <line class="st1" x1="1190.07" y1="1388.4" x2="1313.08" y2="1388.48"/>
  <line class="st1" x1="1174.97" y1="1638.96" x2="1332.78" y2="1670.78"/>
  <line class="st1" x1="1177.69" y1="1639.63" x2="1112.73" y2="1638.96"/>
  <line class="st1" x1="1141.55" y1="1703.07" x2="1175.04" y2="1641.42"/>
  <line class="st1" x1="1136.66" y1="1308.19" x2="1170.15" y2="1246.54"/>
  <line class="st1" x1="1128.57" y1="1151.27" x2="1169.63" y2="1217.96"/>
  <line class="st1" x1="1050.79" y1="1151.27" x2="1120.95" y2="1151.27"/>
  <polygon class="st6" points="1168.61 1214.69 1158.09 1231.52 1167.4 1249.05 1187.24 1249.75 1197.76 1232.92 1188.45 1215.39 1168.61 1214.69"/>
  <polygon class="st6" points="1122.27 1300 1111.74 1316.83 1121.06 1334.36 1140.9 1335.06 1151.42 1318.23 1142.1 1300.7 1122.27 1300"/>
  <polygon class="st6" points="1321.45 1371.64 1310.93 1388.48 1320.24 1406 1340.08 1406.7 1350.6 1389.87 1341.29 1372.34 1321.45 1371.64"/>
  <polygon class="st6" points="1046.09 1530.21 1035.57 1547.04 1044.88 1564.57 1064.72 1565.26 1075.24 1548.43 1065.93 1530.91 1046.09 1530.21"/>
  <polygon class="st6" points="999.71 1335.48 989.19 1352.31 998.5 1369.84 1018.34 1370.54 1028.86 1353.71 1019.55 1336.18 999.71 1335.48"/>
  <polygon class="st6" points="893.47 1394.96 882.95 1411.79 892.26 1429.32 912.1 1430.02 922.62 1413.19 913.31 1395.66 893.47 1394.96"/>
  <polygon class="st6" points="896.4 1156.99 885.88 1173.82 895.19 1191.35 915.03 1192.04 925.55 1175.21 916.24 1157.69 896.4 1156.99"/>
  <polygon class="st6" points="1061.11 1687.17 1050.59 1704 1059.9 1721.53 1079.74 1722.23 1090.26 1705.4 1080.95 1687.87 1061.11 1687.17"/>
  <polygon class="st6" points="1276.22 1534.25 1262.87 1548.94 1268.92 1567.85 1288.32 1572.06 1301.67 1557.37 1295.62 1538.47 1276.22 1534.25"/>
  <polygon class="st6" points="1400.07 1557.42 1389.55 1574.25 1398.86 1591.77 1418.7 1592.47 1429.22 1575.64 1419.91 1558.11 1400.07 1557.42"/>
  <polygon class="st6" points="1378.19 1741.03 1367.67 1757.86 1376.98 1775.39 1396.82 1776.09 1407.34 1759.26 1398.03 1741.73 1378.19 1741.03"/>
  <polygon class="st6" points="1168.61 1750.16 1158.09 1766.99 1167.4 1784.52 1187.24 1785.22 1197.76 1768.39 1188.45 1750.86 1168.61 1750.16"/>
  <polygon class="st6" points="1061.11 1807.16 1050.59 1823.99 1059.9 1841.51 1079.74 1842.21 1090.26 1825.38 1080.95 1807.85 1061.11 1807.16"/>
  <polygon class="st6" points="1400.07 1081.1 1389.55 1097.93 1398.86 1115.46 1418.7 1116.16 1429.22 1099.33 1419.91 1081.8 1400.07 1081.1"/>
  <polygon class="st6" points="1039.16 1133.74 1028.63 1150.57 1037.95 1168.1 1057.79 1168.8 1068.31 1151.97 1058.99 1134.44 1039.16 1133.74"/>
  <circle class="st5" cx="1184.5" cy="1386.61" r="9.14"/>
  <circle class="st5" cx="1142.58" cy="1459.96" r="9.14"/>
  <circle class="st5" cx="1007.92" cy="1474.82" r="9.14"/>
  <circle class="st5" cx="939.34" cy="1353.01" r="9.14"/>
  <circle class="st5" cx="1175.36" cy="1638.96" r="9.14"/>
  <circle class="st5" cx="1433.89" cy="1672.25" r="9.14"/>
  <circle class="st5" cx="1140.15" cy="1704.7" r="9.14"/>
  <circle class="st5" cx="1140.15" cy="1824.68" r="9.14"/>
  <circle class="st5" cx="1127.17" cy="1151.27" r="9.14"/>
  <polygon class="st6" points="1046.31 1236.71 1041.25 1244.8 1045.73 1253.23 1055.27 1253.56 1060.33 1245.47 1055.85 1237.04 1046.31 1236.71"/>
  <polygon class="st6" points="1104.65 1376.64 1096.39 1381.41 1096.39 1390.96 1104.65 1395.73 1112.92 1390.96 1112.92 1381.41 1104.65 1376.64"/>
  <polygon class="st6" points="1265.83 1280.36 1260.77 1288.45 1265.25 1296.88 1274.79 1297.22 1279.85 1289.12 1275.37 1280.7 1265.83 1280.36"/>
  <polygon class="st6" points="932.93 1466.39 927.87 1474.49 932.35 1482.92 941.89 1483.25 946.95 1475.16 942.47 1466.73 932.93 1466.39"/>
  <polygon class="st6" points="1336.27 1662.35 1331.21 1670.44 1335.69 1678.87 1345.23 1679.2 1350.29 1671.11 1345.81 1662.68 1336.27 1662.35"/>
  <polygon class="st6" points="1219.62 1441.33 1214.56 1449.42 1219.03 1457.85 1228.57 1458.18 1233.63 1450.09 1229.15 1441.66 1219.62 1441.33"/>
  <polygon class="st6" points="1280.34 1768.07 1275.28 1776.16 1279.76 1784.59 1289.3 1784.93 1294.36 1776.83 1289.88 1768.41 1280.34 1768.07"/>
  <polygon class="st6" points="1030.64 1418.53 1038.9 1423.3 1047.17 1418.53 1047.17 1408.98 1038.9 1404.21 1030.64 1408.98 1030.64 1418.53"/>
  <polygon class="st6" points="1102.44 1630.53 1097.38 1638.62 1101.86 1647.05 1111.4 1647.39 1116.46 1639.29 1111.98 1630.86 1102.44 1630.53"/>
  <line class="st1" x1="1338.28" y1="1403.71" x2="1386.8" y2="1484.67"/>
  <line class="st1" x1="1385.39" y1="1481.32" x2="1228.47" y2="1449.76"/>
  <line class="st1" x1="1037.01" y1="1160.41" x2="1046.31" y2="1236.71"/>
  <line class="st1" x1="1056.77" y1="1245.14" x2="1161.27" y2="1232.29"/>
  <line class="st1" x1="1122.27" y1="1300" x2="1055.27" y2="1253.56"/>
  <line class="st1" x1="1267.14" y1="1295.52" x2="1145.7" y2="1318.36"/>
  <line class="st1" x1="1182.55" y1="1246.39" x2="1262.02" y2="1288.45"/>
  <circle class="st0" cx="1276.06" cy="1387.4" r="4.57"/>
  <circle class="st0" cx="1088.49" cy="1197.67" r="4.57"/>
  <circle class="st0" cx="1238.58" cy="1388.44" r="4.57"/>
  <line class="st1" x1="1403.73" y1="1571.28" x2="1386.8" y2="1484.67"/>
  <line class="st1" x1="1222.29" y1="1454.86" x2="1111.98" y2="1630.86"/>
  <circle class="st0" cx="1204.61" cy="1418.33" r="4.57"/>
  <line class="st1" x1="1111.74" y1="1316.83" x2="1009.02" y2="1338.39"/>
  <line class="st1" x1="608.71" y1="773.81" x2="646.71" y2="822.44"/>
  <circle class="st5" cx="1387.51" cy="1484.53" r="9.14"/>
  <line class="st1" x1="1277.78" y1="1536.61" x2="1228.57" y2="1458.18"/>
  <line class="st1" x1="1389.55" y1="1574.25" x2="1296.58" y2="1557.24"/>
  <line class="st1" x1="1387.51" y1="1758.56" x2="1284.82" y2="1565.75"/>
  <circle class="st0" cx="1395.27" cy="1527.97" r="4.57"/>
  <line class="st1" x1="1102.44" y1="1630.53" x2="1060.5" y2="1558.1"/>
  <line class="st1" x1="1322" y1="1405.28" x2="1224.09" y2="1444.29"/>
  <circle class="st0" cx="1177.93" cy="1525.64" r="4.57"/>
  <circle class="st0" cx="1153.4" cy="1565.94" r="4.57"/>
  <circle class="st0" cx="1307.64" cy="1465.68" r="4.57"/>
  <circle class="st0" cx="1222.29" cy="1267.42" r="4.57"/>
  <line class="st1" x1="1344.29" y1="1664.16" x2="1405.44" y2="1584.08"/>
  <circle class="st0" cx="1260.31" cy="1656.16" r="4.57"/>
  <circle class="st0" cx="972.66" cy="1474.82" r="4.57"/>
  <line class="st1" x1="1123.39" y1="1327.61" x2="1104.65" y2="1376.64"/>
  <line class="st1" x1="1096.39" y1="1381.41" x2="1027.11" y2="1353.01"/>
  <line class="st1" x1="1098.18" y1="1389.17" x2="1043.88" y2="1410.7"/>
  <circle class="st0" cx="1071.03" cy="1399.94" r="4.57"/>
  <line class="st1" x1="1280.25" y1="1776.5" x2="1197.4" y2="1767.69"/>
  <line class="st1" x1="1070.15" y1="1706.18" x2="1101.86" y2="1647.05"/>
  <line class="st1" x1="1288.7" y1="1772.1" x2="1338.21" y2="1674.35"/>
  <line class="st1" x1="1290.99" y1="1777.28" x2="1385.25" y2="1754.34"/>
  <circle class="st5" cx="1238.82" cy="1854.6" r="9.14"/>
  <polygon class="st6" points="1329.2 1837.92 1318.67 1854.75 1327.99 1872.28 1347.82 1872.98 1358.35 1856.15 1349.03 1838.62 1329.2 1837.92"/>
  <circle class="st0" cx="1048.73" cy="1741.08" r="4.57"/>
  <circle class="st0" cx="1362.54" cy="1711.69" r="4.57"/>
  <circle class="st0" cx="1283.62" cy="1854.93" r="4.57"/>
  <circle class="st0" cx="1310.63" cy="1614.21" r="4.57"/>
  <polygon class="st6" points="1433.72 1282.47 1423.19 1299.3 1432.51 1316.83 1452.34 1317.53 1462.87 1300.7 1453.55 1283.17 1433.72 1282.47"/>
  <circle class="st5" cx="1359.89" cy="1202.24" r="9.14"/>
  <polygon class="st6" points="1031.09 1757.34 1026.03 1765.43 1030.51 1773.86 1040.05 1774.2 1045.11 1766.1 1040.63 1757.67 1031.09 1757.34"/>
  <polygon class="st6" points="1256.33 1115.81 1253.44 1124.9 1259.87 1131.96 1269.19 1129.91 1272.09 1120.82 1265.65 1113.76 1256.33 1115.81"/>
  <line class="st1" x1="1128.98" y1="1151.27" x2="1254.5" y2="1123.77"/>
  <line class="st1" x1="1250.01" y1="1124.97" x2="1392.74" y2="1098.63"/>
  <line class="st1" x1="1184.5" y1="1221.35" x2="1262.76" y2="1129.09"/>
  <line class="st1" x1="1359.89" y1="1202.24" x2="1398.86" y2="1115.46"/>
  <line class="st1" x1="1359.89" y1="1202.24" x2="1269.19" y2="1129.91"/>
  <line class="st1" x1="1437.73" y1="1288.79" x2="1362.27" y2="1204.14"/>
  <line class="st1" x1="1455.54" y1="1293.55" x2="1417.72" y2="1108.47"/>
  <line class="st1" x1="1359.89" y1="1202.24" x2="1271.49" y2="1297.1"/>
  <line class="st1" x1="912.17" y1="1189.93" x2="1045.63" y2="1245.14"/>
  <line class="st1" x1="921.94" y1="1175.22" x2="1032.44" y2="1151.47"/>
  <line class="st1" x1="798.06" y1="1103.56" x2="888.73" y2="1175.22"/>
  <polygon class="st6" points="1170.01 1057.87 1167.12 1066.96 1173.55 1074.02 1182.87 1071.97 1185.77 1062.88 1179.34 1055.82 1170.01 1057.87"/>
  <line class="st1" x1="1127.17" y1="1151.27" x2="1176.44" y2="1067.71"/>
  <line class="st1" x1="1265.45" y1="1122.12" x2="1176.44" y2="1067.71"/>
  <circle class="st0" cx="1429.49" cy="1166.08" r="4.57"/>
  <circle class="st0" cx="1438.84" cy="1211.84" r="4.57"/>
  <circle class="st0" cx="841.02" cy="1137.52" r="4.57"/>
  <line class="st1" x1="479.86" y1="2965.67" x2="399.18" y2="2965.67"/>
  <line class="st1" x1="483.81" y1="2964.84" x2="540.13" y2="2886.74"/>
  <line class="st1" x1="710.9" y1="2588.63" x2="676.54" y2="2640.45"/>
  <line class="st1" x1="582.77" y1="2818.46" x2="615.71" y2="2749.2"/>
  <line class="st1" x1="433.11" y1="2653.1" x2="335.12" y2="2594.77"/>
  <line class="st1" x1="324.6" y1="2851.97" x2="288.74" y2="2784.12"/>
  <line class="st1" x1="449.58" y1="2675.99" x2="547.66" y2="2749.2"/>
  <line class="st1" x1="581.45" y1="2572.68" x2="661.75" y2="2645.74"/>
  <line class="st1" x1="621.6" y1="2499.42" x2="582.48" y2="2565.1"/>
  <line class="st1" x1="535.1" y1="2503.88" x2="502.12" y2="2554.03"/>
  <line class="st1" x1="576.3" y1="2570.21" x2="503.64" y2="2560"/>
  <line class="st1" x1="666.78" y1="2347.28" x2="598.53" y2="2264.95"/>
  <polygon class="st1" points="714.71 2462.93 679.45 2524 714.71 2585.07 785.22 2585.07 820.48 2524 785.22 2462.93 714.71 2462.93"/>
  <polygon class="st1" points="651.81 2814.94 581.29 2814.94 546.04 2876.01 581.29 2937.08 651.81 2937.08 687.06 2876.01 651.81 2814.94"/>
  <line class="st1" x1="790.28" y1="2593.16" x2="843.55" y2="2700.55"/>
  <line class="st1" x1="542.03" y1="2500.22" x2="582.48" y2="2571.58"/>
  <line class="st1" x1="585.1" y1="2441.24" x2="542.52" y2="2492.58"/>
  <line class="st1" x1="532.55" y1="2498.64" x2="409.55" y2="2498.72"/>
  <line class="st1" x1="547.66" y1="2749.2" x2="389.85" y2="2781.02"/>
  <line class="st1" x1="544.93" y1="2749.87" x2="609.9" y2="2749.2"/>
  <line class="st1" x1="581.08" y1="2813.32" x2="547.59" y2="2751.67"/>
  <line class="st1" x1="447.26" y1="2390.94" x2="388.69" y2="2316.08"/>
  <line class="st1" x1="582.48" y1="3009.31" x2="582.48" y2="2939.14"/>
  <line class="st1" x1="582.48" y1="3079.47" x2="582.48" y2="3009.31"/>
  <line class="st1" x1="585.97" y1="2418.43" x2="552.48" y2="2356.78"/>
  <line class="st1" x1="594.05" y1="2261.51" x2="553" y2="2328.2"/>
  <line class="st1" x1="671.84" y1="2261.51" x2="601.68" y2="2261.51"/>
  <polygon class="st6" points="554.02 2324.94 564.54 2341.77 555.22 2359.3 535.39 2359.99 524.86 2343.16 534.18 2325.63 554.02 2324.94"/>
  <polygon class="st6" points="600.36 2410.24 610.88 2427.07 601.57 2444.6 581.73 2445.3 571.21 2428.47 580.52 2410.94 600.36 2410.24"/>
  <polygon class="st6" points="401.18 2481.89 411.7 2498.72 402.39 2516.25 382.55 2516.94 372.03 2500.11 381.34 2482.58 401.18 2481.89"/>
  <polygon class="st6" points="676.54 2640.45 687.06 2657.28 677.75 2674.81 657.91 2675.51 647.39 2658.68 656.7 2641.15 676.54 2640.45"/>
  <polygon class="st6" points="722.92 2445.72 733.44 2462.55 724.13 2480.08 704.29 2480.78 693.77 2463.95 703.08 2446.42 722.92 2445.72"/>
  <polygon class="st6" points="829.16 2505.2 839.68 2522.03 830.37 2539.56 810.53 2540.26 800.01 2523.43 809.32 2505.9 829.16 2505.2"/>
  <polygon class="st6" points="853.57 2681.25 864.09 2698.08 854.77 2715.61 834.94 2716.31 824.41 2699.48 833.73 2681.95 853.57 2681.25"/>
  <polygon class="st6" points="391.19 2285.82 401.71 2302.65 392.4 2320.17 372.56 2320.87 362.04 2304.04 371.35 2286.51 391.19 2285.82"/>
  <polygon class="st6" points="661.52 2797.41 672.04 2814.24 662.73 2831.77 642.89 2832.47 632.37 2815.64 641.68 2798.11 661.52 2797.41"/>
  <polygon class="st6" points="446.41 2644.49 459.75 2659.18 453.71 2678.09 434.31 2682.3 420.96 2667.61 427.01 2648.71 446.41 2644.49"/>
  <polygon class="st6" points="322.56 2667.66 333.08 2684.49 323.77 2702.02 303.93 2702.71 293.41 2685.88 302.72 2668.36 322.56 2667.66"/>
  <polygon class="st6" points="344.44 2851.28 354.96 2868.11 345.65 2885.63 325.81 2886.33 315.29 2869.5 324.6 2851.97 344.44 2851.28"/>
  <polygon class="st6" points="554.02 2860.41 564.54 2877.24 555.22 2894.76 535.39 2895.46 524.86 2878.63 534.18 2861.1 554.02 2860.41"/>
  <polygon class="st6" points="696.38 2860.41 706.9 2877.24 697.58 2894.76 677.75 2895.46 667.22 2878.63 676.54 2861.1 696.38 2860.41"/>
  <polygon class="st6" points="661.78 2919.55 672.31 2936.38 662.99 2953.91 643.16 2954.6 632.63 2937.77 641.95 2920.24 661.78 2919.55"/>
  <polygon class="st6" points="683.47 2243.98 693.99 2260.81 684.68 2278.34 664.84 2279.04 654.32 2262.21 663.63 2244.68 683.47 2243.98"/>
  <circle class="st5" cx="538.13" cy="2496.86" r="9.14"/>
  <circle class="st5" cx="580.05" cy="2570.21" r="9.14"/>
  <circle class="st5" cx="714.71" cy="2585.07" r="9.14"/>
  <circle class="st5" cx="783.29" cy="2463.25" r="9.14"/>
  <circle class="st5" cx="810.01" cy="2632.93" r="9.14"/>
  <circle class="st5" cx="547.27" cy="2749.2" r="9.14"/>
  <circle class="st5" cx="288.74" cy="2782.49" r="9.14"/>
  <circle class="st5" cx="582.48" cy="2814.94" r="9.14"/>
  <circle class="st5" cx="582.48" cy="2934.93" r="9.14"/>
  <circle class="st5" cx="595.46" cy="2261.51" r="9.14"/>
  <polygon class="st6" points="676.32 2346.95 681.38 2355.04 676.9 2363.47 667.36 2363.81 662.3 2355.71 666.78 2347.28 676.32 2346.95"/>
  <polygon class="st6" points="617.98 2486.88 626.24 2491.65 626.24 2501.2 617.98 2505.97 609.71 2501.2 609.71 2491.65 617.98 2486.88"/>
  <polygon class="st6" points="456.8 2390.6 461.86 2398.69 457.38 2407.12 447.84 2407.46 442.78 2399.37 447.26 2390.94 456.8 2390.6"/>
  <polygon class="st6" points="438.92 2231.01 443.98 2239.11 439.5 2247.54 429.96 2247.87 424.9 2239.78 429.38 2231.35 438.92 2231.01"/>
  <polygon class="st6" points="789.7 2576.64 794.76 2584.73 790.28 2593.16 780.74 2593.49 775.68 2585.4 780.16 2576.97 789.7 2576.64"/>
  <polygon class="st6" points="386.35 2772.59 391.41 2780.68 386.94 2789.11 377.4 2789.45 372.34 2781.35 376.82 2772.92 386.35 2772.59"/>
  <polygon class="st6" points="503.01 2551.57 508.07 2559.66 503.59 2568.09 494.06 2568.43 489 2560.33 493.47 2551.9 503.01 2551.57"/>
  <polygon class="st6" points="442.29 2878.31 447.35 2886.41 442.87 2894.83 433.33 2895.17 428.27 2887.08 432.75 2878.65 442.29 2878.31"/>
  <polygon class="st6" points="704.99 2992.78 710.05 3000.88 705.57 3009.31 696.03 3009.64 690.97 3001.55 695.45 2993.12 704.99 2992.78"/>
  <polygon class="st6" points="691.99 2528.77 683.73 2533.54 675.46 2528.77 675.46 2519.23 683.73 2514.45 691.99 2519.23 691.99 2528.77"/>
  <polygon class="st6" points="620.19 2740.77 625.25 2748.86 620.77 2757.29 611.23 2757.63 606.17 2749.53 610.65 2741.11 620.19 2740.77"/>
  <line class="st1" x1="384.35" y1="2513.95" x2="335.82" y2="2594.91"/>
  <line class="st1" x1="337.24" y1="2591.56" x2="494.16" y2="2560"/>
  <line class="st1" x1="685.62" y1="2270.65" x2="676.32" y2="2346.95"/>
  <line class="st1" x1="665.86" y1="2355.38" x2="561.36" y2="2342.54"/>
  <line class="st1" x1="600.36" y1="2410.24" x2="667.36" y2="2363.81"/>
  <line class="st1" x1="455.49" y1="2405.77" x2="576.93" y2="2428.61"/>
  <line class="st1" x1="540.08" y1="2356.63" x2="460.6" y2="2398.69"/>
  <circle class="st0" cx="446.56" cy="2497.64" r="4.57"/>
  <circle class="st0" cx="634.14" cy="2307.91" r="4.57"/>
  <circle class="st0" cx="484.04" cy="2498.68" r="4.57"/>
  <line class="st1" x1="318.9" y1="2681.52" x2="335.82" y2="2594.91"/>
  <line class="st1" x1="500.34" y1="2565.1" x2="610.65" y2="2741.11"/>
  <circle class="st0" cx="518.02" cy="2528.57" r="4.57"/>
  <line class="st1" x1="610.88" y1="2427.07" x2="713.61" y2="2448.63"/>
  <line class="st1" x1="432.58" y1="2245.03" x2="389.6" y2="2288"/>
  <circle class="st5" cx="335.12" cy="2594.77" r="9.14"/>
  <line class="st1" x1="444.85" y1="2646.85" x2="494.06" y2="2568.43"/>
  <line class="st1" x1="333.08" y1="2684.49" x2="426.05" y2="2667.49"/>
  <line class="st1" x1="335.12" y1="2868.8" x2="437.81" y2="2675.99"/>
  <circle class="st0" cx="327.36" cy="2638.22" r="4.57"/>
  <line class="st1" x1="620.19" y1="2740.77" x2="662.13" y2="2668.35"/>
  <line class="st1" x1="400.63" y1="2515.52" x2="498.53" y2="2554.53"/>
  <circle class="st0" cx="544.7" cy="2635.88" r="4.57"/>
  <circle class="st0" cx="569.23" cy="2676.18" r="4.57"/>
  <circle class="st0" cx="414.99" cy="2575.92" r="4.57"/>
  <circle class="st0" cx="500.34" cy="2377.66" r="4.57"/>
  <circle class="st0" cx="420.86" cy="2357.19" r="4.57"/>
  <line class="st1" x1="378.33" y1="2774.4" x2="317.19" y2="2694.33"/>
  <circle class="st0" cx="462.32" cy="2766.41" r="4.57"/>
  <circle class="st0" cx="749.97" cy="2585.07" r="4.57"/>
  <line class="st1" x1="599.24" y1="2437.85" x2="617.98" y2="2486.88"/>
  <line class="st1" x1="626.24" y1="2491.65" x2="695.52" y2="2463.25"/>
  <line class="st1" x1="624.45" y1="2499.42" x2="678.75" y2="2520.94"/>
  <circle class="st0" cx="651.6" cy="2510.18" r="4.57"/>
  <line class="st1" x1="442.38" y1="2886.74" x2="525.23" y2="2877.93"/>
  <line class="st1" x1="824.41" y1="2699.48" x2="685.33" y2="2658.84"/>
  <circle class="st0" cx="721.69" cy="2670.65" r="4.57"/>
  <circle class="st0" cx="775.5" cy="2685.19" r="4.57"/>
  <line class="st1" x1="652.48" y1="2816.43" x2="620.77" y2="2757.29"/>
  <line class="st1" x1="433.93" y1="2882.34" x2="384.42" y2="2784.6"/>
  <line class="st1" x1="431.64" y1="2887.52" x2="337.37" y2="2864.58"/>
  <circle class="st5" cx="483.81" cy="2964.84" r="9.14"/>
  <polygon class="st6" points="393.43 2948.16 403.96 2964.99 394.64 2982.52 374.8 2983.22 364.28 2966.39 373.6 2948.86 393.43 2948.16"/>
  <circle class="st0" cx="582.48" cy="3022.4" r="4.57"/>
  <circle class="st0" cx="669.72" cy="2845.47" r="4.57"/>
  <circle class="st0" cx="360.09" cy="2821.93" r="4.57"/>
  <circle class="st0" cx="439.01" cy="2965.17" r="4.57"/>
  <circle class="st0" cx="412" cy="2724.46" r="4.57"/>
  <line class="st1" x1="659.34" y1="2949.66" x2="697.34" y2="2998.3"/>
  <line class="st1" x1="692.11" y1="2260.08" x2="800.87" y2="2218.8"/>
  <polygon class="st6" points="590.9 3091.81 582.81 3096.87 574.38 3092.39 574.05 3082.86 582.14 3077.8 590.57 3082.27 590.9 3091.81"/>
</svg>