<?xml version="1.0" encoding="UTF-8"?>
<svg id="Layer_1" data-name="Layer 1" xmlns="http://www.w3.org/2000/svg" viewBox="0 0 200 200">
  <defs>
    <style>
      .cls-1 {
        fill: #b3b3b3;
      }

      .cls-2 {
        fill: #fff;
      }
    </style>
  </defs>
  <path class="cls-1" d="M179.58,83.35v-.09h-.09v-.09h-.09v-.09h-.09v-.09h-.09v-.09h-.09v-.09h-.09v-.09h-.09v-.09h-.09v-.09h-.09v-.09h-.09v-.09h-.09v-.09h-.09v-.09h-.09v-.09h-.09v-.09h-.09v-.09h-.09v-.09h-.09v-.09h-.09v-.09h-.09v-.09h-.09v-.09h-.09v-.09h-.09v-.09h-.09v-.09h-.09v-.09h-.09v-.09h-.09v-.09h-.09v-.09h-.09v-.09h-.09v-.09h-.09v-.09h-.09v-.09h-.09v-.09h-.09v-.09h-.09v-.09h-.09v-.09h-.09v-.09h-.09v-.09h-.09v-.09h-.09v-.09h-.09v-.09h-.09v-.09h-.09v-.09h-.09v-.09h-.09v-.09h-.09v-.09h-.09v-.09h-.09v-.09h-.09v-.09h-.09v-.09h-.09v-.09h-.09v-.09h-.09v-.09h-.09v-.09h-.09v-.09h-.09v-.09h-.09v-.09h-.09v-.09h-.09v-.09h-.09v-.09h-.01l.07-1.68-.09-.07v-.02s-.09-.07-.09-.07v-.02s-.09-.07-.09-.07v-.02s-.09-.07-.09-.07v-.02s-.09-.07-.09-.07v-.02s-.09-.07-.09-.07v-.02s-.09-.07-.09-.07v-.02s-.09-.07-.09-.07v-.02s-.09-.07-.09-.07v-.02s-.09-.07-.09-.07v-.02s-.09-.07-.09-.07v-.02s-.09-.07-.09-.07v-.02s-.09-.07-.09-.07v-.02s-.09-.07-.09-.07v-.02s-.09-.07-.09-.07v-.02s-.09-.07-.09-.07v-.02s-.09-.07-.09-.07v-.02s-.09-.07-.09-.07v-.02s-.09-.07-.09-.07v-.02s-.09-.07-.09-.07v-.02s-.09-.07-.09-.07v-.02s-.09-.07-.09-.07v-.02s-.09-.07-.09-.07v-.02s-.09-.07-.09-.07v-.02s-.09-.07-.09-.07v-.02s-.09-.07-.09-.07v-.02s-.09-.07-.09-.07v-.02s-.09-.07-.09-.07v-.02s-.09-.07-.09-.07v-.02s-.09-.07-.09-.07v-.02s-.09-.07-.09-.07v-.02s-.09-.07-.09-.07v-.02s-.09-.07-.09-.07v-.02s-.09-.07-.09-.07v-.02s-.09-.07-.09-.07v-.02s-.09-.07-.09-.07v-.02s-.09-.07-.09-.07v-.02s-.09-.07-.09-.07v-.02s-.09-.07-.09-.07v-.02s-.09-.07-.09-.07v-.02s-.09-.07-.09-.07v-.02s-.09-.07-.09-.07v-.02s-.09-.07-.09-.07v-.02s-.09-.07-.09-.07v-.02s-.09-.07-.09-.07v-.02s-.09-.07-.09-.07v-.02s-.09-.07-.09-.07v-.02s-.09-.07-.09-.07v-.02s-.09-.07-.09-.07v-.02s-.09-.07-.09-.07v-.02s-.09-.07-.09-.07v-.02s-.09-.07-.09-.07v-.02s-.09-.07-.09-.07v-.02s-.09-.07-.09-.07v-.02s-.09-.07-.09-.07v-.02s-.09-.07-.09-.07v-.02s-.09-.07-.09-.07v-.02s-.09-.07-.09-.07v-.02s-.09-.07-.09-.07v-.02s-.09-.07-.09-.07v-.02s-.09-.07-.09-.07v-.02s-.09-.07-.09-.07v-.02s-.09-.07-.09-.07v-.02s-.09-.07-.09-.07v-.02s-.09-.07-.09-.07v-.02s-.09-.07-.09-.07v-.02s-.09-.07-.09-.07v-.02s-.09-.07-.09-.07v-.02s-.09-.07-.09-.07v-.02s-.09-.07-.09-.07v-.02s-.09-.07-.09-.07v-.02s-.09-.07-.09-.07v-.02s-.09-.07-.09-.07v-.02s-.09-.07-.09-.07v-.02s-.09-.07-.09-.07v-.02s-.09-.07-.09-.07v-.02s-.09-.07-.09-.07v-.02s-.09-.07-.09-.07v-.02s-.09-.07-.09-.07v-.02s-.09-.07-.09-.07v-.02s-.09-.07-.09-.07v-.02s-3.33-2.73-3.33-2.73l-.95-10.03-.08-.03v-.05s-.09-.03-.09-.03v-.05s-.09-.03-.09-.03v-.05s-.09-.03-.09-.03v-.05s-.09-.03-.09-.03v-.05s-.09-.03-.09-.03v-.05s-.09-.03-.09-.03v-.05s-.09-.03-.09-.03v-.05s-.09-.03-.09-.03v-.05s-.09-.03-.09-.03v-.05s-.09-.03-.09-.03v-.05s-.09-.03-.09-.03v-.05s-.09-.03-.09-.03v-.05s-.09-.03-.09-.03v-.05s-.09-.03-.09-.03v-.05s-.09-.03-.09-.03v-.05s-.09-.03-.09-.03v-.05s-.09-.03-.09-.03v-.05s-.09-.03-.09-.03v-.05s-.09-.03-.09-.03v-.05s-.09-.03-.09-.03v-.05s-.09-.03-.09-.03v-.05s-.09-.03-.09-.03v-.05s-.09-.03-.09-.03v-.05s-.09-.03-.09-.03v-.05s-.09-.03-.09-.03v-.05s-.09-.03-.09-.03v-.05s-.09-.03-.09-.03v-.05s-.09-.03-.09-.03v-.05s-.09-.03-.09-.03v-.05s-.09-.03-.09-.03v-.05s-.09-.03-.09-.03v-.05s-.09-.03-.09-.03v-.05s-.09-.03-.09-.03v-.05s-.09-.03-.09-.03v-.05s-.09-.03-.09-.03v-.05s-.09-.03-.09-.03v-.05s-.09-.03-.09-.03v-.05s-.09-.03-.09-.03v-.05s-.09-.03-.09-.03v-.05s-.09-.03-.09-.03v-.05s-.09-.03-.09-.03v-.05s-.09-.03-.09-.03v-.05s-.09-.03-.09-.03v-.05s-.09-.03-.09-.03v-.05s-.09-.03-.09-.03v-.05s-.09-.03-.09-.03v-.05s-.09-.03-.09-.03v-.05s-.09-.03-.09-.03v-.05s-.09-.03-.09-.03v-.05s-.09-.03-.09-.03v-.05s-.09-.03-.09-.03v-.05s-.09-.03-.09-.03v-.05s-.09-.03-.09-.03v-.05s-.09-.03-.09-.03v-.05s-.09-.03-.09-.03v-.05s-.09-.03-.09-.03v-.05s-.09-.03-.09-.03v-.05s-.09-.03-.09-.03v-.05s-.09-.03-.09-.03v-.05s-.09-.03-.09-.03v-.05s-.09-.03-.09-.03v-.05s-.09-.03-.09-.03v-.05s-.09-.03-.09-.03v-.05s-.09-.03-.09-.03v-.05s-.09-.03-.09-.03v-.05s-.09-.03-.09-.03v-.05s-.09-.03-.09-.03v-.05s-.09-.03-.09-.03v-.05s-.09-.03-.09-.03v-.05s-.09-.03-.09-.03v-.05s-.09-.03-.09-.03v-.05s-.09-.03-.09-.03v-.05s-.09-.03-.09-.03v-.05s-.09-.03-.09-.03v-.05s-.09-.03-.09-.03v-.05s-.09-.03-.09-.03v-.05s-.09-.03-.09-.03v-.05s-.09-.03-.09-.03v-.05s-.09-.03-.09-.03v-.05s-.09-.03-.09-.03v-.05s-7.55-3.1-7.55-3.1l-2.94-6.21h-.05s-.04-.09-.04-.09h-.05s-.04-.09-.04-.09h-.05s-.04-.09-.04-.09h-.05s-.04-.09-.04-.09h-.05s-.04-.09-.04-.09h-.05s-.04-.09-.04-.09h-.05s-.04-.09-.04-.09h-.05s-.04-.09-.04-.09h-.05s-.04-.09-.04-.09h-.05s-.04-.09-.04-.09h-.05s-.04-.09-.04-.09h-.05s-.04-.09-.04-.09h-.05s-.04-.09-.04-.09h-.05s-.04-.09-.04-.09h-.05s-.04-.09-.04-.09h-.05s-.04-.09-.04-.09h-.05s-.04-.09-.04-.09h-.05s-.04-.09-.04-.09h-.05s-.04-.09-.04-.09h-.05s-.04-.09-.04-.09h-.05s-.04-.09-.04-.09h-.05s-.04-.09-.04-.09h-.05s-.04-.09-.04-.09h-.05s-.04-.09-.04-.09h-.05s-.04-.09-.04-.09h-.05s-.04-.09-.04-.09h-.05s-.04-.09-.04-.09h-.05s-.04-.09-.04-.09h-.05s-.04-.09-.04-.09h-.05s-.04-.09-.04-.09h-.05s-.04-.09-.04-.09h-.05s-.04-.09-.04-.09h-.05s-.04-.09-.04-.09h-.05s-.04-.09-.04-.09h-.05s-.04-.09-.04-.09h-.05s-.04-.09-.04-.09h-.05s-.04-.09-.04-.09h-.05s-.04-.09-.04-.09h-.05s-.04-.09-.04-.09h-.05s-.04-.09-.04-.09h-.05s-.04-.09-.04-.09h-.05s-.04-.09-.04-.09h-.05s-.04-.09-.04-.09h-.05s-.04-.09-.04-.09h-.05s-.04-.09-.04-.09h-.05s-.04-.09-.04-.09h-.05s-.04-.09-.04-.09h-.05s-.04-.09-.04-.09h-.05s-.04-.09-.04-.09h-.05s-.04-.09-.04-.09h-.05s-.04-.09-.04-.09h-.05s-.04-.09-.04-.09h-.05s-.04-.09-.04-.09h-.05s-.04-.09-.04-.09h-.05s-.04-.09-.04-.09h-.05s-.04-.09-.04-.09h-.05s-.04-.09-.04-.09h-.05s-.04-.09-.04-.09h-.05s-.04-.09-.04-.09h-.05s-.04-.09-.04-.09h-.05s-.04-.09-.04-.09h-.05s-.04-.09-.04-.09h-.05s-.04-.09-.04-.09h-.05s-.04-.09-.04-.09h-.05s-.04-.09-.04-.09h-.05s-.04-.09-.04-.09h-.05s-.04-.09-.04-.09h-.05s-.04-.09-.04-.09h-.05s-.04-.09-.04-.09h-.05s-.04-.09-.04-.09h-.05s-.04-.09-.04-.09h-.05s-.04-.09-.04-.09h-.05s-.04-.09-.04-.09h-.05s-.04-.09-.04-.09h-.05s-.04-.09-.04-.09h-.05s-.04-.09-.04-.09h-.05s-.04-.09-.04-.09h-.05s-.04-.09-.04-.09h-.05s-.04-.09-.04-.09h-.05s-.04-.09-.04-.09h-.05s-.04-.09-.04-.09l-11.24-.46-2.01-2.25h0s-.08-.09-.08-.09h0s-.08-.09-.08-.09h0s-.08-.09-.08-.09h0s-.08-.09-.08-.09h0s-.08-.09-.08-.09h0s-.08-.09-.08-.09h0s-.08-.09-.08-.09h0s-.08-.09-.08-.09h0s-.08-.09-.08-.09h0s-.08-.09-.08-.09h0s-.08-.09-.08-.09h0s-.08-.09-.08-.09h0s-.08-.09-.08-.09h0s-.08-.09-.08-.09h0s-.08-.09-.08-.09h0s-.08-.09-.08-.09h0s-.08-.09-.08-.09h0s-.08-.09-.08-.09h0s-.08-.09-.08-.09h0s-.08-.09-.08-.09h0s-.08-.09-.08-.09h0s-.08-.09-.08-.09h0s-.08-.09-.08-.09h0s-.08-.09-.08-.09h0s-.08-.09-.08-.09h0s-.08-.09-.08-.09h0s-.08-.09-.08-.09h0s-.08-.09-.08-.09h0s-.08-.09-.08-.09h0s-.08-.09-.08-.09h0s-.08-.09-.08-.09h0s-.08-.09-.08-.09h0s-.08-.09-.08-.09h0s-.08-.09-.08-.09h0s-.08-.09-.08-.09h0s-.08-.09-.08-.09h0s-.08-.09-.08-.09h0s-.08-.09-.08-.09h0s-.08-.09-.08-.09h0s-.08-.09-.08-.09h0s-.08-.09-.08-.09h0s-.08-.09-.08-.09h0s-.08-.09-.08-.09h0s-.08-.09-.08-.09h0s-.08-.09-.08-.09h0s-.08-.09-.08-.09h0s-.08-.09-.08-.09h0s-.08-.09-.08-.09h0s-.08-.09-.08-.09h0s-.08-.09-.08-.09h0s-.08-.09-.08-.09h0s-.08-.09-.08-.09h0s-.08-.09-.08-.09h0s-.08-.09-.08-.09h0s-.08-.09-.08-.09h0s-.08-.09-.08-.09h0s-.08-.09-.08-.09h0s-.08-.09-.08-.09h0s-.08-.09-.08-.09h0s-.08-.09-.08-.09h0s-.08-.09-.08-.09h0s-.08-.09-.08-.09h0s-.08-.09-.08-.09h0s-.08-.09-.08-.09h0s-.08-.09-.08-.09h0s-.08-.09-.08-.09h0s-.08-.09-.08-.09h0s-.08-.09-.08-.09h0s-.08-.09-.08-.09h0s-.08-.09-.08-.09h0s-.08-.09-.08-.09h0s-.08-.09-.08-.09h0s-.08-.09-.08-.09h0s-.08-.09-.08-.09h0s-.08-.09-.08-.09h0s-.08-.09-.08-.09h0s-.08-.09-.08-.09h0s-.08-.09-.08-.09h0s-.08-.09-.08-.09h0s-.08-.09-.08-.09h0s-.08-.09-.08-.09l-13.3,2.56-9.85-5.81-10.73,6.11-11.92-3.15-9.06,9.65-12.71.59-6.01,11.72-10.93,4.43-1.68,11.82-9.65,8.27.65,6.97-6.56.12v42.55l.09.04v.04l.09.04v.04l.09.04v.04l.09.04v.04l.09.04v.04l.09.04v.04l.09.04v.04l.09.04v.04l.09.04v.04l.09.04v.04l.09.04v.04l.09.04v.04l.09.04v.04l.09.04v.04l.09.04v.04l.09.04v.04l.09.04v.04l.09.04v.04l.09.04v.04l.09.04v.04l.09.04v.04l.09.04v.04l.09.04v.04l.09.04v.04l.09.04v.04l.09.04v.04l.09.04v.04l.09.04v.04l.09.04v.04l.09.04v.04l.09.04v.04l.09.04v.04l.09.04v.04l.09.04v.04l.09.04v.04l.09.04v.04l.09.04v.04l.09.04v.04l.09.04v.04l.09.04v.04l.09.04v.04l.09.04v.04l.09.04v.04l.09.04v.04l.09.04v.04l.09.04v.04l.09.04v.04l.09.04v.04l.09.04v.04l.09.04v.04l.09.04v.04l.09.04v.04l.09.04v.04l.09.04v.04l.09.04v.04l.09.04v.04l.09.04v.04l.09.04v.04l.09.04v.04l.09.04v.04l.09.04v.04l.09.04v.04l.09.04v.04l.09.04v.04l.09.04v.04l.09.04v.04l.09.04v.04l.09.04v.04l.09.04v.04l.09.04v.04l.09.04v.04l.09.04v.04l.09.04v.04l.09.04v.04l.09.04v.04l.09.04v.04l.09.04v.04l.09.04v.04l.09.04v.04l.09.04v.04l.09.04v.04l3.24,1.65.36,9.43.09.05v.03s.09.05.09.05v.03s.09.05.09.05v.03s.09.05.09.05v.03s.09.05.09.05v.03s.09.05.09.05v.03s.09.05.09.05v.03s.09.05.09.05v.03s.09.05.09.05v.03s.09.05.09.05v.03s.09.05.09.05v.03s.09.05.09.05v.03s.09.05.09.05v.03s.09.05.09.05v.03s.09.05.09.05v.03s.09.05.09.05v.03s.09.05.09.05v.03s.09.05.09.05v.03s.09.05.09.05v.03s.09.05.09.05v.03s.09.05.09.05v.03s.09.05.09.05v.03s.09.05.09.05v.03s.09.05.09.05v.03s.09.05.09.05v.03s.09.05.09.05v.03s.09.05.09.05v.03s.09.05.09.05v.03s.09.05.09.05v.03s.09.05.09.05v.03s.09.05.09.05v.03s.09.05.09.05v.03s.09.05.09.05v.03s.09.05.09.05v.03s.09.05.09.05v.03s.09.05.09.05v.03s.09.05.09.05v.03s.09.05.09.05v.03s.09.05.09.05v.03s.09.05.09.05v.03s.09.05.09.05v.03s.09.05.09.05v.03s.09.05.09.05v.03s.09.05.09.05v.03s.09.05.09.05v.03s.09.05.09.05v.03s.09.05.09.05v.03s.09.05.09.05v.03s.09.05.09.05v.03s.09.05.09.05v.03s.09.05.09.05v.03s.09.05.09.05v.03s.09.05.09.05v.03s.09.05.09.05v.03s.09.05.09.05v.03s.09.05.09.05v.03s.09.05.09.05v.03s.09.05.09.05v.03s.09.05.09.05v.03s.09.05.09.05v.03s.09.05.09.05v.03s.09.05.09.05v.03s.09.05.09.05v.03s.09.05.09.05v.03s.09.05.09.05v.03s.09.05.09.05v.03s.09.05.09.05v.03s.09.05.09.05v.03s.09.05.09.05v.03s.09.05.09.05v.03s.09.05.09.05v.03s.09.05.09.05v.03s.09.05.09.05v.03s.09.05.09.05v.03s.09.05.09.05v.03s.09.05.09.05v.03s.09.05.09.05v.03s.09.05.09.05v.03s.09.05.09.05v.03s.09.05.09.05v.03s.09.05.09.05v.03s4.73,2.9,4.73,2.9l2.81,8.57h.06s.02.09.02.09h.06s.02.09.02.09h.06s.02.09.02.09h.06s.02.09.02.09h.06s.02.09.02.09h.06s.02.09.02.09h.06s.02.09.02.09h.06s.02.09.02.09h.06s.02.09.02.09h.06s.02.09.02.09h.06s.02.09.02.09h.06s.02.09.02.09h.06s.02.09.02.09h.06s.02.09.02.09h.06s.02.09.02.09h.06s.02.09.02.09h.06s.02.09.02.09h.06s.02.09.02.09h.06s.02.09.02.09h.06s.02.09.02.09h.06s.02.09.02.09h.06s.02.09.02.09h.06s.02.09.02.09h.06s.02.09.02.09h.06s.02.09.02.09h.06s.02.09.02.09h.06s.02.09.02.09h.06s.02.09.02.09h.06s.02.09.02.09h.06s.02.09.02.09h.06s.02.09.02.09h.06s.02.09.02.09h.06s.02.09.02.09h.06s.02.09.02.09h.06s.02.09.02.09h.06s.02.09.02.09h.06s.02.09.02.09h.06s.02.09.02.09h.06s.02.09.02.09h.06s.02.09.02.09h.06s.02.09.02.09h.06s.02.09.02.09h.06s.02.09.02.09h.06s.02.09.02.09h.06s.02.09.02.09h.06s.02.09.02.09h.06s.02.09.02.09h.06s.02.09.02.09h.06s.02.09.02.09h.06s.02.09.02.09h.06s.02.09.02.09h.06s.02.09.02.09h.06s.02.09.02.09h.06s.02.09.02.09h.06s.02.09.02.09h.06s.02.09.02.09h.06s.02.09.02.09h.06s.02.09.02.09h.06s.02.09.02.09h.06s.02.09.02.09h.06s.02.09.02.09h.06s.02.09.02.09h.06s.02.09.02.09h.06s.02.09.02.09h.06s.02.09.02.09h.06s.02.09.02.09h.06s.02.09.02.09h.06s.02.09.02.09h.06s.02.09.02.09h.06s.02.09.02.09h.06s.02.09.02.09h.06s.02.09.02.09h.06s.02.09.02.09h.06s.02.09.02.09h.06s.02.09.02.09h.06s.02.09.02.09h.06s.02.09.02.09h.06s.02.09.02.09h.06s.02.09.02.09h.06s.02.09.02.09h.06s.02.09.02.09l8.82,1.79,2.66,3.67h.02s.06.09.06.09h.02s.06.09.06.09h.02s.06.09.06.09h.02s.06.09.06.09h.02s.06.09.06.09h.02s.06.09.06.09h.02s.06.09.06.09h.02s.06.09.06.09h.02s.06.09.06.09h.02s.06.09.06.09h.02s.06.09.06.09h.02s.06.09.06.09h.02s.06.09.06.09h.02s.06.09.06.09h.02s.06.09.06.09h.02s.06.09.06.09h.02s.06.09.06.09h.02s.06.09.06.09h.02s.06.09.06.09h.02s.06.09.06.09h.02s.06.09.06.09h.02s.06.09.06.09h.02s.06.09.06.09h.02s.06.09.06.09h.02s.06.09.06.09h.02s.06.09.06.09h.02s.06.09.06.09h.02s.06.09.06.09h.02s.06.09.06.09h.02s.06.09.06.09h.02s.06.09.06.09h.02s.06.09.06.09h.02s.06.09.06.09h.02s.06.09.06.09h.02s.06.09.06.09h.02s.06.09.06.09h.02s.06.09.06.09h.02s.06.09.06.09h.02s.06.09.06.09h.02s.06.09.06.09h.02s.06.09.06.09h.02s.06.09.06.09h.02s.06.09.06.09h.02s.06.09.06.09h.02s.06.09.06.09h.02s.06.09.06.09h.02s.06.09.06.09h.02s.06.09.06.09h.02s.06.09.06.09h.02s.06.09.06.09h.02s.06.09.06.09h.02s.06.09.06.09h.02s.06.09.06.09h.02s.06.09.06.09h.02s.06.09.06.09h.02s.06.09.06.09h.02s.06.09.06.09h.02s.06.09.06.09h.02s.06.09.06.09h.02s.06.09.06.09h.02s.06.09.06.09h.02s.06.09.06.09h.02s.06.09.06.09h.02s.06.09.06.09h.02s.06.09.06.09h.02s.06.09.06.09h.02s.06.09.06.09h.02s.06.09.06.09h.02s.06.09.06.09h.02s.06.09.06.09h.02s.06.09.06.09h.02s.06.09.06.09h.02s.06.09.06.09h.02s.06.09.06.09h.02s.06.09.06.09h.02s.06.09.06.09h.02s.06.09.06.09h.02s.06.09.06.09h.02s.06.09.06.09h.02s.06.09.06.09h.02s.06.09.06.09l13.2-.49,10.05,6.99,11.03-4.14,11.33,4.14,9.75-6.8,12.9.39,7.29-10.44,12.51-3.15,3.15-11.03,11.03-6.5.1-13,10.05-4.82v-43.26h-.09ZM34.61,110.23v-2.27h.32c.04.05.08.11.13.15.03.03.06.06.09.09.03.03.06.06.09.09.03.03.06.06.09.09.03.03.06.06.09.09.03.03.06.06.09.09.03.03.06.06.09.09.03.03.06.06.09.09.03.03.06.06.09.09.03.03.06.06.09.09.03.03.06.06.09.09.03.03.06.06.09.09.03.03.06.06.09.09.03.03.06.06.09.09.03.03.06.06.09.09.03.03.06.06.09.09.03.03.06.06.09.09.03.03.06.06.09.09.03.03.06.06.09.09.03.03.06.06.09.09.03.03.06.06.09.09.03.03.06.06.09.09.03.03.06.06.09.09.03.03.06.06.09.09.03.03.06.06.09.09.03.03.06.06.09.09.03.03.06.06.09.09.03.03.06.06.09.09.03.03.06.06.09.09.03.03.06.06.09.09.03.03.06.06.09.09.03.03.06.06.09.09.03.03.06.06.09.09.03.03.06.06.09.09.03.03.06.06.09.09.03.03.06.06.09.09.03.03.06.06.09.09.03.03.06.06.09.09.03.03.06.06.09.09.03.03.06.06.09.09.03.03.06.06.09.09.03.03.06.06.09.09.03.03.06.06.09.09.03.03.06.06.09.09.03.03.06.06.09.09.03.03.06.06.09.09.03.03.06.06.09.09.03.03.06.06.09.09.03.03.06.06.09.09.01.01.02.03.03.04-.97.26-2.08.39-3.34.39-.45,0-.88-.02-1.29-.05-.05-.74-.07-1.57-.07-2.5ZM63.79,93.24v9.56c0,.43,0,.83-.02,1.22v-6.04h0c0-1.53-.07-2.48-.22-2.86-.05-.13-.13-.22-.22-.31-.03-.03-.06-.06-.09-.09-.03-.03-.06-.06-.09-.09-.03-.03-.06-.06-.09-.09-.03-.03-.06-.06-.09-.09-.03-.03-.06-.06-.09-.09-.03-.03-.06-.06-.09-.09-.03-.03-.06-.06-.09-.09-.03-.03-.06-.06-.09-.09-.03-.03-.06-.06-.09-.09-.03-.03-.06-.06-.09-.09-.03-.03-.06-.06-.09-.09-.03-.03-.06-.06-.09-.09-.03-.03-.06-.06-.09-.09-.03-.03-.06-.06-.09-.09-.03-.03-.06-.06-.09-.09-.03-.03-.06-.06-.09-.09-.03-.03-.06-.06-.09-.09-.03-.03-.06-.06-.09-.09-.03-.03-.06-.06-.09-.09-.03-.03-.06-.06-.09-.09-.03-.03-.06-.06-.09-.09-.03-.03-.06-.06-.09-.09-.03-.03-.06-.06-.09-.09-.03-.03-.06-.06-.09-.09-.03-.03-.06-.06-.09-.09-.03-.03-.06-.06-.09-.09-.03-.03-.06-.06-.09-.09-.03-.03-.06-.06-.09-.09-.03-.03-.06-.06-.09-.09-.03-.03-.06-.06-.09-.09-.03-.03-.06-.06-.09-.09-.03-.03-.06-.06-.09-.09-.03-.03-.06-.06-.09-.09-.03-.03-.06-.06-.09-.09-.03-.03-.06-.06-.09-.09-.03-.03-.06-.06-.09-.09-.03-.03-.06-.06-.09-.09-.03-.03-.06-.06-.09-.09-.03-.03-.06-.06-.09-.09-.03-.03-.06-.06-.09-.09-.03-.03-.06-.06-.09-.09-.03-.03-.06-.06-.09-.09-.03-.03-.06-.06-.09-.09-.03-.03-.06-.06-.09-.09-.03-.03-.06-.06-.09-.09-.03-.03-.06-.06-.09-.09-.03-.03-.06-.06-.09-.09-.02-.03-.05-.06-.08-.08.97-.3,2.05-.46,3.25-.46.46,0,.9.03,1.33.08.07.84.1,1.84.1,3.03h0ZM54.05,100.38c0-.37,0-.73.02-1.08v5.53c0,1.67.08,2.67.24,3.01.05.11.12.19.21.26.03.03.06.06.09.09.03.03.06.06.09.09.03.03.06.06.09.09.03.03.06.06.09.09.03.03.06.06.09.09.03.03.06.06.09.09.03.03.06.06.09.09.03.03.06.06.09.09.03.03.06.06.09.09.03.03.06.06.09.09.03.03.06.06.09.09.03.03.06.06.09.09.03.03.06.06.09.09.03.03.06.06.09.09.03.03.06.06.09.09.03.03.06.06.09.09.03.03.06.06.09.09.03.03.06.06.09.09.03.03.06.06.09.09.03.03.06.06.09.09.03.03.06.06.09.09.03.03.06.06.09.09.03.03.06.06.09.09.03.03.06.06.09.09.03.03.06.06.09.09.03.03.06.06.09.09.03.03.06.06.09.09.03.03.06.06.09.09.03.03.06.06.09.09.03.03.06.06.09.09.03.03.06.06.09.09.03.03.06.06.09.09.03.03.06.06.09.09.03.03.06.06.09.09.03.03.06.06.09.09.03.03.06.06.09.09.03.03.06.06.09.09.03.03.06.06.09.09.03.03.06.06.09.09.03.03.06.06.09.09.03.03.06.06.09.09.03.03.06.06.09.09.03.03.06.06.09.09.03.03.06.06.09.09.03.03.06.06.09.09.03.03.06.06.09.09.03.03.06.06.09.09.03.03.06.06.09.09,0,0,0,.01.01.02-.92.27-1.91.41-3.01.41-.57,0-1.11-.02-1.61-.07-.05-.67-.08-1.43-.08-2.3v-10ZM44.08,90.54c0,1.61-.22,2.76-.65,3.48-.05.08-.1.15-.15.23-.02-.02-.05-.05-.07-.07-.03-.03-.06-.06-.09-.09-.03-.03-.06-.06-.09-.09-.03-.03-.06-.06-.09-.09-.03-.03-.06-.06-.09-.09-.03-.03-.06-.06-.09-.09-.03-.03-.06-.06-.09-.09-.03-.03-.06-.06-.09-.09-.03-.03-.06-.06-.09-.09-.03-.03-.06-.06-.09-.09-.03-.03-.06-.06-.09-.09-.03-.03-.06-.06-.09-.09-.03-.03-.06-.06-.09-.09-.03-.03-.06-.06-.09-.09-.03-.03-.06-.06-.09-.09-.03-.03-.06-.06-.09-.09-.03-.03-.06-.06-.09-.09-.03-.03-.06-.06-.09-.09-.03-.03-.06-.06-.09-.09-.03-.03-.06-.06-.09-.09-.03-.03-.06-.06-.09-.09-.03-.03-.06-.06-.09-.09-.03-.03-.06-.06-.09-.09-.03-.03-.06-.06-.09-.09-.03-.03-.06-.06-.09-.09-.03-.03-.06-.06-.09-.09-.03-.03-.06-.06-.09-.09-.03-.03-.06-.06-.09-.09-.03-.03-.06-.06-.09-.09-.03-.03-.06-.06-.09-.09-.03-.03-.06-.06-.09-.09-.03-.03-.06-.06-.09-.09-.03-.03-.06-.06-.09-.09-.03-.03-.06-.06-.09-.09-.03-.03-.06-.06-.09-.09-.03-.03-.06-.06-.09-.09-.03-.03-.06-.06-.09-.09-.03-.03-.06-.06-.09-.09-.03-.03-.06-.06-.09-.09-.03-.03-.06-.06-.09-.09-.03-.03-.06-.06-.09-.09-.03-.03-.06-.06-.09-.09-.03-.03-.06-.06-.09-.09-.03-.03-.06-.06-.09-.09,0,0,0,0,0,0,.89-.17,1.9-.26,3.05-.26.57,0,1.1.03,1.61.06,0,.12.01.23.01.36ZM44.04,107.31c-.02-.06-.05-.12-.08-.18-.13-.26-.29-.48-.49-.65-.03-.03-.06-.06-.09-.09-.03-.03-.06-.06-.09-.09-.03-.03-.06-.06-.09-.09-.03-.03-.06-.06-.09-.09-.03-.03-.06-.06-.09-.09-.03-.03-.06-.06-.09-.09-.03-.03-.06-.06-.09-.09-.03-.03-.06-.06-.09-.09-.03-.03-.06-.06-.09-.09-.03-.03-.06-.06-.09-.09-.03-.03-.06-.06-.09-.09-.03-.03-.06-.06-.09-.09-.03-.03-.06-.06-.09-.09-.03-.03-.06-.06-.09-.09-.03-.03-.06-.06-.09-.09-.03-.03-.06-.06-.09-.09-.03-.03-.06-.06-.09-.09-.03-.03-.06-.06-.09-.09-.03-.03-.06-.06-.09-.09-.03-.03-.06-.06-.09-.09-.03-.03-.06-.06-.09-.09-.03-.03-.06-.06-.09-.09-.03-.03-.06-.06-.09-.09-.03-.03-.06-.06-.09-.09-.03-.03-.06-.06-.09-.09-.03-.03-.06-.06-.09-.09-.03-.03-.06-.06-.09-.09-.03-.03-.06-.06-.09-.09-.03-.03-.06-.06-.09-.09-.03-.03-.06-.06-.09-.09-.03-.03-.06-.06-.09-.09-.03-.03-.06-.06-.09-.09-.03-.03-.06-.06-.09-.09-.03-.03-.06-.06-.09-.09-.03-.03-.06-.06-.09-.09-.03-.03-.06-.06-.09-.09-.03-.03-.06-.06-.09-.09-.03-.03-.06-.06-.09-.09-.02-.03-.05-.05-.07-.08v-1.36c1.7,0,2.75-.06,3.15-.19.4-.13.69-.41.87-.85.05-.11.09-.25.12-.4.1.91.16,2.02.16,3.36,0,1.44-.1,2.67-.31,3.7ZM104.58,73.59l.88-.82v.04s.11-.07.11-.07l-.03.15.12-.07-.03.15.12-.07-.03.15.12-.07-.03.15.12-.07-.03.15.12-.07-.03.15.12-.07-.03.15.12-.07-.03.15.12-.07-.03.15.12-.07-.03.15.12-.07-.03.15.12-.07-.03.15.12-.07-.03.15.12-.07-.03.15.12-.07-.03.15.12-.07-.03.15.12-.07-.03.15.12-.07-.03.15.12-.07-.03.15.12-.07-.03.15.12-.07-.03.15.12-.07-.03.15.12-.07-.03.15.12-.07-.03.15.12-.07-.02.1h-2.82l-.26-1.37ZM107.78,74.94h0s-.02.01-.02.01h.02ZM119.06,74.95l.07-.06-.16-.02.07-.07-.16-.02.07-.07-.16-.02.07-.07-.16-.02.07-.07-.16-.02.07-.07-.16-.02.07-.07-.16-.02.07-.07-.16-.02.07-.07-.16-.02.07-.07-.16-.02.07-.07-.16-.02.07-.07-.16-.02.07-.07-.16-.02.07-.07-.16-.02.07-.07-.16-.02.07-.07-.16-.02.07-.07-.16-.02.07-.07-.16-.02.07-.07-.16-.02.07-.07-.16-.02.07-.07-.16-.02.07-.07-.16-.02.07-.07-.16-.02.07-.07-.16-.02.07-.07-.16-.02.07-.07-.16-.02.07-.07-.16-.02.07-.07-.16-.02.07-.07-.16-.02.07-.07-.16-.02.07-.07-.16-.02.07-.07-.16-.02.07-.07-.16-.02.07-.07-.16-.02.07-.07-.16-.02.07-.07-.16-.02.07-.07-.16-.02.07-.07-.16-.02.07-.07-.16-.02.07-.07-.16-.02.07-.07-.16-.02.07-.07-.16-.02.07-.07-.16-.02.07-.07-.16-.02.07-.07-.16-.02.07-.07-.16-.02.07-.07-.16-.02.07-.07-.16-.02.07-.07-.16-.02.07-.07-.16-.02.07-.07-.16-.02.07-.07-.16-.02.07-.07-.16-.02.07-.07-.16-.02.07-.07-.16-.02.07-.07-.16-.02.07-.07-.16-.02.07-.07-.16-.02.07-.07-.16-.02.07-.07-.16-.02.07-.07-.16-.02.07-.07-.16-.02.07-.07-.16-.02.07-.07-.16-.02.07-.07-.16-.02.07-.07-.16-.02.07-.07-.16-.02.07-.07-.16-.02.07-.07-.16-.02.07-.07-.16-.02.07-.07-.16-.02.07-.07-.16-.02.07-.07-.16-.02.07-.07-.16-.02.07-.07-.16-.02.07-.07-.16-.02.07-.07-.16-.02.07-.07-.16-.02.07-.07-.16-.02.07-.07-1.31-.16-.02-.03v.03s-.03,0-.03,0l-.05-.12-.02.05-.06-.14-.02.05-.06-.14-.02.05-.06-.14-.02.05-.06-.14-.02.05-.06-.14-.02.05-.06-.14-.02.05-.06-.14-.02.05-.06-.14-.02.05-.06-.14-.02.05-.06-.14-.02.05-.06-.14-.02.05-.06-.14-.02.05-.06-.14-.02.05-.06-.14-.02.05-.06-.14-.02.05-.06-.14-.02.05-.06-.14-.02.05-.06-.14-.02.05-.06-.14-.02.05-.06-.14-.02.05-.06-.14-.02.05-.06-.14-.02.05-.06-.14-.02.05-.06-.14-.02.05-.06-.14-.02.05-.06-.14-.02.05-.06-.14-.02.05-.06-.14-.02.05-.06-.14-.02.05-.06-.14-.02.05-.06-.14-1.24,2.66-2.05.25.02-.02-.16-.02.07-.07-.16-.02.07-.07-.16-.02.07-.07-.16-.02.07-.07-.16-.02.07-.07-.16-.02.07-.07-.16-.02.07-.07-.16-.02.07-.07-.16-.02.07-.07-.16-.02.07-.07-.16-.02.07-.07-.16-.02.07-.07-.16-.02.07-.07-.16-.02.07-.07-.16-.02.07-.07-.16-.02.07-.07-.16-.02.07-.07-.16-.02.07-.07-.16-.02.07-.07-.16-.02.07-.07-.16-.02.07-.07-.16-.02.07-.07-.16-.02.07-.07-.16-.02.07-.07-.16-.02.07-.07-.16-.02.07-.07-.16-.02.07-.07-.16-.02.07-.07-.16-.02.07-.07-.16-.02.07-.07-.16-.02.07-.07-.16-.02.07-.07-.16-.02.07-.07-.16-.02.07-.07-.16-.02.07-.07-.16-.02.07-.07-.16-.02.07-.07-.16-.02.07-.07-.16-.02.07-.07-.16-.02.07-.07-.16-.02.07-.07-.16-.02.07-.07-.16-.02.07-.07-.16-.02.07-.07-.16-.02.07-.07-.16-.02.07-.07-.16-.02.07-.07-.16-.02.07-.07-1.89-.23-.02-.04-.02.04h-.01s-.06-.13-.06-.13l-.02.05-.06-.14-.02.05-.06-.14-.02.05-.06-.14-.02.05-.06-.14-.02.05-.06-.14-.02.05-.06-.14-.02.05-.06-.14-.02.05-.06-.14-.02.05-.06-.14-.02.05-.06-.14-.02.05-.06-.14-.02.05-.03-.07c1.38-.14,2.78-.21,4.2-.21,9.9,0,19.01,3.39,26.22,9.07.97,1.24,1.88,2.52,2.72,3.87h-11.58ZM95.39,74.95h-.05l.06-.03v.03ZM92.77,63.06l-1,.12c.35-.08.7-.16,1.05-.24l-.05.11ZM88.98,63.96l.06.06h0s.09.09.09.09h0s.09.09.09.09h0s.09.09.09.09h0s.09.09.09.09h0s.09.09.09.09h0s.09.09.09.09h0s.09.09.09.09h0s.09.09.09.09h0s.09.09.09.09h0s.09.09.09.09h0s.09.09.09.09h0s.09.09.09.09h0s.09.09.09.09h0s.09.09.09.09h0s.09.09.09.09h0s.09.09.09.09h0s.09.09.09.09h0s.09.09.09.09h0s.09.09.09.09h0s.09.09.09.09h0s.09.09.09.09h0s.09.09.09.09h0s.09.09.09.09h0s.09.09.09.09h0s.09.09.09.09h0s.09.09.09.09h0s.09.09.09.09h0s.09.09.09.09h0s.09.09.09.09h0s.05.05.05.05l-.77,3.96.12-.07-.03.15.12-.07-.03.15.12-.07-.03.15.12-.07-.03.15.12-.07-.03.15.12-.07-.03.15.12-.07-.03.15.12-.07-.03.15.12-.07-.03.15.12-.07-.03.15.12-.07-.03.15.12-.07-.03.15.12-.07-.03.15.12-.07-.03.15.12-.07-.03.15.12-.07-.03.15.12-.07-.03.15.12-.07-.03.15.12-.07-.03.15.12-.07-.03.15.12-.07-.03.15.12-.07-.03.15.12-.07-.03.15.12-.07-.03.15.12-.07-.03.15.12-.07-.03.15.12-.07-.03.15.12-.07-.03.15.12-.07-.03.15.12-.07-.03.15.12-.07-.03.15.12-.07-.03.15.12-.07-.03.15.12-.07-.03.15.12-.07-.03.15.12-.07-.03.15.12-.07-.03.15.12-.07-.03.15.12-.07-.03.15.12-.07-.03.15.12-.07-.03.15.12-.07-.03.15.12-.07-.03.15.12-.07-.03.15.12-.07-.03.15.12-.07-.03.15.12-.07-.03.15.12-.07-.03.15.12-.07-.03.15.12-.07-.02.12h-3.01l.07-.06-.16-.02.07-.07-.16-.02.07-.07-.16-.02.07-.07-.16-.02.07-.07-.16-.02.07-.07-.16-.02.07-.07-.16-.02.07-.07-.16-.02.07-.07-.16-.02.07-.07-.16-.02.07-.07-.16-.02.07-.07-.16-.02.07-.07-.16-.02.07-.07-.16-.02.07-.07-.16-.02.07-.07-.16-.02.07-.07-.16-.02.07-.07-.16-.02.07-.07-.16-.02.07-.07-.16-.02.07-.07-.16-.02.07-.07-.16-.02.07-.07-.16-.02.07-.07-.16-.02.07-.07-.16-.02.07-.07-.16-.02.07-.07-.16-.02.07-.07-.16-.02.07-.07-.16-.02.07-.07-.16-.02.07-.07-.16-.02.07-.07-.16-.02.07-.07-.16-.02.07-.07-.16-.02.07-.07-.16-.02.07-.07-.16-.02.07-.07-.16-.02.07-.07-.16-.02.07-.07-.16-.02.07-.07-.16-.02.07-.07-.16-.02.07-.07-.16-.02.07-.07-.16-.02.07-.07-.16-.02.07-.07-.16-.02.07-.07-.16-.02.07-.07-.16-.02.07-.07-.16-.02.07-.07-.16-.02.07-.07-.16-.02.07-.07-.16-.02.07-.07-.16-.02.07-.07-.16-.02.07-.07-.16-.02.07-.07-.16-.02.07-.07-.16-.02.07-.07-.16-.02.07-.07-.16-.02.07-.07-.16-.02.07-.07-.16-.02.07-.07-.16-.02.07-.07-.16-.02.07-.07-.16-.02.07-.07-.16-.02.07-.07-.16-.02.07-.07-.16-.02.07-.07-.16-.02.07-.07-.16-.02.07-.07-.16-.02.07-.07-.16-.02.07-.07-.16-.02.07-.07-.16-.02.07-.07-.16-.02.07-.07-.16-.02.07-.07-.16-.02.07-.07-.16-.02.07-.07-.16-.02.07-.07-.16-.02.07-.07-.16-.02.07-.07-1.31-.16-.02-.03v.03s-.03,0-.03,0l-.05-.12-.02.05-.06-.14-.02.05-.06-.14-.02.05-.06-.14-.02.05-.06-.14-.02.05-.06-.14-.02.05-.06-.14-.02.05-.06-.14-.02.05-.06-.14-.02.05-.06-.14-.02.05-.06-.14-.02.05-.06-.14-.02.05-.06-.14-.02.05-.06-.14-.02.05-.04-.08c1.99-.99,4.07-1.84,6.23-2.51ZM80.98,74.95h-.02.02s0,0,0,0ZM78.24,69.09l.08.08h0s.09.09.09.09h0s.09.09.09.09h0s.09.09.09.09h0s.09.09.09.09h0s.09.09.09.09h0s.09.09.09.09h0s.09.09.09.09h0s.09.09.09.09h0s.09.09.09.09h0s.09.09.09.09h0s0,0,0,0l-.54,2.75.12-.07-.03.15.12-.07-.03.15.12-.07-.03.15.12-.07-.03.15.12-.07-.03.15.12-.07-.03.15.12-.07-.03.15.12-.07-.03.15.12-.07-.03.15.12-.07-.03.15.12-.07-.03.15.12-.07-.03.15.12-.07-.03.15.12-.07-.03.15.12-.07-.03.15.12-.07-.03.15.12-.07-.03.15.12-.07-.03.15.12-.07-.03.15.12-.07-.03.15.12-.07-.03.15.12-.07-.03.15.12-.07-.03.15.12-.07-.03.15.12-.07-.02.1h-9.69c2.13-2.2,4.49-4.17,7.05-5.87ZM93.39,44.62s.05,0,.08,0v.1s.06,0,.09,0v.1s.06,0,.09,0v.1s.06,0,.09,0v.1s.06,0,.09,0v.1s.06,0,.09,0v.1s.06,0,.09,0v.1s.06,0,.09,0v.1s.06,0,.09,0v.1s.04,0,.06,0l.1,1.36s-.04-.03-.05-.04c0,0,0-.02-.02-.03-.02-.02-.05-.04-.07-.06,0,0,0-.02-.02-.03-.02-.02-.05-.04-.07-.06,0,0,0-.02-.02-.03-.02-.02-.05-.04-.07-.06,0,0,0-.02-.02-.03-.02-.02-.05-.04-.07-.06,0,0,0-.02-.02-.03-.02-.02-.05-.04-.07-.06,0,0,0-.02-.02-.03-.02-.02-.05-.04-.07-.06,0,0,0-.02-.02-.03-.02-.02-.05-.04-.07-.06,0,0,0-.02-.02-.03-.02-.02-.05-.04-.07-.06,0,0,0-.02-.02-.03-.02-.02-.05-.04-.07-.06,0,0,0-.02-.02-.03-.02-.02-.05-.04-.07-.06,0,0,0-.02-.02-.03-.02-.02-.05-.04-.07-.06,0,0,0-.02-.02-.03-.02-.02-.05-.04-.07-.06,0,0,0-.02-.02-.03-.02-.02-.05-.04-.07-.06,0,0,0-.02-.02-.03-.01-.02-.04-.03-.05-.04l-.1-1.33s.04,0,.06,0v.1s.06,0,.09,0v.1s.06,0,.09,0v.1s.06,0,.09,0v.1s.06,0,.09,0v.1ZM83.64,49.81h.02s.02.05.02.05h-.02s-.02-.05-.02-.05ZM65.68,54.17l.07.06v.03s.09.06.09.06v.03s.09.06.09.06v.03s.09.06.09.06v.03s.09.06.09.06v.03s.09.06.09.06v.03s.09.06.09.06v.03s.09.06.09.06v.03s.09.06.09.06v.03s.09.06.09.06v.03s.09.06.09.06v.03s.09.06.09.06v.03s.09.06.09.06v.03s.09.06.09.06v.03s.09.06.09.06v.03s.09.06.09.06v.03s.09.06.09.06v.03s.09.06.09.06v.03s.09.06.09.06v.03s.09.06.09.06v.03s.09.06.09.06v.03s.09.06.09.06v.03s.09.06.09.06v.03s.09.06.09.06v.03s.09.06.09.06v.03s.09.06.09.06v.03s.03.01.03.01l-1.61,1.23-1.47-3.05.72-.55.05.04v.03ZM63.65,57.05l.09.17.97,1.76-.89.68v-.02s-.08-.07-.08-.07v-.02s-.09-.07-.09-.07v-.02s-.09-.07-.09-.07v-.02s-.09-.07-.09-.07v-.02s-.09-.07-.09-.07v-.02s-.09-.07-.09-.07v-.02s-.09-.07-.09-.07v-.02s-.09-.07-.09-.07v-.02s-.09-.07-.09-.07v-.02s-.09-.07-.09-.07v-.02s-.09-.07-.09-.07v-.02s-.09-.07-.09-.07v-.02s-.09-.07-.09-.07v-.02s-.09-.07-.09-.07v-.02s-.09-.07-.09-.07v-.02s-.09-.07-.09-.07v-.02s-.09-.07-.09-.07v-.02s-.09-.07-.09-.07v-.02s-.09-.07-.09-.07v-.02s-.09-.07-.09-.07v-.02s-.09-.07-.09-.07v-.02s-.09-.07-.09-.07v-.02s-.09-.07-.09-.07v-.02s-.09-.07-.09-.07v-.02s-.09-.07-.09-.07v-.02s-.09-.07-.09-.07v-.02s-.08-.06-.08-.06l1.64-1.25c.18.33.37.66.56,1.01ZM56.59,62.11l.04.03h0s.09.09.09.09h0s.09.09.09.09h0s.09.09.09.09h0s.09.09.09.09h0s.09.09.09.09h0s.09.09.09.09h0s.09.09.09.09h0s.09.09.09.09h0s.09.09.09.09h0s.09.09.09.09h0s.09.09.09.09h0s.09.09.09.09h0s.09.09.09.09h0s.09.09.09.09h0s.09.09.09.09h0s.09.09.09.09h0s.09.09.09.09h0s.09.09.09.09h0s.09.09.09.09h0s.09.09.09.09h0s.09.09.09.09h0s.43.39.43.39l-1.98,2.19-2.27-2.05-.13-.12,2.07-2.3ZM66.09,57.91c-.48-.36-.99-.77-1.53-1.22-.35-.3-.72-.61-1.1-.95l.28-.21c.27.26.74.67,1.4,1.24.42.35.79.68,1.14,1l-.18.14ZM72.68,52.47l.58,1.14-.29.14-1.68-3.33.29-.14,1.1,2.18ZM119.21,149.52l-.1-.12v.03s-.09-.12-.09-.12v.03s-.09-.12-.09-.12v.03s-.09-.12-.09-.12v.03s-.09-.12-.09-.12v.03s-.09-.12-.09-.12v.03s-.09-.12-.09-.12v.03s-.04-.06-.04-.06l2.21-1,.04.04v-.02s.09.11.09.11v-.02s.09.11.09.11v-.02s.09.11.09.11v-.02s.09.11.09.11v-.02s.09.11.09.11v-.02s.09.11.09.11v-.02s.09.11.09.11v-.02s.09.11.09.11v-.02s.09.11.09.11v-.02s.09.11.09.11v-.02s.09.11.09.11v-.02s.09.11.09.11v-.02s.09.11.09.11v-.02s.09.11.09.11v-.02s.09.11.09.11v-.02s.09.11.09.11v-.02s.09.11.09.11v-.02s.09.11.09.11v-.02s.09.11.09.11v-.02s.09.11.09.11v-.02s.09.11.09.11v-.02s.09.11.09.11v-.02s.09.11.09.11v-.02s.09.11.09.11v-.02s.09.11.09.11v-.02s.09.11.09.11v-.02s.09.11.09.11v-.02s.09.11.09.11v-.02s.09.11.09.11v-.02s.09.11.09.11v-.02s.09.11.09.11v-.02s.09.11.09.11v-.02s.07.09.07.09l-2.21,1-.07-.09v.03s-.09-.12-.09-.12v.03s-.09-.12-.09-.12v.03s-.09-.12-.09-.12v.03s-.09-.12-.09-.12v.03s-.09-.12-.09-.12v.03s-.09-.12-.09-.12v.03s-.09-.12-.09-.12v.03s-.09-.12-.09-.12v.03s-.09-.12-.09-.12v.03s-.09-.12-.09-.12v.03s-.09-.12-.09-.12v.03s-.09-.12-.09-.12v.03s-.09-.12-.09-.12v.03s-.09-.12-.09-.12v.03s-.09-.12-.09-.12v.03s-.09-.12-.09-.12v.03s-.09-.12-.09-.12v.03s-.09-.12-.09-.12v.03s-.09-.12-.09-.12v.03s-.09-.12-.09-.12v.03s-.09-.12-.09-.12v.03s-.09-.12-.09-.12v.03s-.09-.12-.09-.12v.03s-.09-.12-.09-.12v.03s-.09-.12-.09-.12v.03ZM91.64,128.26l-1.03,1.05.08-.66-.11.07.02-.16-.11.07.02-.16-.11.07.02-.16-.11.07.02-.16-.11.07.02-.16-.11.07.02-.16-.11.07.02-.16-.11.07.02-.16-.11.07.02-.16-.11.07.02-.16-.11.07.02-.16-.11.07.02-.16-.11.07.02-.16-.11.07.02-.16-.11.07.02-.16-.11.07.02-.16-.11.07.02-.16-.11.07.02-.16-.11.07.02-.13h2.33l.3,1.25ZM88.9,127.04v-.04h.06l-.06.04ZM65.7,127h11.66,0s.16.01.16.01l-.07.08h.16s-.07.09-.07.09h.16s-.07.09-.07.09h.16s-.07.09-.07.09h.16s-.07.09-.07.09h.16s-.07.09-.07.09h.16s-.07.09-.07.09h.16s-.07.09-.07.09h.16s-.07.09-.07.09h.16s-.07.09-.07.09h.16s-.07.09-.07.09h.16s-.07.09-.07.09h.16s-.07.09-.07.09h.16s-.07.09-.07.09h.16s-.07.09-.07.09h.16s-.07.09-.07.09h.16s-.07.09-.07.09h.16s-.07.09-.07.09h.16s-.07.09-.07.09h.16s-.07.09-.07.09h.16s-.07.09-.07.09h.16s-.07.09-.07.09h.16s-.07.09-.07.09h.16s-.07.09-.07.09h.16s-.07.09-.07.09h.16s-.07.09-.07.09h.16s-.07.09-.07.09h.16s-.07.09-.07.09h.16s-.07.09-.07.09h.16s-.07.09-.07.09h.16s-.07.09-.07.09h.16s-.07.09-.07.09h.16s-.07.09-.07.09h.16s-.07.09-.07.09h.16s-.07.09-.07.09h.16s-.07.09-.07.09h.16s-.07.09-.07.09h.16s-.07.09-.07.09h.16s-.07.09-.07.09h.16s-.07.09-.07.09h.16s-.07.09-.07.09h.16s-.07.09-.07.09h.16s-.07.09-.07.09h.16s-.07.09-.07.09h.16s-.07.09-.07.09h.16s-.07.09-.07.09h.16s-.07.09-.07.09h.16s-.07.09-.07.09h.16s-.07.09-.07.09h.16s-.07.09-.07.09h.16s-.07.09-.07.09h.16s-.07.09-.07.09h.16s-.07.09-.07.09h.16s-.07.09-.07.09h.16s-.07.09-.07.09h.16s-.07.09-.07.09h.16s-.07.09-.07.09h.16s-.07.09-.07.09h.16s-.07.09-.07.09h.16s-.07.09-.07.09h.16s-.07.09-.07.09h.16s-.07.09-.07.09h.16s-.07.09-.07.09h.16s-.07.09-.07.09h.16s-.07.09-.07.09h.16s-.07.09-.07.09h.16s-.07.09-.07.09h.16s-.07.09-.07.09h.16s-.07.09-.07.09h.16s-.07.09-.07.09h.16s-.07.09-.07.09h.16s-.07.09-.07.09h.16s-.07.09-.07.09h.16s-.07.09-.07.09h.16s-.07.09-.07.09h.16s-.07.09-.07.09h.16s-.07.09-.07.09h.16s-.07.09-.07.09h.16s-.07.09-.07.09l1.75.1.04.07.02-.04.07.13.02-.04.07.13.02-.04.07.13.02-.04.07.13.02-.04.07.13.02-.04.07.13.02-.04.07.13.02-.04.07.13.02-.04.07.13.02-.04.07.13.02-.04.07.13.02-.04.07.13.02-.04.07.13.02-.04.07.13.02-.04.07.13.02-.04.07.13.02-.04.07.13.02-.04.07.13.02-.04.07.13.02-.04.07.13.02-.04.07.13.02-.04.07.13.02-.04.07.13.02-.04.07.13.02-.04.07.13.02-.04.07.13.02-.04.07.13.02-.04.07.13.02-.04.07.13,1.06-2.73,1.48-.29-.05.05h.16s-.07.09-.07.09h.16s-.07.09-.07.09h.16s-.07.09-.07.09h.16s-.07.09-.07.09h.16s-.07.09-.07.09h.16s-.07.09-.07.09h.16s-.07.09-.07.09h.16s-.07.09-.07.09h.16s-.07.09-.07.09h.16s-.07.09-.07.09h.16s-.07.09-.07.09h.16s-.07.09-.07.09h.16s-.07.09-.07.09h.16s-.07.09-.07.09h.16s-.07.09-.07.09h.16s-.07.09-.07.09h.16s-.07.09-.07.09h.16s-.07.09-.07.09h.16s-.07.09-.07.09h.16s-.07.09-.07.09h.16s-.07.09-.07.09h.16s-.07.09-.07.09h.16s-.07.09-.07.09h.16s-.07.09-.07.09h.16s-.07.09-.07.09h.16s-.07.09-.07.09h.16s-.07.09-.07.09h.16s-.07.09-.07.09h.16s-.07.09-.07.09h.16s-.07.09-.07.09h.16s-.07.09-.07.09h.16s-.07.09-.07.09h.16s-.07.09-.07.09h.16s-.07.09-.07.09h.16s-.07.09-.07.09h.16s-.07.09-.07.09h.16s-.07.09-.07.09h.16s-.07.09-.07.09h.16s-.07.09-.07.09h.16s-.07.09-.07.09h.16s-.07.09-.07.09h.16s-.07.09-.07.09h.16s-.07.09-.07.09h.16s-.07.09-.07.09h.16s-.07.09-.07.09h.16s-.07.09-.07.09h.16s-.07.09-.07.09h.16s-.07.09-.07.09h.16s-.07.09-.07.09h.16s-.07.09-.07.09h.16s-.07.09-.07.09h.16s-.07.09-.07.09h.16s-.07.09-.07.09l2.26.18h0s0,0,0,0h.03s.05.1.05.1l.02-.05.07.13.02-.05.07.13.02-.05.07.13.02-.05.07.13.02-.05.07.13.02-.05.07.13.02-.05.07.13.02-.05.07.13.02-.05.07.13.02-.05.07.13.02-.05.02.04c-1.49.16-3.01.24-4.54.24-9.9,0-19-3.39-26.22-9.07-.94-1.19-1.82-2.44-2.63-3.73ZM103.58,138.58l2.95-.49c-1.01.3-2.03.55-3.07.77l.12-.28ZM107.6,137.75l-.05-.05h.01s-.1-.09-.1-.09h.01s-.1-.09-.1-.09h.01s-.1-.09-.1-.09h.01s-.1-.09-.1-.09h.01s-.1-.09-.1-.09h.01s-.1-.09-.1-.09h.01s-.1-.09-.1-.09h.01s-.1-.09-.1-.09h.01s-.1-.09-.1-.09h.01s-.1-.09-.1-.09h.01s-.1-.09-.1-.09h.01s-.1-.09-.1-.09h.01s-.1-.09-.1-.09h.01s-.1-.09-.1-.09h.01s-.1-.09-.1-.09h.01s-.1-.09-.1-.09h.01s-.1-.09-.1-.09h.01s-.1-.09-.1-.09h.01s-.1-.09-.1-.09h.01s-.1-.09-.1-.09h.01s-.1-.09-.1-.09h.01s-.1-.09-.1-.09h.01s-.1-.09-.1-.09h.01s-.1-.09-.1-.09h.01s-.1-.09-.1-.09h.01s-.1-.09-.1-.09h.01s-.1-.09-.1-.09h.01s-.1-.09-.1-.09h.01s-.1-.09-.1-.09h.01s-.1-.09-.1-.09h.01s-.1-.09-.1-.09h.01s-.1-.09-.1-.09h.01s-.1-.09-.1-.09h.01s-.06-.05-.06-.05l.56-3.77-.11.07.02-.16-.11.07.02-.16-.11.07.02-.16-.11.07.02-.16-.11.07.02-.16-.11.07.02-.16-.11.07.02-.16-.11.07.02-.16-.11.07.02-.16-.11.07.02-.16-.11.07.02-.16-.11.07.02-.16-.11.07.02-.16-.11.07.02-.16-.11.07.02-.16-.11.07.02-.16-.11.07.02-.16-.11.07.02-.16-.11.07.02-.16-.11.07.02-.16-.11.07.02-.16-.11.07.02-.16-.11.07.02-.16-.11.07.02-.16-.11.07.02-.16-.11.07.02-.16-.11.07.02-.16-.11.07.02-.16-.11.07.02-.16-.11.07.02-.16-.11.07.02-.16-.11.07.02-.16-.11.07.02-.16-.11.07.02-.16-.11.07.02-.16-.11.07.02-.16-.11.07.02-.16-.11.07.02-.16-.11.07.02-.16-.11.07.02-.16-.11.07.02-.16-.11.07.02-.16-.11.07.02-.16-.11.07.02-.16-.11.07.02-.16-.11.07v-.08h3.28s-.07.08-.07.08h.16s-.07.09-.07.09h.16s-.07.09-.07.09h.16s-.07.09-.07.09h.16s-.07.09-.07.09h.16s-.07.09-.07.09h.16s-.07.09-.07.09h.16s-.07.09-.07.09h.16s-.07.09-.07.09h.16s-.07.09-.07.09h.16s-.07.09-.07.09h.16s-.07.09-.07.09h.16s-.07.09-.07.09h.16s-.07.09-.07.09h.16s-.07.09-.07.09h.16s-.07.09-.07.09h.16s-.07.09-.07.09h.16s-.07.09-.07.09h.16s-.07.09-.07.09h.16s-.07.09-.07.09h.16s-.07.09-.07.09h.16s-.07.09-.07.09h.16s-.07.09-.07.09h.16s-.07.09-.07.09h.16s-.07.09-.07.09h.16s-.07.09-.07.09h.16s-.07.09-.07.09h.16s-.07.09-.07.09h.16s-.07.09-.07.09h.16s-.07.09-.07.09h.16s-.07.09-.07.09h.16s-.07.09-.07.09h.16s-.07.09-.07.09h.16s-.07.09-.07.09h.16s-.07.09-.07.09h.16s-.07.09-.07.09h.16s-.07.09-.07.09h.16s-.07.09-.07.09h.16s-.07.09-.07.09h.16s-.07.09-.07.09h.16s-.07.09-.07.09h.16s-.07.09-.07.09h.16s-.07.09-.07.09h.16s-.07.09-.07.09h.16s-.07.09-.07.09h.16s-.07.09-.07.09h.16s-.07.09-.07.09h.16s-.07.09-.07.09h.16s-.07.09-.07.09h.16s-.07.09-.07.09h.16s-.07.09-.07.09h.16s-.07.09-.07.09h.16s-.07.09-.07.09h.16s-.07.09-.07.09h.16s-.07.09-.07.09h.16s-.07.09-.07.09h.16s-.07.09-.07.09h.16s-.07.09-.07.09h.16s-.07.09-.07.09h.16s-.07.09-.07.09h.16s-.07.09-.07.09h.16s-.07.09-.07.09h.16s-.07.09-.07.09h.16s-.07.09-.07.09h.16s-.07.09-.07.09h.16s-.07.09-.07.09h.16s-.07.09-.07.09h.16s-.07.09-.07.09h.16s-.07.09-.07.09h.16s-.07.09-.07.09h.16s-.07.09-.07.09h.16s-.07.09-.07.09h.16s-.07.09-.07.09h.16s-.07.09-.07.09h.16s-.07.09-.07.09h.16s-.07.09-.07.09h.16s-.07.09-.07.09h.16s-.07.09-.07.09l1.6.13.03.06.02-.05.07.13.02-.05.07.13.02-.05.07.13.02-.05.07.13.02-.05.07.13.02-.05.07.13.02-.05.07.13.02-.05.07.13.02-.05.07.13.02-.05.07.13.02-.05.07.13.02-.05.07.13.02-.05.06.11c-1.99,1.02-4.07,1.88-6.23,2.58ZM113.87,135.16h0s0,0,0,0h0ZM115.69,127h.01-.01s0,0,0,0ZM118.35,132.5l-.06-.05h.01s-.1-.09-.1-.09h.01s-.1-.09-.1-.09h.01s-.1-.09-.1-.09h.01s-.1-.09-.1-.09h.01s-.1-.09-.1-.09h.01s-.1-.09-.1-.09h.01s-.1-.09-.1-.09h.01s-.1-.09-.1-.09h.01s-.1-.09-.1-.09h.01s-.1-.09-.1-.09h.01s-.1-.09-.1-.09h.01s-.1-.09-.1-.09h.01s-.07-.06-.07-.06l.39-2.63-.11.07.02-.16-.11.07.02-.16-.11.07.02-.16-.11.07.02-.16-.11.07.02-.16-.11.07.02-.16-.11.07.02-.16-.11.07.02-.16-.11.07.02-.16-.11.07.02-.16-.11.07.02-.16-.11.07.02-.16-.11.07.02-.16-.11.07.02-.16-.11.07.02-.16-.11.07.02-.16-.11.07.02-.16-.11.07.02-.16-.11.07.02-.16-.11.07v-.1h9.15c-2,2.05-4.2,3.89-6.58,5.5ZM139.41,136.59h0s.09.09.09.09h0s.09.09.09.09h0s.09.09.09.09h0s.09.09.09.09h0s.09.09.09.09h0s.09.09.09.09h0s.09.09.09.09h0s.42.39.42.39l-2,2.21-2.39-2.17,2.09-2.3.04.03h0s.09.09.09.09h0s.09.09.09.09h0s.09.09.09.09h0s.09.09.09.09h0s.09.09.09.09h0s.09.09.09.09h0s.09.09.09.09h0s.09.09.09.09h0s.09.09.09.09h0s.09.09.09.09h0s.09.09.09.09h0s.09.09.09.09h0s.09.09.09.09h0s.09.09.09.09ZM128.71,145.08c0-.53.15-1.06.44-1.59.2.25.37.44.5.56.03.03.06.06.09.09.03.03.06.06.09.09.03.03.06.06.09.09.03.03.06.06.09.09.03.03.06.06.09.09.03.03.06.06.09.09.03.03.06.06.09.09.03.03.06.06.09.09.03.03.06.06.09.09.03.03.06.06.09.09.03.03.06.06.09.09.03.03.06.06.09.09.03.03.06.06.09.09.03.03.06.06.09.09.03.03.06.06.09.09.03.03.06.06.09.09.03.03.06.06.09.09.03.03.06.06.09.09.03.03.06.06.09.09.03.03.06.06.09.09.03.03.06.06.09.09.03.03.06.06.09.09,0,0,0,0,0,0-.75.53-1.48.85-2.17.94-.04,0-.08,0-.12,0-.09-.14-.17-.28-.23-.39-.23-.42-.35-.91-.35-1.46ZM157.14,99.55s.06.06.09.09c.03.03.05.06.08.09.36.39.96.83,1.8,1.33.02.01.04.02.06.04.24,1.05.36,2.31.36,3.78,0,2.04-.24,3.54-.72,4.51-.02-.02-.05-.05-.07-.07-.05-.05-.1-.1-.16-.16-.03-.03-.05-.06-.09-.09-.03-.03-.05-.06-.09-.09-.03-.03-.06-.06-.09-.09-.03-.03-.05-.06-.09-.09-.03-.03-.06-.06-.09-.09-.03-.03-.05-.06-.09-.09-.03-.03-.06-.06-.09-.09-.03-.03-.05-.06-.09-.09-.03-.03-.05-.06-.09-.09-.03-.03-.05-.06-.09-.09-.03-.03-.05-.06-.09-.09-.03-.03-.05-.06-.09-.09-.03-.03-.05-.06-.09-.09-.03-.03-.06-.06-.09-.09-.03-.03-.05-.06-.09-.09-.03-.03-.05-.06-.09-.09-.03-.03-.05-.06-.09-.09-.03-.03-.06-.06-.09-.09-.03-.03-.05-.06-.09-.09-.03-.03-.06-.06-.09-.09-.03-.03-.05-.06-.09-.09-.03-.03-.05-.06-.09-.09-.03-.03-.05-.06-.09-.09-.03-.03-.05-.06-.09-.09-.03-.03-.06-.06-.09-.09-.03-.03-.05-.06-.09-.09-.03-.03-.06-.06-.09-.09-.03-.03-.05-.06-.09-.09-.03-.03-.06-.06-.09-.09-.03-.03-.05-.06-.09-.09-.03-.03-.06-.06-.09-.09-.03-.03-.05-.06-.09-.09-.03-.03-.05-.06-.09-.09-.03-.03-.06-.06-.09-.09-.03-.03-.05-.06-.09-.09-.03-.03-.06-.06-.09-.09-.03-.03-.05-.06-.09-.09-.03-.03-.06-.06-.09-.09-.03-.03-.05-.06-.09-.09-.03-.03-.05-.06-.09-.09-.03-.03-.05-.06-.09-.09-.03-.03-.06-.06-.09-.09-.03-.03-.05-.06-.09-.09-.03-.03-.06-.06-.09-.09-.03-.03-.06-.06-.09-.09-.03-.03-.05-.06-.09-.09-.03-.03-.05-.06-.09-.09-.03-.03-.05-.06-.09-.09-.03-.03-.06-.06-.09-.09-.03-.03-.05-.06-.09-.09-.03-.03-.06-.06-.09-.09-.03-.03-.05-.06-.09-.09-.03-.03-.06-.06-.09-.09-.03-.03-.05-.06-.09-.09-.03-.03-.06-.06-.09-.09-.03-.03-.06-.06-.09-.09-.03-.03-.05-.06-.09-.09-.03-.03-.06-.06-.09-.09-.03-.03-.05-.06-.09-.09-.03-.03-.06-.06-.09-.09-.03-.03-.05-.06-.09-.09-.03-.03-.06-.06-.09-.09-.03-.03-.05-.06-.09-.09-.03-.03-.05-.06-.09-.09-.03-.03-.06-.06-.09-.09-.03-.03-.05-.06-.09-.09-.03-.03-.05-.06-.09-.09-.03-.03-.05-.06-.09-.09-.03-.03-.06-.06-.09-.09-.03-.03-.05-.06-.09-.09-.03-.03-.05-.06-.09-.09-.03-.03-.05-.06-.09-.09-.03-.03-.06-.06-.09-.09-.03-.03-.05-.06-.09-.09-.03-.03-.06-.06-.09-.09-.03-.03-.06-.06-.09-.09-.03-.03-.05-.06-.09-.09-.03-.03-.05-.06-.09-.09-.03-.03-.06-.06-.1-.1-.34-.33-.9-.78-1.69-1.34-.18-.78-.28-1.68-.28-2.71,0-2.2.28-3.8.84-4.81.05-.09.11-.18.16-.26.02.02.05.05.07.07.03.03.06.06.09.09.03.03.06.06.09.09.03.03.06.06.09.09.03.03.06.06.09.09.03.03.06.06.09.09.03.03.06.06.09.09.03.03.06.06.09.09.03.03.06.06.09.09.03.03.06.06.09.09.03.03.06.06.09.09.03.03.06.06.09.09.03.03.06.06.09.09.03.03.06.06.09.09.03.03.06.06.09.09.03.03.06.06.09.09.03.03.06.06.09.09.03.03.06.06.09.09.03.03.06.06.09.09.03.03.06.06.09.09.03.03.06.06.09.09.03.03.06.06.09.09.03.03.06.06.09.09.03.03.06.06.09.09.03.03.06.06.09.09.03.03.06.06.09.09.03.03.06.06.09.09.03.03.06.06.09.09.03.03.06.06.09.09.03.03.06.06.09.09.03.03.06.06.09.09.03.03.06.06.09.09.03.03.06.06.09.09.03.03.06.06.09.09.03.03.06.06.09.09.03.03.06.06.09.09.03.03.06.06.09.09.03.03.06.06.09.09.03.03.06.06.09.09.03.03.06.06.09.09.03.03.06.06.09.09.03.03.06.06.09.09.03.03.06.06.09.09.03.03.06.06.09.09.03.03.06.06.09.09.03.03.06.06.09.09.03.03.06.06.09.09.03.03.06.06.09.09.03.03.06.06.09.09.03.03.06.06.09.09.03.03.06.06.09.09.03.03.06.06.09.09.03.03.06.06.09.09.03.03.06.06.09.09.03.03.06.06.09.09.03.03.06.06.09.09.03.03.06.06.09.09.03.03.06.06.09.09.03.03.06.06.09.09.03.03.06.06.09.09.03.03.06.06.09.09.03.03.06.06.09.09.03.03.06.06.09.09.03.03.06.06.09.09.03.03.06.06.09.09.03.03.06.06.09.09.03.03.06.06.09.09.03.03.06.06.09.09.03.03.06.06.09.09.03.03.06.06.09.09.03.03.06.06.09.09.03.03.06.06.09.09.03.03.06.06.09.09.03.03.06.06.09.09ZM140.23,91.37c0,2.01-.23,3.42-.68,4.24-.01-.01-.02-.03-.03-.04,0,0,0,0-.01,0-.02-.03-.05-.06-.08-.08,0,0,0,0-.01,0-.02-.03-.05-.06-.08-.08,0,0,0,0-.01,0-.02-.03-.05-.06-.08-.08,0,0,0,0-.01,0-.02-.03-.05-.06-.08-.08,0,0,0,0-.01,0-.02-.03-.05-.06-.08-.08,0,0,0,0-.01,0-.02-.03-.05-.06-.08-.08,0,0,0,0-.01,0-.02-.03-.05-.06-.08-.08,0,0,0,0-.01,0-.02-.03-.05-.06-.08-.08,0,0,0,0-.01,0-.02-.03-.05-.06-.08-.08,0,0,0,0-.01,0-.02-.03-.05-.06-.08-.08,0,0,0,0-.01,0-.02-.03-.05-.06-.08-.08,0,0,0,0-.01,0-.02-.03-.05-.06-.08-.08,0,0,0,0-.01,0-.02-.03-.05-.06-.08-.08,0,0,0,0-.01,0-.02-.03-.05-.06-.08-.08,0,0,0,0-.01,0-.02-.03-.05-.06-.08-.08,0,0,0,0-.01,0-.02-.03-.05-.06-.08-.08,0,0,0,0-.01,0-.02-.03-.05-.06-.08-.08,0,0,0,0-.01,0-.02-.03-.05-.06-.08-.08,0,0,0,0-.01,0-.02-.03-.05-.06-.08-.08,0,0,0,0-.01,0-.02-.03-.05-.06-.08-.08,0,0,0,0-.01,0-.02-.03-.05-.06-.08-.08,0,0,0,0-.01,0-.02-.03-.05-.06-.08-.08,0,0,0,0-.01,0-.02-.03-.05-.06-.08-.08,0,0,0,0-.01,0-.02-.03-.05-.06-.08-.08,0,0,0,0-.01,0-.02-.03-.05-.06-.08-.08,0,0,0,0-.01,0-.02-.03-.05-.06-.08-.08,0,0,0,0-.01,0-.02-.03-.05-.06-.08-.08,0,0,0,0-.01,0-.02-.03-.05-.06-.08-.08,0,0,0,0-.01,0-.02-.03-.05-.06-.08-.08,0,0,0,0-.01,0-.02-.03-.05-.06-.08-.08,0,0,0,0-.01,0-.02-.03-.05-.06-.08-.08,0,0,0,0-.01,0-.02-.03-.05-.06-.08-.08,0,0,0,0-.01,0-.02-.03-.05-.06-.08-.08,0,0,0,0-.01,0-.02-.03-.05-.06-.08-.08,0,0,0,0-.01,0-.02-.03-.05-.06-.08-.08,0,0,0,0-.01,0-.02-.03-.05-.06-.08-.08,0,0,0,0-.01,0-.02-.03-.05-.06-.08-.08,0,0,0,0-.01,0-.02-.03-.05-.06-.08-.08,0,0,0,0-.01,0-.02-.03-.05-.06-.08-.08,0,0,0,0-.01,0-.02-.03-.05-.06-.08-.08,0,0,0,0-.01,0-.02-.03-.05-.06-.08-.08,0,0,0,0-.01,0-.02-.03-.05-.06-.08-.08,0,0,0,0-.01,0-.02-.03-.05-.06-.08-.08,0,0,0,0-.01,0-.02-.03-.05-.06-.08-.08,0,0,0,0-.01,0-.02-.03-.05-.06-.08-.08,0,0,0,0-.01,0-.02-.03-.05-.06-.08-.08,0,0,0,0-.01,0-.02-.03-.05-.06-.08-.08,0,0,0,0-.01,0-.02-.03-.05-.06-.08-.08,0,0,0,0-.01,0-.02-.03-.05-.06-.08-.08,0,0,0,0-.01,0-.02-.03-.05-.06-.08-.08,0,0,0,0-.01,0-.02-.03-.05-.06-.08-.08,0,0,0,0-.01,0-.02-.03-.05-.06-.08-.08,0,0,0,0-.01,0-.02-.03-.05-.06-.08-.08,0,0,0,0-.01,0-.02-.03-.05-.06-.08-.08,0,0,0,0-.01,0-.02-.03-.05-.06-.08-.08,0,0,0,0-.01,0-.01-.01-.02-.03-.04-.04h1.38c1.66,0,3.06.03,4.21.09,0,.2.01.39.01.6ZM134.13,100.99s-.06-.06-.09-.09c-.03-.03-.06-.06-.09-.09-.03-.03-.06-.06-.09-.09-.03-.03-.06-.06-.09-.09-.03-.03-.06-.06-.09-.09-.03-.03-.06-.06-.09-.09-.03-.03-.06-.06-.09-.09-.03-.03-.06-.06-.09-.09-.03-.03-.06-.06-.09-.09-.03-.03-.06-.06-.09-.09-.03-.03-.06-.06-.09-.09-.03-.03-.06-.06-.09-.09-.03-.03-.06-.06-.09-.09-.03-.03-.06-.06-.09-.09-.27-.32-.89-.48-1.84-.48v12.93h-.31v-21.52h.31v4.14s.06,0,.09,0v.09s.06,0,.09,0v.09s.06,0,.09,0v.09s.06,0,.09,0v.09s.06,0,.09,0v.09s.06,0,.09,0v.09s.06,0,.09,0v.09s.06,0,.09,0v.09s.06,0,.09,0v.09s.06,0,.09,0v.09s.06,0,.09,0v.09s.06,0,.09,0v.09s.06,0,.09,0v.09s.06,0,.09,0v.09s.06,0,.09,0v.09s.06,0,.09,0v.09s.06,0,.09,0v.09s.06,0,.09,0v.09s.06,0,.09,0v.09s.06,0,.09,0v.09s.06,0,.09,0v.09s.06,0,.09,0v.09s.06,0,.09,0v.09s.06,0,.09,0v.09s.06,0,.09,0v.09s.06,0,.09,0v.09s.06,0,.09,0v.09s.06,0,.09,0v.09s.06,0,.09,0v.09s.06,0,.09,0v.09s.06,0,.09,0v.09s.06,0,.09,0v.09s.06,0,.09,0v.09s.06,0,.09,0v.09s.06,0,.09,0v.09s.06,0,.09,0v.09s.06,0,.09,0v.09s.06,0,.09,0v.09s.06,0,.09,0v.09s.06,0,.09,0v.09s.06,0,.09,0v.09s.06,0,.09,0v.09s.06,0,.09,0v.09s.06,0,.09,0v.09s.06,0,.09,0v.09s.06,0,.09,0v.09s.06,0,.09,0v.09s.06,0,.09,0v.09s.06,0,.09,0v.09s.06,0,.09,0v.09s.06,0,.09,0v.09s.06,0,.09,0v.09s.06,0,.09,0v.09s.06,0,.09,0v.09s.06,0,.09,0v.09s.06,0,.09,0v.09s.06,0,.09,0v.09s.06,0,.09,0v.09s.06,0,.09,0v.09s.06,0,.09,0v.09s.06,0,.09,0v.09s.06,0,.09,0v.09s.06,0,.09,0v.09s.06,0,.09,0v.09s.06,0,.09,0v.09s.06,0,.09,0v.09s.06,0,.09,0v.09s.06,0,.09,0v.09s.06,0,.09,0v.09s.06,0,.09,0v.09s.06,0,.09,0v.09s.06,0,.09,0v.09s.06,0,.09,0v.09s.06,0,.09,0v.09s.06,0,.09,0v.09s.06,0,.09,0v.09s.06,0,.09,0v.09s.06,0,.09,0v.09s.06,0,.09,0v.09s.06,0,.09,0v.09s.06,0,.09,0v.09c.84,0,1.43-.12,1.76-.34.08-.06.16-.15.22-.27.05.74.07,1.84.07,3.3v2.66c-.04-.14-.09-.26-.15-.34-.04-.06-.09-.11-.15-.16-.03-.03-.06-.06-.09-.09-.03-.03-.06-.06-.09-.09-.03-.03-.06-.06-.09-.09-.03-.03-.06-.06-.09-.09-.03-.03-.06-.06-.09-.09-.03-.03-.06-.06-.09-.09-.03-.03-.06-.06-.09-.09-.03-.03-.06-.06-.09-.09-.03-.03-.06-.06-.09-.09-.03-.03-.06-.06-.09-.09-.03-.03-.06-.06-.09-.09-.03-.03-.06-.06-.09-.09-.03-.03-.06-.06-.09-.09-.03-.03-.06-.06-.09-.09-.03-.03-.06-.06-.09-.09-.03-.03-.06-.06-.09-.09-.03-.03-.06-.06-.09-.09-.03-.03-.06-.06-.09-.09-.03-.03-.06-.06-.09-.09-.03-.03-.06-.06-.09-.09-.03-.03-.06-.06-.09-.09-.03-.03-.06-.06-.09-.09-.03-.03-.06-.06-.09-.09-.03-.03-.06-.06-.09-.09-.03-.03-.06-.06-.09-.09-.03-.03-.06-.06-.09-.09-.03-.03-.06-.06-.09-.09-.03-.03-.06-.06-.09-.09-.03-.03-.06-.06-.09-.09-.03-.03-.06-.06-.09-.09-.03-.03-.06-.06-.09-.09-.03-.03-.06-.06-.09-.09-.03-.03-.06-.06-.09-.09-.03-.03-.06-.06-.09-.09-.03-.03-.06-.06-.09-.09-.03-.03-.06-.06-.09-.09-.03-.03-.06-.06-.09-.09-.03-.03-.06-.06-.09-.09-.03-.03-.06-.06-.09-.09-.03-.03-.06-.06-.09-.09-.03-.03-.06-.06-.09-.09-.03-.03-.06-.06-.09-.09-.03-.03-.06-.06-.09-.09-.03-.03-.06-.06-.09-.09-.03-.03-.06-.06-.09-.09-.03-.03-.06-.06-.09-.09-.03-.03-.06-.06-.09-.09-.03-.03-.06-.06-.09-.09-.03-.03-.06-.06-.09-.09-.03-.03-.06-.06-.09-.09-.03-.03-.06-.06-.09-.09-.03-.03-.06-.06-.09-.09-.03-.03-.06-.06-.09-.09-.03-.03-.06-.06-.09-.09-.03-.03-.06-.06-.09-.09-.03-.03-.06-.06-.09-.09-.03-.03-.06-.06-.09-.09-.03-.03-.06-.06-.09-.09-.03-.03-.06-.06-.09-.09-.03-.03-.06-.06-.09-.09-.03-.03-.06-.06-.09-.09-.03-.03-.06-.06-.09-.09-.03-.03-.06-.06-.09-.09-.03-.03-.06-.06-.09-.09-.03-.03-.06-.06-.09-.09-.03-.03-.06-.06-.09-.09ZM149.86,110.94v-1.88h1.63s.03.03.05.05c.03.03.06.06.09.09.03.03.06.06.09.09.03.03.06.06.09.09.03.03.06.06.09.09.03.03.06.06.09.09.03.03.06.06.09.09.03.03.06.06.09.09.03.03.06.06.09.09.03.03.06.06.09.09.03.03.06.06.09.09.03.03.06.06.09.09.03.03.06.06.09.09.03.03.06.06.09.09.03.03.06.06.09.09.03.03.06.06.09.09.03.03.06.06.09.09.03.03.06.06.09.09.03.03.06.06.09.09.03.03.06.06.09.09.03.03.06.06.09.09.03.03.06.06.09.09.03.03.06.06.09.09.03.03.06.06.09.09.03.03.06.06.09.09.03.03.06.06.09.09.03.03.06.06.09.09.03.03.06.06.09.09.03.03.06.06.09.09.03.03.06.06.09.09.03.03.06.06.09.09.03.03.06.06.09.09.03.03.06.06.09.09.03.03.06.06.09.09.03.03.06.06.09.09.03.03.06.06.09.09.03.03.06.06.09.09,0,0,.01.01.02.02-.81.25-1.68.41-2.61.47-.28.02-.57.03-.87.03-.46,0-.9-.02-1.33-.06-.04-.56-.06-1.15-.06-1.8ZM158.9,91.07v1.13h0s-3.15.01-3.15.01c-.02-.02-.05-.05-.07-.07-.03-.03-.06-.06-.09-.09-.03-.03-.06-.06-.09-.09-.03-.03-.06-.06-.09-.09-.03-.03-.06-.06-.09-.09-.03-.03-.06-.06-.09-.09-.03-.03-.06-.06-.09-.09-.03-.03-.06-.06-.09-.09-.03-.03-.06-.06-.09-.09-.03-.03-.06-.06-.09-.09-.03-.03-.06-.06-.09-.09-.03-.03-.06-.06-.09-.09-.03-.03-.06-.06-.09-.09-.03-.03-.06-.06-.09-.09-.03-.03-.06-.06-.09-.09-.03-.03-.06-.06-.09-.09-.03-.03-.06-.06-.09-.09-.03-.03-.06-.06-.09-.09-.02-.03-.04-.05-.07-.08,1.05-.33,2.25-.5,3.6-.5.19,0,.38,0,.57.01.21,0,.4.03.6.04,0,.3.02.62.02.95ZM119.42,112.21v-.04h-.08v-.09h-.09v-.09h-.09v-.09h-.09v-.09h-.09v-.09h-.09v-.09h-.09v-.09h-.09v-.09h-.09v-.09h-.09v-.09h-.09v-.09h-.09v-.09h-.09v-.09h-.09v-.09h-.09v-.09h-.09v-.09h-.09v-.09h-.09v-.09h-.09v-.09h-.09v-.09h-.09v-.09h-.09v-.09h-.09v-.09h-.09v-.09h-.09v-.09h-.09v-.09h-.09v-.09h-.09v-.09h-.09v-.09h-.09v-.09h-.09v-.09h-.09v-.09h-.09v-.09h-.09v-.09h-.09v-.09h-.09v-.09h-.09v-.09h-.09v-.09h-.09v-.09h-.09v-.09h-.09v-.09h-.09v-.09h-.09v-.09h-.09v-.09h-.09v-.09h-.09v-.09h-.09v-.09h-.09v-.09h-.09v-.09h-.09v-.09h-.09v-.09h-.09v-.09h-.09v-.09h-.09v-.09h-.09v-.09h-.09v-.09h-.09v-.09h-.09v-.09h-2.06l.52-3.94h0s0,.06,0,.09h.1s0,.06,0,.09h.1s0,.06,0,.09h.1s0,.06,0,.09h.1s0,.06,0,.09h.1s0,.06,0,.09h.1s0,.06,0,.09h.1s0,.06,0,.09h.1s0,.06,0,.09h.1s0,.06,0,.09h.1s0,.06,0,.09h.1s0,.06,0,.09h.1s0,.06,0,.09h.1s0,.06,0,.09h.1s0,.06,0,.09h.1s0,.06,0,.09h.1s0,.06,0,.09h.1s0,.06,0,.09h.1s0,.06,0,.09h.1s0,.06,0,.09h.1s0,.06,0,.09h.1s0,.06,0,.09h.1s0,.06,0,.09h.1s0,.06,0,.09h.1s0,.06,0,.09h.1s0,.06,0,.09h.1s0,.06,0,.09h.1s0,.06,0,.09h.1s0,.06,0,.09h.1s0,.06,0,.09h.1s0,.06,0,.09h.1s0,.06,0,.09h.1s0,.06,0,.09h.1s0,.06,0,.09h.1s0,.06,0,.09h.1s0,.06,0,.09h.1s0,.06,0,.09h.1s0,.06,0,.09h.1s0,.06,0,.09h.1s0,.06,0,.09h.1s0,.06,0,.09h.1s0,.06,0,.09h.1s0,.06,0,.09h.1s0,.06,0,.09h.1s0,.06,0,.09h.1s0,.06,0,.09h.1s0,.06,0,.09h.1s0,.06,0,.09h.1s0,.06,0,.09h.1s0,.06,0,.09h.1s0,.06,0,.09h.1s0,.06,0,.09h.1s0,.06,0,.09h.1s0,.06,0,.09h.1s0,.06,0,.09h.1s0,.06,0,.09h.1s0,.06,0,.09h.1s0,.06,0,.09h.1s0,.06,0,.09h.1s0,.06,0,.09h.1s0,.06,0,.09h.1s0,.06,0,.09h.1s0,.06,0,.09h.1s0,.06,0,.09h.1s0,.06,0,.09h.1s0,.06,0,.09h.1s0,.06,0,.09h.1s0,.06,0,.09h2.57c-.36-3.11-.72-6.93-1.09-11.45l2.16,14.55h-2.9ZM120.1,97.21c-.01.08-.02.15-.03.23-.01-.15-.02-.3-.04-.46-.02.13-.03.25-.05.37-.01-.15-.02-.3-.04-.46-.02.13-.03.25-.05.37-.01-.15-.02-.3-.04-.46-.02.13-.03.25-.05.37-.01-.15-.02-.3-.04-.46-.02.13-.03.25-.05.37-.01-.15-.02-.3-.04-.46-.02.13-.03.25-.05.37-.01-.15-.02-.3-.04-.46-.02.13-.03.25-.05.37-.01-.15-.02-.3-.04-.46-.02.13-.03.25-.05.37-.01-.15-.02-.3-.04-.46-.02.13-.03.25-.05.37-.01-.15-.02-.3-.04-.46-.02.13-.03.25-.05.37-.01-.15-.02-.3-.04-.46-.02.13-.03.25-.05.37-.01-.15-.02-.3-.04-.46-.02.13-.03.25-.05.37-.01-.15-.02-.3-.04-.46-.02.13-.03.25-.05.37-.01-.15-.02-.3-.04-.46-.02.13-.03.25-.05.37-.01-.15-.02-.3-.04-.46-.02.13-.03.25-.05.37-.01-.15-.02-.3-.04-.46-.02.13-.03.25-.05.37-.01-.15-.02-.3-.04-.46-.02.13-.03.25-.05.37-.01-.15-.02-.3-.04-.46-.02.13-.03.25-.05.37-.01-.15-.02-.3-.04-.46-.02.13-.03.25-.05.37-.01-.15-.02-.3-.04-.46-.02.13-.03.25-.05.37-.01-.15-.02-.3-.04-.46-.02.13-.03.25-.05.37-.01-.15-.02-.3-.04-.46-.02.13-.03.25-.05.37-.01-.15-.02-.3-.04-.46-.02.13-.03.25-.05.37-.01-.15-.02-.3-.04-.46-.02.13-.03.25-.05.37-.01-.15-.02-.3-.04-.46-.02.13-.03.25-.05.37-.01-.15-.02-.3-.04-.46-.02.13-.03.25-.05.37-.01-.15-.02-.3-.04-.46-.02.13-.03.25-.05.37-.01-.15-.02-.3-.04-.46-.02.13-.03.25-.05.37-.01-.15-.02-.3-.04-.46-.02.13-.03.25-.05.37-.01-.15-.02-.3-.04-.46-.02.13-.03.25-.05.37-.01-.15-.02-.3-.04-.46-.02.13-.03.25-.05.37-.01-.15-.02-.3-.04-.46-.02.13-.03.25-.05.37-.01-.15-.02-.3-.04-.46-.02.13-.03.25-.05.37-.01-.15-.02-.3-.04-.46-.02.13-.03.25-.05.37-.01-.15-.02-.3-.04-.46-.02.13-.03.25-.05.37-.01-.15-.02-.3-.04-.46-.02.13-.03.25-.05.37-.01-.15-.02-.3-.04-.46-.02.13-.03.25-.05.37-.01-.15-.02-.3-.04-.46-.02.13-.03.25-.05.37-.01-.15-.02-.3-.04-.46-.02.13-.03.25-.05.37-.01-.15-.02-.3-.04-.46-.02.13-.03.25-.05.37-.01-.15-.02-.3-.04-.46-.02.13-.03.25-.05.37-.01-.15-.02-.3-.04-.46-.02.13-.03.25-.05.37-.01-.15-.02-.3-.04-.46-.02.13-.03.25-.05.37-.01-.15-.02-.3-.04-.46-.02.13-.03.25-.05.37-.01-.15-.02-.3-.04-.46-.02.13-.03.25-.05.37-.01-.15-.02-.3-.04-.46-.02.13-.03.25-.05.37-.01-.15-.02-.3-.04-.46-.02.13-.03.25-.05.37-.01-.15-.02-.3-.04-.46-.02.13-.03.25-.05.37-.01-.15-.02-.3-.04-.46-.02.13-.03.25-.05.37-.01-.15-.02-.3-.04-.46-.02.13-.03.25-.05.37-.01-.15-.02-.3-.04-.46-.02.13-.03.25-.05.37-.01-.15-.02-.3-.04-.46-.02.13-.03.25-.05.37-.01-.15-.02-.3-.04-.46-.02.13-.03.25-.05.37-.01-.15-.02-.3-.04-.46-.02.13-.03.25-.05.37-.01-.15-.02-.3-.04-.46-.02.13-.03.25-.05.37-.01-.15-.02-.3-.04-.46-.02.13-.03.25-.05.37-.01-.15-.02-.3-.04-.46-.02.13-.03.25-.05.37-.01-.15-.02-.3-.04-.46-.02.13-.03.25-.05.37-.01-.15-.02-.3-.04-.46-.02.13-.03.25-.05.37-.01-.15-.02-.3-.04-.46-.02.13-.03.25-.05.37-.01-.15-.02-.3-.04-.46-.02.13-.03.25-.05.37-.01-.15-.02-.3-.04-.46-.02.13-.03.25-.05.37-.01-.15-.02-.3-.04-.46-.02.13-.03.25-.05.37-.01-.15-.02-.3-.04-.46-.02.13-.03.25-.05.37-.01-.15-.02-.3-.04-.46-.02.13-.03.25-.05.37-.01-.15-.02-.3-.04-.46-.02.13-.03.25-.05.37,0-.07-.01-.14-.02-.2l.11-.82h4.7l.97,6.53ZM97.24,90.69h0s.31,0,.31,0v4.04h.09v.09h.09v.09h.09v.09h.09v.09h.09v.09h.09v.09h.09v.09h.09v.09h.09v.09h.09v.09h.09v.09h.09v.09h.09v.09h.09v.09h.09v.09h.09v.09h.09v.09h.09v.09h.09v.09h.09v.09h.09v.09h.09v.09h.09v.09h.09v.09h.09v.09h.09v.09h.09v.09h.09v.09h.09v.09h.09v.09h.09v.09h.09v.09h.09v.09h.09v.09h.09v.09h.09v.09h.09v.09h.09v.09h.09v.09h.09v.09h.09v.09h.09v.09h.09v.09h.09v.09h.09v.09h.09v.09h.09v.09h.09v.09h.09v.09h.09v.09h.09v.09h.09v.09h.07v.87h-4.66v6.3h.09v.09h.09v.09h.09v.09h.09v.09h.09v.09h.09v.09h.09v.09h.09v.09h.09v.09h.09v.09h.09v.09h.09v.09h.09v.09h.09v.09h.09v.09h.09v.09h.09v.09h.09v.09h.09v.09h.09v.09h.09v.09h.09v.09h.09v.09h.09v.09h.09v.09h.09v.09h.09v.09h.09v.09h.09v.09h.09v.09h.09v.09h.09v.09h.09v.09h.09v.09h.09v.09h.09v.09h.09v.09h.09v.09h.09v.09h.09v.09h.09v.09h.09v.09h.09v.09h.09v.09h.09v.09h.09v.09h.09v.09h.09v.09h.09v.09h.09v.09h.09v.09h.09v.09h.09v.09h.09v.09h.09v.09h.09v.09h.09v.09h.09v.09h.09v.09h.09v.09h.09v.09h.09v.09h0v.27h-5.79v-21.52ZM83.4,108.15l-5.01-17.47h.98c.29,1.82.47,3.21.54,4.16.02-.12.03-.24.05-.36.01.16.03.31.04.44.02-.12.03-.24.05-.36.01.16.03.31.04.44.02-.12.03-.24.05-.36.01.16.03.31.04.44.02-.12.03-.24.05-.36.01.16.03.31.04.44.02-.12.03-.24.05-.36.01.16.03.31.04.44.02-.12.03-.24.05-.36.01.16.03.31.04.44.02-.12.03-.24.05-.36.01.16.03.31.04.44.02-.12.03-.24.05-.36.01.16.03.31.04.44.02-.12.03-.24.05-.36.01.16.03.31.04.44.02-.12.03-.24.05-.36.01.16.03.31.04.44.02-.12.03-.24.05-.36.01.16.03.31.04.44.02-.12.03-.24.05-.36.01.16.03.31.04.44.02-.12.03-.24.05-.36.01.16.03.31.04.44.02-.12.03-.24.05-.36.01.16.03.31.04.44.02-.12.03-.24.05-.36.01.16.03.31.04.44.02-.12.03-.24.05-.36.01.16.03.31.04.44.02-.12.03-.24.05-.36.01.16.03.31.04.44.02-.12.03-.24.05-.36.01.16.03.31.04.44.02-.12.03-.24.05-.36.01.16.03.31.04.44.02-.12.03-.24.05-.36.01.16.03.31.04.44.02-.12.03-.24.05-.36.01.16.03.31.04.44.02-.12.03-.24.05-.36.01.16.03.31.04.44.02-.12.03-.24.05-.36.01.16.03.31.04.44.02-.12.03-.24.05-.36.01.16.03.31.04.44.02-.12.03-.24.05-.36.01.16.03.31.04.44.02-.12.03-.24.05-.36.01.16.03.31.04.44.02-.12.03-.24.05-.36.01.16.03.31.04.44.02-.12.03-.24.05-.36.01.16.03.31.04.44.02-.12.03-.24.05-.36.01.16.03.31.04.44.02-.12.03-.24.05-.36.01.16.03.31.04.44.02-.12.03-.24.05-.36.01.16.03.31.04.44.02-.12.03-.24.05-.36.01.16.03.31.04.44.02-.12.03-.24.05-.36.01.16.03.31.04.44.02-.12.03-.24.05-.36.01.16.03.31.04.44.02-.12.03-.24.05-.36.01.16.03.31.04.44.02-.12.03-.24.05-.36.01.16.03.31.04.44.02-.12.03-.24.05-.36.01.16.03.31.04.44.02-.12.03-.24.05-.36.01.16.03.31.04.44.02-.12.03-.24.05-.36.01.16.03.31.04.44.02-.12.03-.24.05-.36.01.16.03.31.04.44.02-.12.03-.24.05-.36.01.16.03.31.04.44.02-.12.03-.24.05-.36.01.16.03.31.04.44.02-.12.03-.24.05-.36.01.16.03.31.04.44.02-.12.03-.24.05-.36.01.16.03.31.04.44.02-.12.03-.24.05-.36.01.16.03.31.04.44.02-.12.03-.24.05-.36.01.16.03.31.04.44.02-.12.03-.24.05-.36.01.16.03.31.04.44.02-.12.03-.24.05-.36.01.16.03.31.04.44.02-.12.03-.24.05-.36.01.12.02.24.03.35l-.82,2.77v6.32ZM84.29,98.85l-.02.07s.01-.08.02-.11c0,.01,0,.03,0,.04Z"/>
  <g>
    <path class="cls-2" d="M115.1,50.6c.29.09.58.18.87.27l.47-3.12-1.34,2.84Z"/>
    <path class="cls-2" d="M90.68,43.43c-.13-.16-.43-.22-.9-.19l.39,5.05c.35-.04.7-.07,1.05-.11l-.27-3.45c-.06-.71-.14-1.15-.27-1.31Z"/>
    <path class="cls-2" d="M63.67,57.4l.09.17c.27-.18.55-.35.82-.52-.7-.59-1.45-1.25-2.25-2,.44.72.89,1.51,1.34,2.35Z"/>
    <path class="cls-2" d="M129.81,144.52c.18.11.38.09.59-.07.2-.15.28-.33.23-.54s-.3-.6-.73-1.19l-.38-.51c-.36.22-.72.45-1.08.66l.52.7c.39.52.67.84.85.95Z"/>
    <path class="cls-2" d="M69.77,44.59c-.2-.4-.4-.64-.59-.7-.19-.06-.48.01-.89.22l1.53,3.02c.09-.04.17-.07.23-.11.28-.14.45-.31.49-.51.04-.19-.05-.52-.27-.95l-.5-.97Z"/>
    <path class="cls-2" d="M167.03,76.56h0s.3-6.96.3-6.96l-10.34-8.47-1.08-11.43-12.21-5.02-5.42-11.43-12.02-.49-8.37-9.36-13.3,2.56-9.85-5.81-10.73,6.11-11.92-3.15-9.06,9.65-12.71.59-6.01,11.72-10.93,4.43-1.68,11.82-9.65,8.27.65,6.97-6.56.12v42.55l10.24,5.22.49,13,10.73,6.6,3.94,12.02,11.13,2.27,7.48,10.34,13.2-.49,10.05,6.99,11.03-4.14,11.33,4.14,9.75-6.8,12.9.39,7.29-10.44,12.51-3.15,3.15-11.03,11.03-6.5.1-13,10.05-4.82v-43.26h-5.52ZM158.83,109.73c-.48.97-1.4,1.78-2.77,2.43-1.15.55-2.45.87-3.91.95-2.51,8.47-7.32,16.08-13.8,22.24l.48.43,1.71-1.88,1.97,1.79-4.04,4.45-2.72-2.47c-1.08.91-2.2,1.77-3.35,2.6.58.83.96,1.49,1.11,1.97.19.58.14,1.24-.13,1.99-.28.75-.81,1.41-1.59,1.99-.81.6-1.6.96-2.34,1.05-.75.1-1.4-.05-1.96-.45-.56-.39-1.23-1.11-2.01-2.16l-.07-.1c-1.21.63-2.45,1.22-3.71,1.77l2.13,4.73-2.77,1.25-3.71-4.29c-.06.02-.12.04-.17.06l2.24,4.97-2.64,1.19-2.38-5.29c-1.27.37-2.55.69-3.85.98l.09.4-2.11.5.67,2.85,2.47-.58.61,2.6-5.85,1.38-1.45-6.17c-1.27.16-2.56.29-3.86.37l.52,6.47-3.45.28-.53-6.61c-.23,0-.47,0-.7,0-1.51,0-3.01-.05-4.49-.16.42.19.7.4.86.63.21.31.33.58.37.82.04.24,0,.9-.1,1.97l-.32,3.5-3.2-.3.41-4.41c.07-.71.05-1.16-.05-1.33-.1-.18-.38-.29-.86-.33l-.56,5.98-3.45-.32.65-6.96c-1.25-.21-2.48-.46-3.7-.75l-.38,1.28-2.08-.61-.83,2.81,2.44.72-.75,2.56-5.76-1.69,1.95-6.6c-1.12-.38-2.23-.79-3.32-1.22-.08.09-.16.16-.23.22-.33.26-.76.39-1.27.36-.51-.03-1.1-.21-1.78-.56l-.83-.42-2.44,4.78-3.08-1.58,3.03-5.94c-1.34-.74-2.64-1.53-3.9-2.37l-2.75,6.06-2.52-1.99c.52-1.28,1.25-2.77,2.18-4.46-.59.61-1.24,1.23-1.95,1.88l-1.6,1.5-2.65-2.09,4.72-4.27c-1.11-.9-2.17-1.84-3.2-2.82l-.38.34-1.43-1.62-2.2,1.93,1.68,1.91-2.01,1.76-3.96-4.52,4.43-3.89c-4.81-5.65-8.35-12.23-10.25-19.39-.17.1-.34.21-.52.3-1.28.65-2.91.98-4.9.98-2.27,0-4.04-.38-5.34-1.14-1.29-.76-2.14-1.69-2.55-2.8s-.61-3.02-.61-5.74v-2.27h7.15v4.66c0,1.24.07,2.03.22,2.36.15.34.47.51.98.51.55,0,.92-.21,1.1-.64.18-.43.26-1.53.26-3.33v-1.98c0-1.1-.13-1.9-.37-2.41-.25-.51-.61-.84-1.1-1-.48-.16-1.42-.25-2.81-.27v-4.16c1.7,0,2.75-.06,3.15-.19.4-.13.69-.41.87-.85s.26-1.12.26-2.05v-1.59c0-1-.1-1.66-.31-1.98s-.53-.48-.97-.48c-.5,0-.84.17-1.02.51-.18.33-.27,1.05-.27,2.15v2.35h-7.15v-2.44c0-2.74.63-4.59,1.88-5.55s3.24-1.44,5.97-1.44c3.26,0,5.51.61,6.76,1.84,2.46-7.64,6.81-14.55,12.57-20.29l-7.62-6.88h0s3.87-4.29,3.87-4.29l1.98,1.79-1.55,1.72,1.88,1.69,1.45-1.61,1.88,1.7-1.45,1.61,2.1,1.9c.19-.17.39-.34.58-.5l1.19-1.32.19.18c.61-.48,1.22-.96,1.85-1.42l-2.49-4.75-4.57-3.92,2.66-2.03c.27.26.74.67,1.4,1.24.51.43.97.84,1.37,1.22l-1.62-3.34,2.31-1.76h0l2.6,5.42,4.77,3.83c.68-.37,1.38-.74,2.08-1.08l-5.38-10.63,3.11-1.57c.84-.43,1.52-.69,2.04-.78.52-.1.96-.08,1.31.06.35.13.66.36.92.67.26.32.58.84.96,1.59l.52,1.04c.39.76.58,1.35.61,1.78.02.43-.13.84-.46,1.23-.32.4-.83.77-1.5,1.11l-.83.42,1.84,3.64c1.93-.82,3.91-1.55,5.94-2.17l-3.32-11.94h-.01s0,0,0,0h0s5.56-1.54,5.56-1.54l.71,2.57-2.23.62.68,2.43,2.08-.58.68,2.44-2.08.58.78,2.82,2.45-.68.5,1.81c.75-.15,1.51-.29,2.27-.42l-.97-12.54h0s0,0,0,0h0s2.45-.19,2.45-.19c1.63-.13,2.74-.15,3.32-.07.58.08,1.08.37,1.49.85.4.49.65,1.3.74,2.43.08,1.04,0,1.74-.22,2.11s-.72.63-1.47.76c.7.12,1.17.31,1.43.58.26.27.42.52.5.75.07.23.16.89.24,1.96l.2,2.58c.84-.03,1.68-.05,2.53-.05.1,0,.19,0,.29,0l1.16-12.08,3.45.33-1.14,11.86c1.02.06,2.02.14,3.02.25l2.88-11.35h0s5.6,1.41,5.6,1.41l-.65,2.59-2.24-.57-.62,2.45,2.1.53-.62,2.46-2.1-.53-.72,2.84,2.47.63-.12.48c.86.18,1.72.37,2.56.59l4.65-9.87,2.62,1.23-.8,6.25,2.55-5.43,2.62,1.23h0s-4.22,8.96-4.22,8.96c.98.38,1.94.79,2.89,1.22.16-.22.33-.46.52-.71l2.37-3.09c.58-.76,1.05-1.31,1.39-1.66.34-.34.78-.59,1.31-.74s1.1-.16,1.71,0c.62.15,1.22.45,1.82.91.81.62,1.36,1.29,1.65,2.01.29.71.33,1.37.14,1.97-.19.59-.67,1.38-1.42,2.37l-.77,1h-.01l-2.75-2.11,1.41-1.84c.41-.53.64-.89.68-1.07s-.04-.34-.24-.5c-.23-.17-.43-.2-.62-.09-.19.12-.48.44-.89.97l-3.15,4.12c.38.2.75.4,1.13.61l.36-.48,2.75,2.11-.12.16c.99.63,1.95,1.29,2.9,1.98l5.64-4.96h0s0,0,0,0h0s3.81,4.34,3.81,4.34l-2,1.76-1.53-1.74-1.9,1.67,1.43,1.62-1.02.9c6.28,5.64,11.12,12.58,13.98,20.35,1.69.06,3.15.36,4.38.93,1.36.63,2.27,1.41,2.71,2.36.44.95.66,2.56.66,4.84v1.13h0s-5.37.01-5.37.01c.14.95.26,1.91.35,2.88,2.22,1.44,3.68,2.66,4.36,3.66.86,1.26,1.29,3.3,1.29,6.11,0,2.04-.24,3.55-.72,4.51Z"/>
    <path class="cls-2" d="M90.58,39.9l-.06-.73c-.03-.42-.13-.69-.29-.81-.16-.12-.44-.16-.84-.13h0s.23,2.96.23,2.96c.39-.03.65-.11.8-.22.15-.12.2-.47.15-1.06Z"/>
    <path class="cls-2" d="M90.05,146.8h0s-.27,2.95-.27,2.95c.39.04.66,0,.83-.08.17-.09.27-.43.33-1.01l.07-.73c.04-.42,0-.71-.15-.85s-.41-.24-.8-.27Z"/>
    <path class="cls-2" d="M152.01,90.44c0-.99-.09-1.62-.26-1.89s-.47-.41-.89-.41c-.45,0-.79.18-1.02.55-.23.37-.34.92-.34,1.67,0,.96.13,1.68.39,2.16.25.48.95,1.07,2.11,1.75.69.41,1.33.8,1.91,1.18-.09-.97-.2-1.93-.35-2.88h-1.55v-2.13Z"/>
    <path class="cls-2" d="M111.57,102.32h2.57c-.38-3.25-.76-7.26-1.14-12.04-.76,5.49-1.23,9.5-1.43,12.04Z"/>
    <path class="cls-2" d="M117.17,148.09c.06-.02.12-.04.17-.06l-.42-.49.25.55Z"/>
    <path class="cls-2" d="M55.4,87.75c-.54,0-.88.2-1.05.61s-.26,1.35-.26,2.82v13.99c0,1.67.08,2.67.24,3.01.16.34.51.52,1.04.52s.88-.2,1.04-.6c.17-.4.25-1.3.25-2.71v-14.2h0c0-1.53-.07-2.48-.22-2.86-.15-.39-.49-.58-1.04-.58Z"/>
    <path class="cls-2" d="M146.17,112.02c-1.41-.76-2.34-1.72-2.77-2.89-.44-1.17-.65-2.83-.65-4.98v-1.88h6.92v3.49c0,1.07.1,1.76.29,2.07.2.31.54.46,1.04.46s.86-.19,1.1-.58c.24-.39.36-.97.36-1.74,0-1.69-.23-2.79-.69-3.31-.47-.52-1.63-1.39-3.49-2.6-1.85-1.23-3.08-2.12-3.68-2.67-.6-.55-1.1-1.32-1.49-2.3-.39-.98-.59-2.23-.59-3.75,0-2.2.28-3.8.84-4.81.56-1.02,1.47-1.81,2.72-2.38s2.76-.86,4.53-.86c.19,0,.38,0,.57.01-2.86-7.77-7.7-14.71-13.98-20.35l-.88.77-1.43-1.62-2.2,1.94,1.68,1.91-2,1.76-3.96-4.51,4.36-3.83c-.94-.69-1.91-1.35-2.9-1.98l-.2.26c-.84,1.1-1.51,1.81-2.01,2.15-.51.34-1.16.48-1.95.42-.79-.06-1.58-.39-2.35-.98-.81-.62-1.36-1.27-1.66-1.96-.3-.69-.34-1.36-.11-2.01.17-.49.51-1.1,1.01-1.82-.95-.43-1.91-.84-2.89-1.22l-1.46,3.1-2.75-1.29.47-3.13c-.29-.09-.58-.18-.87-.27l-1.24,2.63-2.62-1.23,1.03-2.18c-.85-.21-1.7-.41-2.56-.59l-.53,2.11-5.82-1.48.39-1.56c-1-.11-2.01-.19-3.02-.25l-.13,1.4-3.45-.33.11-1.18c-.1,0-.19,0-.29,0-.85,0-1.69.02-2.53.05l.07.92-3.21.25-.07-.96c-.35.03-.7.07-1.05.11l.07.94-3.45.27-.06-.74c-.76.12-1.52.27-2.27.42l.21.76-5.78,1.61-.25-.89c-2.04.62-4.02,1.35-5.94,2.17l.58,1.14-3.09,1.56-.64-1.26c-.7.35-1.4.71-2.08,1.08l1.2.97-2.55,1.95c-.48-.36-.99-.77-1.53-1.22-.28.17-.55.34-.82.52l.97,1.76-2.68,2.05-1.01-1.92c-.63.46-1.24.93-1.85,1.42l1.78,1.61-4.03,4.46-2.27-2.05c-5.76,5.74-10.11,12.65-12.57,20.29.06.06.12.1.18.16,1.22,1.33,1.82,3.18,1.82,5.56,0,1.61-.22,2.76-.65,3.48-.43.71-1.2,1.36-2.29,1.95,1.08.37,1.88.96,2.41,1.79.53.83.8,2.79.8,5.85,0,2.28-.26,4.05-.78,5.31-.45,1.08-1.17,1.94-2.18,2.57,1.9,7.16,5.45,13.73,10.25,19.39l5.58-4.89h0s3.81,4.33,3.81,4.33l-2.01,1.76-1.53-1.74-1.9,1.67,1.43,1.63-1.52,1.34c1.03.98,2.09,1.92,3.2,2.82l.87-.79,2.66-5.4,2.63,2.08c-.18.32-.46.88-.85,1.66-.29.6-.57,1.15-.84,1.63l2.84-2.4,2.27,1.8h0s0,0,0,0h0s-4.6,3.86-4.6,3.86l-.41.9c1.26.83,2.56,1.63,3.9,2.37l3.03-5.93h0s3.11,1.58,3.11,1.58c.84.43,1.45.83,1.84,1.19.39.36.63.73.72,1.09.1.37.1.74,0,1.14-.1.4-.34.97-.72,1.71l-.53,1.04c-.3.59-.58,1.02-.85,1.31,1.09.44,2.2.85,3.32,1.22l1.82-6.18h0s5.54,1.63,5.54,1.63l-.75,2.56-2.22-.65-.71,2.42,2.08.61-.34,1.15c1.22.29,2.45.54,3.7.75l.59-6.3h0s2.44.22,2.44.22c1.63.15,2.73.32,3.29.5.57.18,1.01.54,1.32,1.1.32.55.42,1.39.32,2.52-.1,1.04-.29,1.71-.58,2.05-.29.33-.82.5-1.57.5.17.06.32.12.46.18,1.48.1,2.98.16,4.49.16.23,0,.47,0,.7,0l-.53-6.66,3.45-.28.55,6.81c1.3-.08,2.58-.21,3.86-.37l-1.6-6.8h0l5.62-1.32.61,2.6-2.25.53.58,2.46,2.11-.5.49,2.07c1.3-.29,2.59-.61,3.85-.98l-3.09-6.86,2.64-1.19,4.23,4.67-2.47-5.47,2.64-1.19,3.34,7.41c1.26-.55,2.5-1.14,3.71-1.77l-2.25-3.03c-.57-.77-.97-1.37-1.21-1.79-.23-.42-.35-.91-.35-1.46s.15-1.1.46-1.65c.31-.55.77-1.05,1.37-1.49.82-.61,1.62-.95,2.38-1.03.77-.08,1.41.06,1.93.4s1.15,1.02,1.89,2.02l.75,1.02h0s-2.78,2.07-2.78,2.07l-1.38-1.86c-.4-.54-.68-.85-.84-.95-.16-.09-.34-.06-.54.09-.23.17-.32.36-.26.57.06.21.29.58.69,1.12l3.17,4.27c.36-.22.72-.44,1.08-.66l-.62-.84,2.78-2.07.31.42c.15.2.28.38.4.56,1.16-.83,2.27-1.7,3.35-2.6l-7.14-6.48h0s3.88-4.28,3.88-4.28l1.97,1.79-1.56,1.71,1.87,1.7,1.45-1.6,1.88,1.7-1.45,1.6,1.69,1.54c6.48-6.16,11.29-13.77,13.8-22.24-.28.02-.57.03-.87.03-2,0-3.7-.38-5.11-1.13ZM94.58,55.22c15.24,0,28.59,8.03,36.08,20.08H58.5c7.49-12.05,20.85-20.08,36.08-20.08ZM122.35,112.56h-7.62l-.4-5.15h-2.66l-.45,5.15h-7.71l3.8-28.66h10.78l4.26,28.66ZM102.24,95.07v5.46h-4.66v6.3h5.47v5.74h-12.93v-28.66h0s12.43,0,12.43,0v5.74h-4.98v5.44h4.66ZM71.28,83.89h6.85c1.07,5.59,1.67,9.36,1.81,11.3.41-3.06,1.1-6.82,2.08-11.3h6.85l-5.44,18.29v10.38h-6.9v-10.38l-5.24-18.29ZM55.77,113.1c-1.71,0-3.13-.2-4.27-.59-1.13-.39-2.04-1.01-2.71-1.85-.67-.84-1.15-1.72-1.43-2.65-.28-.93-.43-2.4-.43-4.42v-10c0-2.63.23-4.61.68-5.91.45-1.31,1.36-2.36,2.71-3.15,1.35-.79,2.99-1.18,4.91-1.18,1.57,0,2.98.27,4.22.82,1.24.55,2.16,1.22,2.78,2.01.61.79,1.03,1.68,1.25,2.67.22.99.33,2.57.33,4.74h0v9.56c0,2.17-.12,3.75-.35,4.74-.24.99-.72,1.92-1.47,2.78-.74.86-1.64,1.48-2.69,1.86-1.05.38-2.22.57-3.52.57ZM94.58,140.15c-15.18,0-28.49-7.97-35.99-19.94h71.99c-7.51,11.97-20.82,19.94-35.99,19.94ZM140.26,112.56h-6.92v-9.53c0-1.53-.12-2.48-.36-2.85-.24-.37-.88-.55-1.9-.55v12.93h-7.45v-28.66h0,5.27c3.51,0,5.9.13,7.15.41,1.24.27,2.26.97,3.05,2.08.78,1.11,1.17,2.89,1.17,5.34,0,2.23-.28,3.73-.83,4.5-.56.77-1.65,1.23-3.27,1.38,1.48.37,2.47.85,2.98,1.47.51.61.82,1.18.95,1.69.13.52.19,1.93.19,4.24v7.56Z"/>
    <path class="cls-2" d="M72.27,141.54h0l-1.54,3.02c.09.05.16.09.22.13.28.14.52.18.7.09s.39-.34.61-.78l.5-.97c.21-.4.28-.7.21-.89-.07-.19-.3-.38-.7-.59Z"/>
    <path class="cls-2" d="M131.06,88.8v6.37c.84,0,1.43-.12,1.76-.34.34-.23.51-.97.51-2.24v-1.57c0-.91-.16-1.5-.49-1.79s-.92-.43-1.78-.43Z"/>
    <path class="cls-2" d="M57.79,62.01c-.19.17-.39.33-.58.5l.07.06.51-.57Z"/>
    <path class="cls-2" d="M124.44,56.84c-.06.2.02.39.23.55.2.16.4.18.58.07.18-.11.5-.45.94-1.04l.65-.85c-.37-.21-.75-.41-1.13-.61l-.61.79c-.39.52-.62.87-.68,1.08Z"/>
    <polygon class="cls-2" points="96.36 63.41 94.58 59.59 92.8 63.41 88.62 63.92 91.69 66.8 90.89 70.93 94.58 68.89 98.26 70.93 97.46 66.8 100.54 63.92 96.36 63.41"/>
    <polygon class="cls-2" points="92.9 131.94 94.85 135.68 96.46 131.79 100.62 131.09 97.42 128.36 98.04 124.19 94.45 126.39 90.68 124.51 91.66 128.61 88.7 131.61 92.9 131.94"/>
    <polygon class="cls-2" points="109.28 67.92 108.04 65.26 106.8 67.92 103.89 68.28 106.03 70.28 105.47 73.15 108.04 71.74 110.6 73.15 110.04 70.28 112.19 68.28 109.28 67.92"/>
    <polygon class="cls-2" points="106.87 127.31 108.23 129.91 109.35 127.2 112.24 126.72 110.01 124.81 110.45 121.92 107.94 123.44 105.32 122.13 106 124.99 103.95 127.08 106.87 127.31"/>
    <polygon class="cls-2" points="82.49 67.92 81.25 65.26 80.01 67.92 77.1 68.28 79.24 70.28 78.68 73.15 81.25 71.74 83.81 73.15 83.25 70.28 85.4 68.28 82.49 67.92"/>
    <polygon class="cls-2" points="80.13 127.34 81.55 129.91 82.6 127.17 85.48 126.61 83.21 124.77 83.57 121.86 81.1 123.45 78.45 122.21 79.2 125.04 77.2 127.18 80.13 127.34"/>
  </g>
</svg>