<?xml version="1.0" encoding="UTF-8"?>
<svg id="Layer_1" data-name="Layer 1" xmlns="http://www.w3.org/2000/svg" xmlns:xlink="http://www.w3.org/1999/xlink" viewBox="0 0 259.2 206.4">
  <defs>
    <style>
      .cls-1 {
        fill: #09668d;
        isolation: isolate;
        opacity: .6;
      }
    </style>
  </defs>
  <image width="1080" height="1080" transform="translate(-6.53 -40.04) scale(.26)" xlink:href="../../post-Marine_Exploded_Boat_Graphic.png"/>
  <polygon id="yacht_path_0" data-name="yacht path 0" class="cls-1" points="99.94 53.83 158.41 52.14 162.97 62.28 133.25 60.84 128.94 56.97 115.04 56.25 106.65 55.52 102.58 54.8 99.94 53.83"/>
  <polygon id="yacht_path_1" data-name="yacht path 1" class="cls-1" points="160.57 57.45 162.73 62.28 157.46 62.04 157.46 65.18 175.43 65.67 173.03 59.63 160.57 57.45"/>
  <polygon id="yacht_path_2" data-name="yacht path 2" class="cls-1" points="88.44 82.57 95.86 82.57 95.86 84.75 102.1 84.75 102.1 82.57 109.05 82.33 108.81 87.89 101.86 87.89 86.28 87.89 88.44 82.57"/>
  <polygon id="yacht_path_3" data-name="yacht path 3" class="cls-1" points="63.75 131.61 87.24 131.61 87.24 125.33 88.2 120.25 90.11 120.01 89.87 114.46 89.63 109.63 87.72 115.18 86.52 120.25 70.7 120.01 63.75 131.61"/>
  <polygon id="yacht_path_4" data-name="yacht path 4" class="cls-1" points="2.64 116.87 2.88 122.67 4.32 124.12 5.99 125.08 11.27 126.77 24.93 130.16 39.79 132.57 52.73 134.5 62.79 135.47 64.95 129.19 2.64 116.87"/>
  <polygon id="yacht_path_5" data-name="yacht path 5" class="cls-1" points="218.81 90.54 230.79 106.73 234.15 106.24 237.5 105.52 241.1 112.04 257.15 109.38 257.87 107.69 250.92 99.48 243.73 93.2 218.81 90.54"/>
  <polygon id="yacht_path_6" data-name="yacht path 6" class="cls-1" points="199.88 89.34 204.91 96.1 204.43 97.07 202.99 97.55 203.71 99.72 207.06 109.14 230.79 106.97 218.81 90.79 199.88 89.34"/>
  <polygon id="yacht_path_7" data-name="yacht path 7" class="cls-1" points="195.08 82.33 183.58 82.33 189.81 95.13 179.74 96.58 190.29 96.58 191.25 97.07 204.91 97.07 204.91 95.86 195.08 82.33"/>
  <polygon id="yacht_path_8" data-name="yacht path 8" class="cls-1" points="126.54 104.07 126.3 106.49 125.82 116.63 141.88 116.63 141.64 106.49 141.4 103.83 126.54 104.07"/>
  <polygon id="yacht_path_9" data-name="yacht path 9" class="cls-1" points="128.46 79.43 137.56 79.43 137.33 86.44 144.99 86.2 145.23 79.68 154.34 79.43 154.1 90.3 132.53 90.3 133.01 86.68 132.05 86.2 131.09 86.92 129.42 87.89 128.22 88.61 128.46 79.43"/>
  <polygon id="yacht_path_10" data-name="yacht path 10" class="cls-1" points="128.94 71.7 136.37 71.46 137.33 75.81 143.8 75.81 143.56 70.5 152.66 70.5 154.82 77.74 154.82 79.68 145.23 79.92 145.23 84.75 137.33 84.75 137.56 79.92 128.94 79.92 128.94 71.7"/>
  <polygon id="yacht_path_11" data-name="yacht path 11" class="cls-1" points="128.94 69.29 129.18 79.43 128.46 79.92 128.46 85.23 116 84.99 116.48 74.12 117.19 69.77 128.94 69.29"/>
</svg>